<?xml version="1.0" encoding="UTF-8" standalone="no"?>
<!DOCTYPE svg PUBLIC "-//W3C//DTD SVG 1.1//EN"
 "http://www.w3.org/Graphics/SVG/1.1/DTD/svg11.dtd">
<!-- Generated by graphviz version 2.34.0 (20140129.0153)
 -->
<!-- Title: G Pages: 1 -->
<svg width="4020pt" height="2101pt"
 viewBox="0.00 0.00 4019.88 2101.00" xmlns="http://www.w3.org/2000/svg" xmlns:xlink="http://www.w3.org/1999/xlink">
<g id="graph0" class="graph" transform="scale(1 1) rotate(0) translate(4 2097)">
<title>G</title>
<polygon fill="white" stroke="white" points="-4,4 -4,-2097 4015.88,-2097 4015.88,4 -4,4"/>
<!-- label0 -->
<g id="node1" class="node"><title>label0</title>
<polygon fill="none" stroke="none" points="224,-2093 1.42109e-14,-2093 1.42109e-14,-1982 224,-1982 224,-2093"/>
<polygon fill="none" stroke="none" points="11,-1988.5 11,-2085.5 62,-2085.5 62,-1988.5 11,-1988.5"/>
<image xlink:href="./images/Confucius_02.png" width="33.5563px" height="68.25px" preserveAspectRatio="xMinYMin meet" x="19.7219" y="-2071.12"/>
<polygon fill="none" stroke="none" points="64,-1988.5 64,-2085.5 213,-2085.5 213,-1988.5 64,-1988.5"/>
<text text-anchor="start" x="66.8915" y="-2034.32" font-family="Arial" font-size="14.00">孔子(こうし) &#45;552&#45;&#45;479</text>
<polygon fill="none" stroke="none" points="8,-1986 8,-2089 216,-2089 216,-1986 8,-1986"/>
</g>
<!-- from0 -->
<g id="node2" class="node"><title>from0</title>
<ellipse fill="white" stroke="white" cx="400" cy="-2037.5" rx="1.8" ry="1.8"/>
</g>
<!-- to0 -->
<g id="node3" class="node"><title>to0</title>
<ellipse fill="white" stroke="white" cx="505.12" cy="-2037.5" rx="1.8" ry="1.8"/>
</g>
<!-- from0&#45;&gt;to0 -->
<g id="edge1" class="edge"><title>from0&#45;&gt;to0</title>
<path fill="none" stroke="blue" stroke-width="10" d="M401.825,-2037.5C412.59,-2037.5 468.191,-2037.5 493.067,-2037.5"/>
<polygon fill="blue" stroke="blue" points="493.245,-2046.25 503.245,-2037.5 493.245,-2028.75 493.245,-2046.25"/>
</g>
<!-- label1 -->
<g id="node4" class="node"><title>label1</title>
<polygon fill="none" stroke="none" points="351.02,-2021 112.02,-2021 112.02,-1910 351.02,-1910 351.02,-2021"/>
<polygon fill="none" stroke="none" points="123.52,-1916.5 123.52,-2013.5 199.52,-2013.5 199.52,-1916.5 123.52,-1916.5"/>
<image xlink:href="./images/Socrate.jpg" width="52.325px" height="68.25px" preserveAspectRatio="xMinYMin meet" x="135.357" y="-1999.12"/>
<polygon fill="none" stroke="none" points="201.52,-1916.5 201.52,-2013.5 340.52,-2013.5 340.52,-1916.5 201.52,-1916.5"/>
<text text-anchor="start" x="204.074" y="-1962.32" font-family="Arial" font-size="14.00">ソクラテス &#45;469&#45;&#45;399</text>
<polygon fill="none" stroke="none" points="120.02,-1914 120.02,-2017 343.02,-2017 343.02,-1914 120.02,-1914"/>
</g>
<!-- from1 -->
<g id="node5" class="node"><title>from1</title>
<ellipse fill="white" stroke="white" cx="519.52" cy="-1965.5" rx="1.8" ry="1.8"/>
</g>
<!-- to1 -->
<g id="node6" class="node"><title>to1</title>
<ellipse fill="white" stroke="white" cx="620.32" cy="-1965.5" rx="1.8" ry="1.8"/>
</g>
<!-- from1&#45;&gt;to1 -->
<g id="edge2" class="edge"><title>from1&#45;&gt;to1</title>
<path fill="none" stroke="blue" stroke-width="10" d="M521.625,-1965.5C532.643,-1965.5 584.062,-1965.5 608,-1965.5"/>
<polygon fill="blue" stroke="blue" points="608.226,-1974.25 618.226,-1965.5 608.226,-1956.75 608.226,-1974.25"/>
</g>
<!-- label2 -->
<g id="node7" class="node"><title>label2</title>
<polygon fill="none" stroke="none" points="311.66,-1915 168.66,-1915 168.66,-1872 311.66,-1872 311.66,-1915"/>
<polygon fill="none" stroke="none" points="180.16,-1878.5 180.16,-1907.5 187.16,-1907.5 187.16,-1878.5 180.16,-1878.5"/>
<polygon fill="none" stroke="none" points="189.16,-1878.5 189.16,-1907.5 301.16,-1907.5 301.16,-1878.5 189.16,-1878.5"/>
<text text-anchor="start" x="191.864" y="-1890.32" font-family="Arial" font-size="14.00">シャカ &#45;463&#45;&#45;383</text>
<polygon fill="none" stroke="none" points="176.66,-1876 176.66,-1911 303.66,-1911 303.66,-1876 176.66,-1876"/>
</g>
<!-- from2 -->
<g id="node8" class="node"><title>from2</title>
<ellipse fill="white" stroke="white" cx="528.16" cy="-1893.5" rx="1.8" ry="1.8"/>
</g>
<!-- to2 -->
<g id="node9" class="node"><title>to2</title>
<ellipse fill="white" stroke="white" cx="643.36" cy="-1893.5" rx="1.8" ry="1.8"/>
</g>
<!-- from2&#45;&gt;to2 -->
<g id="edge3" class="edge"><title>from2&#45;&gt;to2</title>
<path fill="none" stroke="blue" stroke-width="10" d="M530.16,-1893.5C542.121,-1893.5 604.592,-1893.5 631.267,-1893.5"/>
<polygon fill="blue" stroke="blue" points="631.305,-1902.25 641.305,-1893.5 631.305,-1884.75 631.305,-1902.25"/>
</g>
<!-- label3 -->
<g id="node10" class="node"><title>label3</title>
<polygon fill="none" stroke="none" points="370.5,-1843 213.5,-1843 213.5,-1800 370.5,-1800 370.5,-1843"/>
<polygon fill="none" stroke="none" points="225,-1806.5 225,-1835.5 232,-1835.5 232,-1806.5 225,-1806.5"/>
<polygon fill="none" stroke="none" points="234,-1806.5 234,-1835.5 360,-1835.5 360,-1806.5 234,-1806.5"/>
<text text-anchor="start" x="236.914" y="-1818.32" font-family="Arial" font-size="14.00">プラトン &#45;427&#45;&#45;347</text>
<polygon fill="none" stroke="none" points="221.5,-1804 221.5,-1839 362.5,-1839 362.5,-1804 221.5,-1804"/>
</g>
<!-- from3 -->
<g id="node11" class="node"><title>from3</title>
<ellipse fill="white" stroke="white" cx="580" cy="-1821.5" rx="1.8" ry="1.8"/>
</g>
<!-- to3 -->
<g id="node12" class="node"><title>to3</title>
<ellipse fill="white" stroke="white" cx="695.2" cy="-1821.5" rx="1.8" ry="1.8"/>
</g>
<!-- from3&#45;&gt;to3 -->
<g id="edge4" class="edge"><title>from3&#45;&gt;to3</title>
<path fill="none" stroke="blue" stroke-width="10" d="M582,-1821.5C593.961,-1821.5 656.432,-1821.5 683.107,-1821.5"/>
<polygon fill="blue" stroke="blue" points="683.146,-1830.25 693.145,-1821.5 683.145,-1812.75 683.146,-1830.25"/>
</g>
<!-- label4 -->
<g id="node13" class="node"><title>label4</title>
<polygon fill="none" stroke="none" points="452.92,-1771 254.92,-1771 254.92,-1728 452.92,-1728 452.92,-1771"/>
<polygon fill="none" stroke="none" points="265.92,-1734.5 265.92,-1763.5 272.92,-1763.5 272.92,-1734.5 265.92,-1734.5"/>
<polygon fill="none" stroke="none" points="274.92,-1734.5 274.92,-1763.5 441.92,-1763.5 441.92,-1734.5 274.92,-1734.5"/>
<text text-anchor="start" x="277.754" y="-1746.32" font-family="Arial" font-size="14.00">アリストテレス &#45;384&#45;&#45;322</text>
<polygon fill="none" stroke="none" points="262.92,-1732 262.92,-1767 444.92,-1767 444.92,-1732 262.92,-1732"/>
</g>
<!-- from4 -->
<g id="node14" class="node"><title>from4</title>
<ellipse fill="white" stroke="white" cx="641.92" cy="-1749.5" rx="1.8" ry="1.8"/>
</g>
<!-- to4 -->
<g id="node15" class="node"><title>to4</title>
<ellipse fill="white" stroke="white" cx="731.2" cy="-1749.5" rx="1.8" ry="1.8"/>
</g>
<!-- from4&#45;&gt;to4 -->
<g id="edge5" class="edge"><title>from4&#45;&gt;to4</title>
<path fill="none" stroke="blue" stroke-width="10" d="M643.785,-1749.5C653.361,-1749.5 697.403,-1749.5 719.08,-1749.5"/>
<polygon fill="blue" stroke="blue" points="719.346,-1758.25 729.346,-1749.5 719.345,-1740.75 719.346,-1758.25"/>
</g>
<!-- label5 -->
<g id="node16" class="node"><title>label5</title>
<polygon fill="none" stroke="none" points="585.1,-1699 402.1,-1699 402.1,-1656 585.1,-1656 585.1,-1699"/>
<polygon fill="none" stroke="none" points="413.6,-1662.5 413.6,-1691.5 420.6,-1691.5 420.6,-1662.5 413.6,-1662.5"/>
<polygon fill="none" stroke="none" points="422.6,-1662.5 422.6,-1691.5 574.6,-1691.5 574.6,-1662.5 422.6,-1662.5"/>
<text text-anchor="start" x="425.144" y="-1674.32" font-family="Arial" font-size="14.00">アルキメデス &#45;287&#45;&#45;212</text>
<polygon fill="none" stroke="none" points="410.1,-1660 410.1,-1695 577.1,-1695 577.1,-1660 410.1,-1660"/>
</g>
<!-- from5 -->
<g id="node17" class="node"><title>from5</title>
<ellipse fill="white" stroke="white" cx="781.6" cy="-1677.5" rx="1.8" ry="1.8"/>
</g>
<!-- to5 -->
<g id="node18" class="node"><title>to5</title>
<ellipse fill="white" stroke="white" cx="889.6" cy="-1677.5" rx="1.8" ry="1.8"/>
</g>
<!-- from5&#45;&gt;to5 -->
<g id="edge6" class="edge"><title>from5&#45;&gt;to5</title>
<path fill="none" stroke="blue" stroke-width="10" d="M783.474,-1677.5C794.586,-1677.5 852.189,-1677.5 877.569,-1677.5"/>
<polygon fill="blue" stroke="blue" points="877.674,-1686.25 887.674,-1677.5 877.674,-1668.75 877.674,-1686.25"/>
</g>
<!-- label6 -->
<g id="node19" class="node"><title>label6</title>
<polygon fill="none" stroke="none" points="725.78,-1627 540.78,-1627 540.78,-1584 725.78,-1584 725.78,-1627"/>
<polygon fill="none" stroke="none" points="552.28,-1590.5 552.28,-1619.5 559.28,-1619.5 559.28,-1590.5 552.28,-1590.5"/>
<polygon fill="none" stroke="none" points="561.28,-1590.5 561.28,-1619.5 715.28,-1619.5 715.28,-1590.5 561.28,-1590.5"/>
<text text-anchor="start" x="563.984" y="-1602.32" font-family="Arial" font-size="14.00">ヒッパルコス &#45;190&#45;&#45;125</text>
<polygon fill="none" stroke="none" points="548.78,-1588 548.78,-1623 717.78,-1623 717.78,-1588 548.78,-1588"/>
</g>
<!-- from6 -->
<g id="node20" class="node"><title>from6</title>
<ellipse fill="white" stroke="white" cx="921.28" cy="-1605.5" rx="1.8" ry="1.8"/>
</g>
<!-- to6 -->
<g id="node21" class="node"><title>to6</title>
<ellipse fill="white" stroke="white" cx="1014.88" cy="-1605.5" rx="1.8" ry="1.8"/>
</g>
<!-- from6&#45;&gt;to6 -->
<g id="edge7" class="edge"><title>from6&#45;&gt;to6</title>
<path fill="none" stroke="blue" stroke-width="10" d="M923.235,-1605.5C933.37,-1605.5 980.326,-1605.5 1002.81,-1605.5"/>
<polygon fill="blue" stroke="blue" points="1002.94,-1614.25 1012.94,-1605.5 1002.94,-1596.75 1002.94,-1614.25"/>
</g>
<!-- label7 -->
<g id="node22" class="node"><title>label7</title>
<polygon fill="none" stroke="none" points="993.12,-1555 809.12,-1555 809.12,-1512 993.12,-1512 993.12,-1555"/>
<polygon fill="none" stroke="none" points="820.12,-1518.5 820.12,-1547.5 827.12,-1547.5 827.12,-1518.5 820.12,-1518.5"/>
<polygon fill="none" stroke="none" points="829.12,-1518.5 829.12,-1547.5 982.12,-1547.5 982.12,-1518.5 829.12,-1518.5"/>
<text text-anchor="start" x="831.824" y="-1530.32" font-family="Arial" font-size="14.00">イエス・キリスト &#45;4&#45;30</text>
<polygon fill="none" stroke="none" points="817.12,-1516 817.12,-1551 985.12,-1551 985.12,-1516 817.12,-1516"/>
</g>
<!-- from7 -->
<g id="node23" class="node"><title>from7</title>
<ellipse fill="white" stroke="white" cx="1189.12" cy="-1533.5" rx="1.8" ry="1.8"/>
</g>
<!-- to7 -->
<g id="node24" class="node"><title>to7</title>
<ellipse fill="white" stroke="white" cx="1238.08" cy="-1533.5" rx="1.8" ry="1.8"/>
</g>
<!-- from7&#45;&gt;to7 -->
<g id="edge8" class="edge"><title>from7&#45;&gt;to7</title>
<path fill="none" stroke="blue" stroke-width="10" d="M1191.22,-1533.5C1197.07,-1533.5 1213.89,-1533.5 1225.69,-1533.5"/>
<polygon fill="blue" stroke="blue" points="1226.04,-1542.25 1236.04,-1533.5 1226.04,-1524.75 1226.04,-1542.25"/>
</g>
<!-- label8 -->
<g id="node25" class="node"><title>label8</title>
<polygon fill="none" stroke="none" points="1116.4,-1483 936.4,-1483 936.4,-1440 1116.4,-1440 1116.4,-1483"/>
<polygon fill="none" stroke="none" points="947.4,-1446.5 947.4,-1475.5 954.4,-1475.5 954.4,-1446.5 947.4,-1446.5"/>
<polygon fill="none" stroke="none" points="956.4,-1446.5 956.4,-1475.5 1105.4,-1475.5 1105.4,-1446.5 956.4,-1446.5"/>
<text text-anchor="start" x="958.929" y="-1458.32" font-family="Arial" font-size="14.00">プトレマイオス 83&#45;168</text>
<polygon fill="none" stroke="none" points="944.4,-1444 944.4,-1479 1108.4,-1479 1108.4,-1444 944.4,-1444"/>
</g>
<!-- from8 -->
<g id="node26" class="node"><title>from8</title>
<ellipse fill="white" stroke="white" cx="1314.4" cy="-1461.5" rx="1.8" ry="1.8"/>
</g>
<!-- to8 -->
<g id="node27" class="node"><title>to8</title>
<ellipse fill="white" stroke="white" cx="1436.8" cy="-1461.5" rx="1.8" ry="1.8"/>
</g>
<!-- from8&#45;&gt;to8 -->
<g id="edge9" class="edge"><title>from8&#45;&gt;to8</title>
<path fill="none" stroke="blue" stroke-width="10" d="M1316.52,-1461.5C1329.34,-1461.5 1396.75,-1461.5 1424.67,-1461.5"/>
<polygon fill="blue" stroke="blue" points="1424.99,-1470.25 1434.99,-1461.5 1424.99,-1452.75 1424.99,-1470.25"/>
</g>
<!-- label9 -->
<g id="node28" class="node"><title>label9</title>
<polygon fill="none" stroke="none" points="1808.68,-1411 1646.68,-1411 1646.68,-1368 1808.68,-1368 1808.68,-1411"/>
<polygon fill="none" stroke="none" points="1657.68,-1374.5 1657.68,-1403.5 1664.68,-1403.5 1664.68,-1374.5 1657.68,-1374.5"/>
<polygon fill="none" stroke="none" points="1666.68,-1374.5 1666.68,-1403.5 1797.68,-1403.5 1797.68,-1374.5 1666.68,-1374.5"/>
<text text-anchor="start" x="1669.55" y="-1386.32" font-family="Arial" font-size="14.00">ムハンマド 570&#45;632</text>
<polygon fill="none" stroke="none" points="1654.68,-1372 1654.68,-1407 1800.68,-1407 1800.68,-1372 1654.68,-1372"/>
</g>
<!-- from9 -->
<g id="node29" class="node"><title>from9</title>
<ellipse fill="white" stroke="white" cx="2015.68" cy="-1389.5" rx="1.8" ry="1.8"/>
</g>
<!-- to9 -->
<g id="node30" class="node"><title>to9</title>
<ellipse fill="white" stroke="white" cx="2104.96" cy="-1389.5" rx="1.8" ry="1.8"/>
</g>
<!-- from9&#45;&gt;to9 -->
<g id="edge10" class="edge"><title>from9&#45;&gt;to9</title>
<path fill="none" stroke="blue" stroke-width="10" d="M2017.54,-1389.5C2027.12,-1389.5 2071.16,-1389.5 2092.84,-1389.5"/>
<polygon fill="blue" stroke="blue" points="2093.11,-1398.25 2103.11,-1389.5 2093.11,-1380.75 2093.11,-1398.25"/>
</g>
<!-- label10 -->
<g id="node31" class="node"><title>label10</title>
<polygon fill="none" stroke="none" points="1872.76,-1339 1674.76,-1339 1674.76,-1296 1872.76,-1296 1872.76,-1339"/>
<polygon fill="none" stroke="none" points="1685.76,-1302.5 1685.76,-1331.5 1692.76,-1331.5 1692.76,-1302.5 1685.76,-1302.5"/>
<polygon fill="none" stroke="none" points="1694.76,-1302.5 1694.76,-1331.5 1861.76,-1331.5 1861.76,-1302.5 1694.76,-1302.5"/>
<text text-anchor="start" x="1697.45" y="-1314.32" font-family="Arial" font-size="14.00">玄奘(げんじょう) 602&#45;664</text>
<polygon fill="none" stroke="none" points="1682.76,-1300 1682.76,-1335 1864.76,-1335 1864.76,-1300 1682.76,-1300"/>
</g>
<!-- from10 -->
<g id="node32" class="node"><title>from10</title>
<ellipse fill="white" stroke="white" cx="2061.76" cy="-1317.5" rx="1.8" ry="1.8"/>
</g>
<!-- to10 -->
<g id="node33" class="node"><title>to10</title>
<ellipse fill="white" stroke="white" cx="2151.04" cy="-1317.5" rx="1.8" ry="1.8"/>
</g>
<!-- from10&#45;&gt;to10 -->
<g id="edge11" class="edge"><title>from10&#45;&gt;to10</title>
<path fill="none" stroke="blue" stroke-width="10" d="M2063.62,-1317.5C2073.2,-1317.5 2117.24,-1317.5 2138.92,-1317.5"/>
<polygon fill="blue" stroke="blue" points="2139.19,-1326.25 2149.19,-1317.5 2139.19,-1308.75 2139.19,-1326.25"/>
</g>
<!-- label11 -->
<g id="node34" class="node"><title>label11</title>
<polygon fill="none" stroke="none" points="2814.64,-1267 2610.64,-1267 2610.64,-1224 2814.64,-1224 2814.64,-1267"/>
<polygon fill="none" stroke="none" points="2621.64,-1230.5 2621.64,-1259.5 2628.64,-1259.5 2628.64,-1230.5 2621.64,-1230.5"/>
<polygon fill="none" stroke="none" points="2630.64,-1230.5 2630.64,-1259.5 2803.64,-1259.5 2803.64,-1230.5 2630.64,-1230.5"/>
<text text-anchor="start" x="2633.35" y="-1242.32" font-family="Arial" font-size="14.00">マルコ・ポーロ 1254&#45;1324</text>
<polygon fill="none" stroke="none" points="2618.64,-1228 2618.64,-1263 2806.64,-1263 2806.64,-1228 2618.64,-1228"/>
</g>
<!-- from11 -->
<g id="node35" class="node"><title>from11</title>
<ellipse fill="white" stroke="white" cx="3000.64" cy="-1245.5" rx="1.8" ry="1.8"/>
</g>
<!-- to11 -->
<g id="node36" class="node"><title>to11</title>
<ellipse fill="white" stroke="white" cx="3101.44" cy="-1245.5" rx="1.8" ry="1.8"/>
</g>
<!-- from11&#45;&gt;to11 -->
<g id="edge12" class="edge"><title>from11&#45;&gt;to11</title>
<path fill="none" stroke="blue" stroke-width="10" d="M3002.75,-1245.5C3013.76,-1245.5 3065.18,-1245.5 3089.12,-1245.5"/>
<polygon fill="blue" stroke="blue" points="3089.35,-1254.25 3099.35,-1245.5 3089.35,-1236.75 3089.35,-1254.25"/>
</g>
<!-- label12 -->
<g id="node37" class="node"><title>label12</title>
<polygon fill="none" stroke="none" points="3059.18,-1195 2844.18,-1195 2844.18,-1152 3059.18,-1152 3059.18,-1195"/>
<polygon fill="none" stroke="none" points="2855.68,-1158.5 2855.68,-1187.5 2862.68,-1187.5 2862.68,-1158.5 2855.68,-1158.5"/>
<polygon fill="none" stroke="none" points="2864.68,-1158.5 2864.68,-1187.5 3048.68,-1187.5 3048.68,-1158.5 2864.68,-1158.5"/>
<text text-anchor="start" x="2867.6" y="-1170.32" font-family="Arial" font-size="14.00">雪舟(せっしゅう) 1420&#45;1506</text>
<polygon fill="none" stroke="none" points="2852.18,-1156 2852.18,-1191 3051.18,-1191 3051.18,-1156 2852.18,-1156"/>
</g>
<!-- from12 -->
<g id="node38" class="node"><title>from12</title>
<ellipse fill="white" stroke="white" cx="3239.68" cy="-1173.5" rx="1.8" ry="1.8"/>
</g>
<!-- to12 -->
<g id="node39" class="node"><title>to12</title>
<ellipse fill="white" stroke="white" cx="3363.52" cy="-1173.5" rx="1.8" ry="1.8"/>
</g>
<!-- from12&#45;&gt;to12 -->
<g id="edge13" class="edge"><title>from12&#45;&gt;to12</title>
<path fill="none" stroke="blue" stroke-width="10" d="M3241.83,-1173.5C3254.86,-1173.5 3323.62,-1173.5 3351.63,-1173.5"/>
<polygon fill="blue" stroke="blue" points="3351.69,-1182.25 3361.69,-1173.5 3351.69,-1164.75 3351.69,-1182.25"/>
</g>
<!-- label13 -->
<g id="node40" class="node"><title>label13</title>
<polygon fill="none" stroke="none" points="3084.82,-1123 2907.82,-1123 2907.82,-1080 3084.82,-1080 3084.82,-1123"/>
<polygon fill="none" stroke="none" points="2919.32,-1086.5 2919.32,-1115.5 2926.32,-1115.5 2926.32,-1086.5 2919.32,-1086.5"/>
<polygon fill="none" stroke="none" points="2928.32,-1086.5 2928.32,-1115.5 3074.32,-1115.5 3074.32,-1086.5 2928.32,-1086.5"/>
<text text-anchor="start" x="2930.9" y="-1098.32" font-family="Arial" font-size="14.00">コロンブス 1451&#45;1506</text>
<polygon fill="none" stroke="none" points="2915.82,-1084 2915.82,-1119 3076.82,-1119 3076.82,-1084 2915.82,-1084"/>
</g>
<!-- from13 -->
<g id="node41" class="node"><title>from13</title>
<ellipse fill="white" stroke="white" cx="3284.32" cy="-1101.5" rx="1.8" ry="1.8"/>
</g>
<!-- to13 -->
<g id="node42" class="node"><title>to13</title>
<ellipse fill="white" stroke="white" cx="3363.52" cy="-1101.5" rx="1.8" ry="1.8"/>
</g>
<!-- from13&#45;&gt;to13 -->
<g id="edge14" class="edge"><title>from13&#45;&gt;to13</title>
<path fill="none" stroke="blue" stroke-width="10" d="M3286.28,-1101.5C3295.18,-1101.5 3332.25,-1101.5 3351.61,-1101.5"/>
<polygon fill="blue" stroke="blue" points="3351.63,-1110.25 3361.63,-1101.5 3351.63,-1092.75 3351.63,-1110.25"/>
</g>
<!-- label14 -->
<g id="node43" class="node"><title>label14</title>
<polygon fill="none" stroke="none" points="3128.26,-1051 2867.26,-1051 2867.26,-1008 3128.26,-1008 3128.26,-1051"/>
<polygon fill="none" stroke="none" points="2878.76,-1014.5 2878.76,-1043.5 2885.76,-1043.5 2885.76,-1014.5 2878.76,-1014.5"/>
<polygon fill="none" stroke="none" points="2887.76,-1014.5 2887.76,-1043.5 3117.76,-1043.5 3117.76,-1014.5 2887.76,-1014.5"/>
<text text-anchor="start" x="2890.69" y="-1026.32" font-family="Arial" font-size="14.00">レオナルド・ダ・ビンチ 1452&#45;1519</text>
<polygon fill="none" stroke="none" points="2875.26,-1012 2875.26,-1047 3120.26,-1047 3120.26,-1012 2875.26,-1012"/>
</g>
<!-- from14 -->
<g id="node44" class="node"><title>from14</title>
<ellipse fill="white" stroke="white" cx="3285.76" cy="-1029.5" rx="1.8" ry="1.8"/>
</g>
<!-- to14 -->
<g id="node45" class="node"><title>to14</title>
<ellipse fill="white" stroke="white" cx="3382.24" cy="-1029.5" rx="1.8" ry="1.8"/>
</g>
<!-- from14&#45;&gt;to14 -->
<g id="edge15" class="edge"><title>from14&#45;&gt;to14</title>
<path fill="none" stroke="blue" stroke-width="10" d="M3287.78,-1029.5C3298.27,-1029.5 3347.08,-1029.5 3370.13,-1029.5"/>
<polygon fill="blue" stroke="blue" points="3370.24,-1038.25 3380.24,-1029.5 3370.24,-1020.75 3370.24,-1038.25"/>
</g>
<!-- label15 -->
<g id="node46" class="node"><title>label15</title>
<polygon fill="none" stroke="none" points="3165.5,-979 2890.5,-979 2890.5,-936 3165.5,-936 3165.5,-979"/>
<polygon fill="none" stroke="none" points="2902,-942.5 2902,-971.5 2909,-971.5 2909,-942.5 2902,-942.5"/>
<polygon fill="none" stroke="none" points="2911,-942.5 2911,-971.5 3155,-971.5 3155,-942.5 2911,-942.5"/>
<text text-anchor="start" x="2913.79" y="-954.32" font-family="Arial" font-size="14.00">ニコラウス・コペルニクス 1473&#45;1543</text>
<polygon fill="none" stroke="none" points="2898.5,-940 2898.5,-975 3157.5,-975 3157.5,-940 2898.5,-940"/>
</g>
<!-- from15 -->
<g id="node47" class="node"><title>from15</title>
<ellipse fill="white" stroke="white" cx="3316" cy="-957.5" rx="1.8" ry="1.8"/>
</g>
<!-- to15 -->
<g id="node48" class="node"><title>to15</title>
<ellipse fill="white" stroke="white" cx="3416.8" cy="-957.5" rx="1.8" ry="1.8"/>
</g>
<!-- from15&#45;&gt;to15 -->
<g id="edge16" class="edge"><title>from15&#45;&gt;to15</title>
<path fill="none" stroke="blue" stroke-width="10" d="M3318.11,-957.5C3329.12,-957.5 3380.54,-957.5 3404.48,-957.5"/>
<polygon fill="blue" stroke="blue" points="3404.71,-966.25 3414.71,-957.5 3404.71,-948.75 3404.71,-966.25"/>
</g>
<!-- label16 -->
<g id="node49" class="node"><title>label16</title>
<polygon fill="none" stroke="none" points="3275.54,-907 3042.54,-907 3042.54,-864 3275.54,-864 3275.54,-907"/>
<polygon fill="none" stroke="none" points="3054.04,-870.5 3054.04,-899.5 3061.04,-899.5 3061.04,-870.5 3054.04,-870.5"/>
<polygon fill="none" stroke="none" points="3063.04,-870.5 3063.04,-899.5 3265.04,-899.5 3265.04,-870.5 3063.04,-870.5"/>
<text text-anchor="start" x="3065.62" y="-882.32" font-family="Arial" font-size="14.00">ガリレオ・ガリレイ 1564&#45;1642</text>
<polygon fill="none" stroke="none" points="3050.54,-868 3050.54,-903 3267.54,-903 3267.54,-868 3050.54,-868"/>
</g>
<!-- from16 -->
<g id="node50" class="node"><title>from16</title>
<ellipse fill="white" stroke="white" cx="3447.04" cy="-885.5" rx="1.8" ry="1.8"/>
</g>
<!-- to16 -->
<g id="node51" class="node"><title>to16</title>
<ellipse fill="white" stroke="white" cx="3559.36" cy="-885.5" rx="1.8" ry="1.8"/>
</g>
<!-- from16&#45;&gt;to16 -->
<g id="edge17" class="edge"><title>from16&#45;&gt;to16</title>
<path fill="none" stroke="blue" stroke-width="10" d="M3448.99,-885.5C3460.6,-885.5 3521.01,-885.5 3547.21,-885.5"/>
<polygon fill="blue" stroke="blue" points="3547.36,-894.25 3557.36,-885.5 3547.36,-876.75 3547.36,-894.25"/>
</g>
<!-- label17 -->
<g id="node52" class="node"><title>label17</title>
<polygon fill="none" stroke="none" points="3285.62,-835 3052.62,-835 3052.62,-792 3285.62,-792 3285.62,-835"/>
<polygon fill="none" stroke="none" points="3064.12,-798.5 3064.12,-827.5 3071.12,-827.5 3071.12,-798.5 3064.12,-798.5"/>
<polygon fill="none" stroke="none" points="3073.12,-798.5 3073.12,-827.5 3275.12,-827.5 3275.12,-798.5 3073.12,-798.5"/>
<text text-anchor="start" x="3075.7" y="-810.32" font-family="Arial" font-size="14.00">ヨハネス・ケプラー 1571&#45;1630</text>
<polygon fill="none" stroke="none" points="3060.62,-796 3060.62,-831 3277.62,-831 3277.62,-796 3060.62,-796"/>
</g>
<!-- from17 -->
<g id="node53" class="node"><title>from17</title>
<ellipse fill="white" stroke="white" cx="3457.12" cy="-813.5" rx="1.8" ry="1.8"/>
</g>
<!-- to17 -->
<g id="node54" class="node"><title>to17</title>
<ellipse fill="white" stroke="white" cx="3542.08" cy="-813.5" rx="1.8" ry="1.8"/>
</g>
<!-- from17&#45;&gt;to17 -->
<g id="edge18" class="edge"><title>from17&#45;&gt;to17</title>
<path fill="none" stroke="blue" stroke-width="10" d="M3459.22,-813.5C3468.86,-813.5 3509.3,-813.5 3529.9,-813.5"/>
<polygon fill="blue" stroke="blue" points="3530.05,-822.25 3540.05,-813.5 3530.05,-804.75 3530.05,-822.25"/>
</g>
<!-- label18 -->
<g id="node55" class="node"><title>label18</title>
<polygon fill="none" stroke="none" points="3400.86,-763 3141.86,-763 3141.86,-720 3400.86,-720 3400.86,-763"/>
<polygon fill="none" stroke="none" points="3153.36,-726.5 3153.36,-755.5 3160.36,-755.5 3160.36,-726.5 3153.36,-726.5"/>
<polygon fill="none" stroke="none" points="3162.36,-726.5 3162.36,-755.5 3390.36,-755.5 3390.36,-726.5 3162.36,-726.5"/>
<text text-anchor="start" x="3165.2" y="-738.32" font-family="Arial" font-size="14.00">アイザック・ニュートン 1642&#45;1727</text>
<polygon fill="none" stroke="none" points="3149.86,-724 3149.86,-759 3392.86,-759 3392.86,-724 3149.86,-724"/>
</g>
<!-- from18 -->
<g id="node56" class="node"><title>from18</title>
<ellipse fill="white" stroke="white" cx="3559.36" cy="-741.5" rx="1.8" ry="1.8"/>
</g>
<!-- to18 -->
<g id="node57" class="node"><title>to18</title>
<ellipse fill="white" stroke="white" cx="3681.76" cy="-741.5" rx="1.8" ry="1.8"/>
</g>
<!-- from18&#45;&gt;to18 -->
<g id="edge19" class="edge"><title>from18&#45;&gt;to18</title>
<path fill="none" stroke="blue" stroke-width="10" d="M3561.48,-741.5C3574.3,-741.5 3641.71,-741.5 3669.63,-741.5"/>
<polygon fill="blue" stroke="blue" points="3669.95,-750.25 3679.95,-741.5 3669.95,-732.75 3669.95,-750.25"/>
</g>
<!-- label19 -->
<g id="node58" class="node"><title>label19</title>
<polygon fill="none" stroke="none" points="3539.1,-691 3280.1,-691 3280.1,-648 3539.1,-648 3539.1,-691"/>
<polygon fill="none" stroke="none" points="3291.6,-654.5 3291.6,-683.5 3298.6,-683.5 3298.6,-654.5 3291.6,-654.5"/>
<polygon fill="none" stroke="none" points="3300.6,-654.5 3300.6,-683.5 3528.6,-683.5 3528.6,-654.5 3300.6,-654.5"/>
<text text-anchor="start" x="3303.23" y="-666.32" font-family="Arial" font-size="14.00">ウィリアム・ハーシェル 1738&#45;1822</text>
<polygon fill="none" stroke="none" points="3288.1,-652 3288.1,-687 3531.1,-687 3531.1,-652 3288.1,-652"/>
</g>
<!-- from19 -->
<g id="node59" class="node"><title>from19</title>
<ellipse fill="white" stroke="white" cx="3697.6" cy="-669.5" rx="1.8" ry="1.8"/>
</g>
<!-- to19 -->
<g id="node60" class="node"><title>to19</title>
<ellipse fill="white" stroke="white" cx="3818.56" cy="-669.5" rx="1.8" ry="1.8"/>
</g>
<!-- from19&#45;&gt;to19 -->
<g id="edge20" class="edge"><title>from19&#45;&gt;to19</title>
<path fill="none" stroke="blue" stroke-width="10" d="M3699.7,-669.5C3712.32,-669.5 3778.45,-669.5 3806.24,-669.5"/>
<polygon fill="blue" stroke="blue" points="3806.4,-678.25 3816.4,-669.5 3806.4,-660.75 3806.4,-678.25"/>
</g>
<!-- label20 -->
<g id="node61" class="node"><title>label20</title>
<polygon fill="none" stroke="none" points="3557.38,-619 3296.38,-619 3296.38,-576 3557.38,-576 3557.38,-619"/>
<polygon fill="none" stroke="none" points="3307.88,-582.5 3307.88,-611.5 3314.88,-611.5 3314.88,-582.5 3307.88,-582.5"/>
<polygon fill="none" stroke="none" points="3316.88,-582.5 3316.88,-611.5 3546.88,-611.5 3546.88,-582.5 3316.88,-582.5"/>
<text text-anchor="start" x="3319.74" y="-594.32" font-family="Arial" font-size="14.00">カロライン・ハーシェル 1750&#45;1848</text>
<polygon fill="none" stroke="none" points="3304.38,-580 3304.38,-615 3549.38,-615 3549.38,-580 3304.38,-580"/>
</g>
<!-- from20 -->
<g id="node62" class="node"><title>from20</title>
<ellipse fill="white" stroke="white" cx="3714.88" cy="-597.5" rx="1.8" ry="1.8"/>
</g>
<!-- to20 -->
<g id="node63" class="node"><title>to20</title>
<ellipse fill="white" stroke="white" cx="3856" cy="-597.5" rx="1.8" ry="1.8"/>
</g>
<!-- from20&#45;&gt;to20 -->
<g id="edge21" class="edge"><title>from20&#45;&gt;to20</title>
<path fill="none" stroke="blue" stroke-width="10" d="M3716.87,-597.5C3730.65,-597.5 3812.02,-597.5 3843.54,-597.5"/>
<polygon fill="blue" stroke="blue" points="3843.87,-606.25 3853.87,-597.5 3843.87,-588.75 3843.87,-606.25"/>
</g>
<!-- label21 -->
<g id="node64" class="node"><title>label21</title>
<polygon fill="none" stroke="none" points="3651.16,-547 3309.16,-547 3309.16,-504 3651.16,-504 3651.16,-547"/>
<polygon fill="none" stroke="none" points="3320.16,-510.5 3320.16,-539.5 3327.16,-539.5 3327.16,-510.5 3320.16,-510.5"/>
<polygon fill="none" stroke="none" points="3329.16,-510.5 3329.16,-539.5 3640.16,-539.5 3640.16,-510.5 3329.16,-510.5"/>
<text text-anchor="start" x="3331.71" y="-522.32" font-family="Arial" font-size="14.00">ヨセフ・フォン・フラウンホーファー 1787&#45;1826</text>
<polygon fill="none" stroke="none" points="3317.16,-508 3317.16,-543 3643.16,-543 3643.16,-508 3317.16,-508"/>
</g>
<!-- from21 -->
<g id="node65" class="node"><title>from21</title>
<ellipse fill="white" stroke="white" cx="3768.16" cy="-525.5" rx="1.8" ry="1.8"/>
</g>
<!-- to21 -->
<g id="node66" class="node"><title>to21</title>
<ellipse fill="white" stroke="white" cx="3824.32" cy="-525.5" rx="1.8" ry="1.8"/>
</g>
<!-- from21&#45;&gt;to21 -->
<g id="edge22" class="edge"><title>from21&#45;&gt;to21</title>
<path fill="none" stroke="blue" stroke-width="10" d="M3770.03,-525.5C3776.49,-525.5 3798.25,-525.5 3812.18,-525.5"/>
<polygon fill="blue" stroke="blue" points="3812.39,-534.25 3822.39,-525.5 3812.39,-516.75 3812.39,-534.25"/>
</g>
<!-- label22 -->
<g id="node67" class="node"><title>label22</title>
<polygon fill="none" stroke="none" points="3603.36,-475 3371.36,-475 3371.36,-432 3603.36,-432 3603.36,-475"/>
<polygon fill="none" stroke="none" points="3382.36,-438.5 3382.36,-467.5 3389.36,-467.5 3389.36,-438.5 3382.36,-438.5"/>
<polygon fill="none" stroke="none" points="3391.36,-438.5 3391.36,-467.5 3592.36,-467.5 3592.36,-438.5 3391.36,-438.5"/>
<text text-anchor="start" x="3393.93" y="-450.32" font-family="Arial" font-size="14.00">ジョン・ハーシェル 1792&#45;1871</text>
<polygon fill="none" stroke="none" points="3379.36,-436 3379.36,-471 3595.36,-471 3595.36,-436 3379.36,-436"/>
</g>
<!-- from22 -->
<g id="node68" class="node"><title>from22</title>
<ellipse fill="white" stroke="white" cx="3775.36" cy="-453.5" rx="1.8" ry="1.8"/>
</g>
<!-- to22 -->
<g id="node69" class="node"><title>to22</title>
<ellipse fill="white" stroke="white" cx="3889.12" cy="-453.5" rx="1.8" ry="1.8"/>
</g>
<!-- from22&#45;&gt;to22 -->
<g id="edge23" class="edge"><title>from22&#45;&gt;to22</title>
<path fill="none" stroke="blue" stroke-width="10" d="M3777.33,-453.5C3789.09,-453.5 3850.27,-453.5 3876.82,-453.5"/>
<polygon fill="blue" stroke="blue" points="3877.09,-462.25 3887.09,-453.5 3877.09,-444.75 3877.09,-462.25"/>
</g>
<!-- label23 -->
<g id="node70" class="node"><title>label23</title>
<polygon fill="none" stroke="none" points="3668.2,-403 3338.2,-403 3338.2,-360 3668.2,-360 3668.2,-403"/>
<polygon fill="none" stroke="none" points="3349.2,-366.5 3349.2,-395.5 3356.2,-395.5 3356.2,-366.5 3349.2,-366.5"/>
<polygon fill="none" stroke="none" points="3358.2,-366.5 3358.2,-395.5 3657.2,-395.5 3657.2,-366.5 3358.2,-366.5"/>
<text text-anchor="start" x="3361.19" y="-378.32" font-family="Arial" font-size="14.00">ヨハン・クリスチャン・ドップラー 1803&#45;1853</text>
<polygon fill="none" stroke="none" points="3346.2,-364 3346.2,-399 3660.2,-399 3660.2,-364 3346.2,-364"/>
</g>
<!-- from23 -->
<g id="node71" class="node"><title>from23</title>
<ellipse fill="white" stroke="white" cx="3791.2" cy="-381.5" rx="1.8" ry="1.8"/>
</g>
<!-- to23 -->
<g id="node72" class="node"><title>to23</title>
<ellipse fill="white" stroke="white" cx="3863.2" cy="-381.5" rx="1.8" ry="1.8"/>
</g>
<!-- from23&#45;&gt;to23 -->
<g id="edge24" class="edge"><title>from23&#45;&gt;to23</title>
<path fill="none" stroke="blue" stroke-width="10" d="M3793.28,-381.5C3801.66,-381.5 3833.36,-381.5 3851.06,-381.5"/>
<polygon fill="blue" stroke="blue" points="3851.25,-390.25 3861.25,-381.5 3851.25,-372.75 3851.25,-390.25"/>
</g>
<!-- label24 -->
<g id="node73" class="node"><title>label24</title>
<polygon fill="none" stroke="none" points="3594.78,-331 3431.78,-331 3431.78,-288 3594.78,-288 3594.78,-331"/>
<polygon fill="none" stroke="none" points="3443.28,-294.5 3443.28,-323.5 3450.28,-323.5 3450.28,-294.5 3443.28,-294.5"/>
<polygon fill="none" stroke="none" points="3452.28,-294.5 3452.28,-323.5 3584.28,-323.5 3584.28,-294.5 3452.28,-294.5"/>
<text text-anchor="start" x="3454.86" y="-306.32" font-family="Arial" font-size="14.00">ショパン 1810&#45;1849</text>
<polygon fill="none" stroke="none" points="3439.78,-292 3439.78,-327 3586.78,-327 3586.78,-292 3439.78,-292"/>
</g>
<!-- from24 -->
<g id="node74" class="node"><title>from24</title>
<ellipse fill="white" stroke="white" cx="3801.28" cy="-309.5" rx="1.8" ry="1.8"/>
</g>
<!-- to24 -->
<g id="node75" class="node"><title>to24</title>
<ellipse fill="white" stroke="white" cx="3857.44" cy="-309.5" rx="1.8" ry="1.8"/>
</g>
<!-- from24&#45;&gt;to24 -->
<g id="edge25" class="edge"><title>from24&#45;&gt;to24</title>
<path fill="none" stroke="blue" stroke-width="10" d="M3803.15,-309.5C3809.61,-309.5 3831.37,-309.5 3845.3,-309.5"/>
<polygon fill="blue" stroke="blue" points="3845.51,-318.25 3855.51,-309.5 3845.51,-300.75 3845.51,-318.25"/>
</g>
<!-- label25 -->
<g id="node76" class="node"><title>label25</title>
<polygon fill="none" stroke="none" points="3672.76,-259 3402.76,-259 3402.76,-216 3672.76,-216 3672.76,-259"/>
<polygon fill="none" stroke="none" points="3413.76,-222.5 3413.76,-251.5 3420.76,-251.5 3420.76,-222.5 3413.76,-222.5"/>
<polygon fill="none" stroke="none" points="3422.76,-222.5 3422.76,-251.5 3661.76,-251.5 3661.76,-222.5 3422.76,-222.5"/>
<text text-anchor="start" x="3425.39" y="-234.32" font-family="Arial" font-size="14.00">ジョン万次郎(まんじろう) 1827&#45;1898</text>
<polygon fill="none" stroke="none" points="3410.76,-220 3410.76,-255 3664.76,-255 3664.76,-220 3410.76,-220"/>
</g>
<!-- from25 -->
<g id="node77" class="node"><title>from25</title>
<ellipse fill="white" stroke="white" cx="3825.76" cy="-237.5" rx="1.8" ry="1.8"/>
</g>
<!-- to25 -->
<g id="node78" class="node"><title>to25</title>
<ellipse fill="white" stroke="white" cx="3928" cy="-237.5" rx="1.8" ry="1.8"/>
</g>
<!-- from25&#45;&gt;to25 -->
<g id="edge26" class="edge"><title>from25&#45;&gt;to25</title>
<path fill="none" stroke="blue" stroke-width="10" d="M3827.9,-237.5C3839.12,-237.5 3891.71,-237.5 3915.84,-237.5"/>
<polygon fill="blue" stroke="blue" points="3915.88,-246.25 3925.88,-237.5 3915.88,-228.75 3915.88,-246.25"/>
</g>
<!-- label26 -->
<g id="node79" class="node"><title>label26</title>
<polygon fill="none" stroke="none" points="3649.7,-187 3500.7,-187 3500.7,-144 3649.7,-144 3649.7,-187"/>
<polygon fill="none" stroke="none" points="3512.2,-150.5 3512.2,-179.5 3519.2,-179.5 3519.2,-150.5 3512.2,-150.5"/>
<polygon fill="none" stroke="none" points="3521.2,-150.5 3521.2,-179.5 3639.2,-179.5 3639.2,-150.5 3521.2,-150.5"/>
<text text-anchor="start" x="3524.06" y="-162.32" font-family="Arial" font-size="14.00">ゴッホ 1853&#45;1890</text>
<polygon fill="none" stroke="none" points="3508.7,-148 3508.7,-183 3641.7,-183 3641.7,-148 3508.7,-148"/>
</g>
<!-- from26 -->
<g id="node80" class="node"><title>from26</title>
<ellipse fill="white" stroke="white" cx="3863.2" cy="-165.5" rx="1.8" ry="1.8"/>
</g>
<!-- to26 -->
<g id="node81" class="node"><title>to26</title>
<ellipse fill="white" stroke="white" cx="3916.48" cy="-165.5" rx="1.8" ry="1.8"/>
</g>
<!-- from26&#45;&gt;to26 -->
<g id="edge27" class="edge"><title>from26&#45;&gt;to26</title>
<path fill="none" stroke="blue" stroke-width="10" d="M3865.49,-165.5C3872.06,-165.5 3891.34,-165.5 3904.22,-165.5"/>
<polygon fill="blue" stroke="blue" points="3904.26,-174.25 3914.26,-165.5 3904.26,-156.75 3904.26,-174.25"/>
</g>
<!-- label27 -->
<g id="node82" class="node"><title>label27</title>
<polygon fill="none" stroke="none" points="3721.64,-115 3503.64,-115 3503.64,-72 3721.64,-72 3721.64,-115"/>
<polygon fill="none" stroke="none" points="3514.64,-78.5 3514.64,-107.5 3521.64,-107.5 3521.64,-78.5 3514.64,-78.5"/>
<polygon fill="none" stroke="none" points="3523.64,-78.5 3523.64,-107.5 3710.64,-107.5 3710.64,-78.5 3523.64,-78.5"/>
<text text-anchor="start" x="3526.28" y="-90.3203" font-family="Arial" font-size="14.00">アインシュタイン 1879&#45;1955</text>
<polygon fill="none" stroke="none" points="3511.64,-76 3511.64,-111 3713.64,-111 3713.64,-76 3511.64,-76"/>
</g>
<!-- from27 -->
<g id="node83" class="node"><title>from27</title>
<ellipse fill="white" stroke="white" cx="3900.64" cy="-93.5" rx="1.8" ry="1.8"/>
</g>
<!-- to27 -->
<g id="node84" class="node"><title>to27</title>
<ellipse fill="white" stroke="white" cx="4010.08" cy="-93.5" rx="1.8" ry="1.8"/>
</g>
<!-- from27&#45;&gt;to27 -->
<g id="edge28" class="edge"><title>from27&#45;&gt;to27</title>
<path fill="none" stroke="blue" stroke-width="10" d="M3902.54,-93.5C3913.8,-93.5 3972.17,-93.5 3997.89,-93.5"/>
<polygon fill="blue" stroke="blue" points="3998.13,-102.25 4008.13,-93.5 3998.13,-84.7501 3998.13,-102.25"/>
</g>
<!-- label28 -->
<g id="node85" class="node"><title>label28</title>
<polygon fill="none" stroke="none" points="3708.04,-43 3546.04,-43 3546.04,-0 3708.04,-0 3708.04,-43"/>
<polygon fill="none" stroke="none" points="3557.04,-6.5 3557.04,-35.5 3564.04,-35.5 3564.04,-6.5 3557.04,-6.5"/>
<polygon fill="none" stroke="none" points="3566.04,-6.5 3566.04,-35.5 3697.04,-35.5 3697.04,-6.5 3566.04,-6.5"/>
<text text-anchor="start" x="3568.75" y="-18.3203" font-family="Arial" font-size="14.00">ハッブル 1889&#45;1953</text>
<polygon fill="none" stroke="none" points="3554.04,-4 3554.04,-39 3700.04,-39 3700.04,-4 3554.04,-4"/>
</g>
<!-- from28 -->
<g id="node86" class="node"><title>from28</title>
<ellipse fill="white" stroke="white" cx="3915.04" cy="-21.5" rx="1.8" ry="1.8"/>
</g>
<!-- to28 -->
<g id="node87" class="node"><title>to28</title>
<ellipse fill="white" stroke="white" cx="4007.2" cy="-21.5" rx="1.8" ry="1.8"/>
</g>
<!-- from28&#45;&gt;to28 -->
<g id="edge29" class="edge"><title>from28&#45;&gt;to28</title>
<path fill="none" stroke="blue" stroke-width="10" d="M3916.96,-21.5C3926.9,-21.5 3972.74,-21.5 3995.01,-21.5"/>
<polygon fill="blue" stroke="blue" points="3995.29,-30.2501 4005.29,-21.5 3995.29,-12.7501 3995.29,-30.2501"/>
</g>
</g>
</svg>
