<?xml version="1.0" encoding="UTF-8" standalone="no"?>
<!DOCTYPE svg PUBLIC "-//W3C//DTD SVG 1.1//EN"
 "http://www.w3.org/Graphics/SVG/1.1/DTD/svg11.dtd">
<!-- Generated by graphviz version 2.34.0 (20140129.0153)
 -->
<!-- Title: G Pages: 1 -->
<svg width="4020pt" height="2389pt"
 viewBox="0.00 0.00 4019.88 2389.00" xmlns="http://www.w3.org/2000/svg" xmlns:xlink="http://www.w3.org/1999/xlink">
<g id="graph0" class="graph" transform="scale(1 1) rotate(0) translate(4 2385)">
<title>G</title>
<polygon fill="white" stroke="white" points="-4,4 -4,-2385 4015.88,-2385 4015.88,4 -4,4"/>
<!-- label0 -->
<g id="node1" class="node"><title>label0</title>
<polygon fill="none" stroke="none" points="224,-2381 1.42109e-14,-2381 1.42109e-14,-2270 224,-2270 224,-2381"/>
<polygon fill="none" stroke="none" points="11,-2276.5 11,-2373.5 62,-2373.5 62,-2276.5 11,-2276.5"/>
<image xlink:href="./images/Confucius_02.png" width="33.5563px" height="68.25px" preserveAspectRatio="xMinYMin meet" x="19.7219" y="-2359.12"/>
<polygon fill="none" stroke="none" points="64,-2276.5 64,-2373.5 213,-2373.5 213,-2276.5 64,-2276.5"/>
<text text-anchor="start" x="66.8915" y="-2322.32" font-family="Arial" font-size="14.00">孔子(こうし) &#45;552&#45;&#45;479</text>
<polygon fill="none" stroke="none" points="8,-2274 8,-2377 216,-2377 216,-2274 8,-2274"/>
</g>
<!-- from0 -->
<g id="node2" class="node"><title>from0</title>
<ellipse fill="white" stroke="white" cx="400" cy="-2325.5" rx="1.8" ry="1.8"/>
</g>
<!-- to0 -->
<g id="node3" class="node"><title>to0</title>
<ellipse fill="white" stroke="white" cx="505.12" cy="-2325.5" rx="1.8" ry="1.8"/>
</g>
<!-- from0&#45;&gt;to0 -->
<g id="edge1" class="edge"><title>from0&#45;&gt;to0</title>
<path fill="none" stroke="blue" stroke-width="10" d="M401.825,-2325.5C412.59,-2325.5 468.191,-2325.5 493.067,-2325.5"/>
<polygon fill="blue" stroke="blue" points="493.245,-2334.25 503.245,-2325.5 493.245,-2316.75 493.245,-2334.25"/>
</g>
<!-- label1 -->
<g id="node4" class="node"><title>label1</title>
<polygon fill="none" stroke="none" points="351.02,-2309 112.02,-2309 112.02,-2198 351.02,-2198 351.02,-2309"/>
<polygon fill="none" stroke="none" points="123.52,-2204.5 123.52,-2301.5 199.52,-2301.5 199.52,-2204.5 123.52,-2204.5"/>
<image xlink:href="./images/Socrate.jpg" width="52.325px" height="68.25px" preserveAspectRatio="xMinYMin meet" x="135.357" y="-2287.12"/>
<polygon fill="none" stroke="none" points="201.52,-2204.5 201.52,-2301.5 340.52,-2301.5 340.52,-2204.5 201.52,-2204.5"/>
<text text-anchor="start" x="204.074" y="-2250.32" font-family="Arial" font-size="14.00">ソクラテス &#45;469&#45;&#45;399</text>
<polygon fill="none" stroke="none" points="120.02,-2202 120.02,-2305 343.02,-2305 343.02,-2202 120.02,-2202"/>
</g>
<!-- from1 -->
<g id="node5" class="node"><title>from1</title>
<ellipse fill="white" stroke="white" cx="519.52" cy="-2253.5" rx="1.8" ry="1.8"/>
</g>
<!-- to1 -->
<g id="node6" class="node"><title>to1</title>
<ellipse fill="white" stroke="white" cx="620.32" cy="-2253.5" rx="1.8" ry="1.8"/>
</g>
<!-- from1&#45;&gt;to1 -->
<g id="edge2" class="edge"><title>from1&#45;&gt;to1</title>
<path fill="none" stroke="blue" stroke-width="10" d="M521.625,-2253.5C532.643,-2253.5 584.062,-2253.5 608,-2253.5"/>
<polygon fill="blue" stroke="blue" points="608.226,-2262.25 618.226,-2253.5 608.226,-2244.75 608.226,-2262.25"/>
</g>
<!-- label2 -->
<g id="node7" class="node"><title>label2</title>
<polygon fill="none" stroke="none" points="345.16,-2237 135.16,-2237 135.16,-2126 345.16,-2126 345.16,-2237"/>
<polygon fill="none" stroke="none" points="146.16,-2132.5 146.16,-2229.5 220.16,-2229.5 220.16,-2132.5 146.16,-2132.5"/>
<image xlink:href="./images/Budda.jpg" width="51px" height="68px" preserveAspectRatio="xMinYMin meet" x="157.66" y="-2215"/>
<polygon fill="none" stroke="none" points="222.16,-2132.5 222.16,-2229.5 334.16,-2229.5 334.16,-2132.5 222.16,-2132.5"/>
<text text-anchor="start" x="224.864" y="-2178.32" font-family="Arial" font-size="14.00">シャカ &#45;463&#45;&#45;383</text>
<polygon fill="none" stroke="none" points="143.16,-2130 143.16,-2233 337.16,-2233 337.16,-2130 143.16,-2130"/>
</g>
<!-- from2 -->
<g id="node8" class="node"><title>from2</title>
<ellipse fill="white" stroke="white" cx="528.16" cy="-2181.5" rx="1.8" ry="1.8"/>
</g>
<!-- to2 -->
<g id="node9" class="node"><title>to2</title>
<ellipse fill="white" stroke="white" cx="643.36" cy="-2181.5" rx="1.8" ry="1.8"/>
</g>
<!-- from2&#45;&gt;to2 -->
<g id="edge3" class="edge"><title>from2&#45;&gt;to2</title>
<path fill="none" stroke="blue" stroke-width="10" d="M530.16,-2181.5C542.121,-2181.5 604.592,-2181.5 631.267,-2181.5"/>
<polygon fill="blue" stroke="blue" points="631.306,-2190.25 641.306,-2181.5 631.305,-2172.75 631.306,-2190.25"/>
</g>
<!-- label3 -->
<g id="node10" class="node"><title>label3</title>
<polygon fill="none" stroke="none" points="400.5,-2165 183.5,-2165 183.5,-2054 400.5,-2054 400.5,-2165"/>
<polygon fill="none" stroke="none" points="195,-2060.5 195,-2157.5 262,-2157.5 262,-2060.5 195,-2060.5"/>
<image xlink:href="images/plato.jpg" width="45.5px" height="68.25px" preserveAspectRatio="xMinYMin meet" x="205.75" y="-2143.12"/>
<polygon fill="none" stroke="none" points="264,-2060.5 264,-2157.5 390,-2157.5 390,-2060.5 264,-2060.5"/>
<text text-anchor="start" x="266.914" y="-2106.32" font-family="Arial" font-size="14.00">プラトン &#45;427&#45;&#45;347</text>
<polygon fill="none" stroke="none" points="191.5,-2058 191.5,-2161 392.5,-2161 392.5,-2058 191.5,-2058"/>
</g>
<!-- from3 -->
<g id="node11" class="node"><title>from3</title>
<ellipse fill="white" stroke="white" cx="580" cy="-2109.5" rx="1.8" ry="1.8"/>
</g>
<!-- to3 -->
<g id="node12" class="node"><title>to3</title>
<ellipse fill="white" stroke="white" cx="695.2" cy="-2109.5" rx="1.8" ry="1.8"/>
</g>
<!-- from3&#45;&gt;to3 -->
<g id="edge4" class="edge"><title>from3&#45;&gt;to3</title>
<path fill="none" stroke="blue" stroke-width="10" d="M582,-2109.5C593.961,-2109.5 656.432,-2109.5 683.107,-2109.5"/>
<polygon fill="blue" stroke="blue" points="683.146,-2118.25 693.145,-2109.5 683.145,-2100.75 683.146,-2118.25"/>
</g>
<!-- label4 -->
<g id="node13" class="node"><title>label4</title>
<polygon fill="none" stroke="none" points="486.42,-2093 221.42,-2093 221.42,-1982 486.42,-1982 486.42,-2093"/>
<polygon fill="none" stroke="none" points="232.92,-1988.5 232.92,-2085.5 306.92,-2085.5 306.92,-1988.5 232.92,-1988.5"/>
<image xlink:href="images/Aristotle_Altemps_Inv8575.jpg" width="51px" height="68px" preserveAspectRatio="xMinYMin meet" x="244.42" y="-2071"/>
<polygon fill="none" stroke="none" points="308.92,-1988.5 308.92,-2085.5 475.92,-2085.5 475.92,-1988.5 308.92,-1988.5"/>
<text text-anchor="start" x="311.754" y="-2034.32" font-family="Arial" font-size="14.00">アリストテレス &#45;384&#45;&#45;322</text>
<polygon fill="none" stroke="none" points="229.42,-1986 229.42,-2089 478.42,-2089 478.42,-1986 229.42,-1986"/>
</g>
<!-- from4 -->
<g id="node14" class="node"><title>from4</title>
<ellipse fill="white" stroke="white" cx="641.92" cy="-2037.5" rx="1.8" ry="1.8"/>
</g>
<!-- to4 -->
<g id="node15" class="node"><title>to4</title>
<ellipse fill="white" stroke="white" cx="731.2" cy="-2037.5" rx="1.8" ry="1.8"/>
</g>
<!-- from4&#45;&gt;to4 -->
<g id="edge5" class="edge"><title>from4&#45;&gt;to4</title>
<path fill="none" stroke="blue" stroke-width="10" d="M643.785,-2037.5C653.361,-2037.5 697.403,-2037.5 719.08,-2037.5"/>
<polygon fill="blue" stroke="blue" points="719.346,-2046.25 729.346,-2037.5 719.345,-2028.75 719.346,-2046.25"/>
</g>
<!-- label5 -->
<g id="node16" class="node"><title>label5</title>
<polygon fill="none" stroke="none" points="625.1,-2021 362.1,-2021 362.1,-1910 625.1,-1910 625.1,-2021"/>
<polygon fill="none" stroke="none" points="373.6,-1916.5 373.6,-2013.5 460.6,-2013.5 460.6,-1916.5 373.6,-1916.5"/>
<image xlink:href="images/Archimedes.gif" width="60.75px" height="68.1308px" preserveAspectRatio="xMinYMin meet" x="386.725" y="-1999.07"/>
<polygon fill="none" stroke="none" points="462.6,-1916.5 462.6,-2013.5 614.6,-2013.5 614.6,-1916.5 462.6,-1916.5"/>
<text text-anchor="start" x="465.144" y="-1962.32" font-family="Arial" font-size="14.00">アルキメデス &#45;287&#45;&#45;212</text>
<polygon fill="none" stroke="none" points="370.1,-1914 370.1,-2017 617.1,-2017 617.1,-1914 370.1,-1914"/>
</g>
<!-- from5 -->
<g id="node17" class="node"><title>from5</title>
<ellipse fill="white" stroke="white" cx="781.6" cy="-1965.5" rx="1.8" ry="1.8"/>
</g>
<!-- to5 -->
<g id="node18" class="node"><title>to5</title>
<ellipse fill="white" stroke="white" cx="889.6" cy="-1965.5" rx="1.8" ry="1.8"/>
</g>
<!-- from5&#45;&gt;to5 -->
<g id="edge6" class="edge"><title>from5&#45;&gt;to5</title>
<path fill="none" stroke="blue" stroke-width="10" d="M783.475,-1965.5C794.586,-1965.5 852.19,-1965.5 877.569,-1965.5"/>
<polygon fill="blue" stroke="blue" points="877.674,-1974.25 887.674,-1965.5 877.674,-1956.75 877.674,-1974.25"/>
</g>
<!-- label6 -->
<g id="node19" class="node"><title>label6</title>
<polygon fill="none" stroke="none" points="813.28,-1992.5 453.28,-1992.5 453.28,-1794.5 813.28,-1794.5 813.28,-1992.5"/>
<polygon fill="none" stroke="none" points="464.28,-1801.5 464.28,-1985.5 646.28,-1985.5 646.28,-1801.5 464.28,-1801.5"/>
<image xlink:href="images/hipparchus.gif" width="132px" height="133.128px" preserveAspectRatio="xMinYMin meet" x="489.28" y="-1960.06"/>
<polygon fill="none" stroke="none" points="648.28,-1801.5 648.28,-1985.5 802.28,-1985.5 802.28,-1801.5 648.28,-1801.5"/>
<text text-anchor="start" x="650.984" y="-1890.82" font-family="Arial" font-size="14.00">ヒッパルコス &#45;190&#45;&#45;125</text>
<polygon fill="none" stroke="none" points="461.28,-1798.5 461.28,-1988.5 805.28,-1988.5 805.28,-1798.5 461.28,-1798.5"/>
</g>
<!-- from6 -->
<g id="node20" class="node"><title>from6</title>
<ellipse fill="white" stroke="white" cx="921.28" cy="-1893.5" rx="1.8" ry="1.8"/>
</g>
<!-- to6 -->
<g id="node21" class="node"><title>to6</title>
<ellipse fill="white" stroke="white" cx="1014.88" cy="-1893.5" rx="1.8" ry="1.8"/>
</g>
<!-- from6&#45;&gt;to6 -->
<g id="edge7" class="edge"><title>from6&#45;&gt;to6</title>
<path fill="none" stroke="blue" stroke-width="10" d="M923.235,-1893.5C933.37,-1893.5 980.327,-1893.5 1002.81,-1893.5"/>
<polygon fill="blue" stroke="blue" points="1002.94,-1902.25 1012.94,-1893.5 1002.94,-1884.75 1002.94,-1902.25"/>
</g>
<!-- label7 -->
<g id="node22" class="node"><title>label7</title>
<polygon fill="none" stroke="none" points="1030.12,-1876.5 772.12,-1876.5 772.12,-1766.5 1030.12,-1766.5 1030.12,-1876.5"/>
<polygon fill="none" stroke="none" points="783.12,-1773.5 783.12,-1869.5 864.12,-1869.5 864.12,-1773.5 783.12,-1773.5"/>
<image xlink:href="images/Cristo_Redentor_-_Rio.jpg" width="56.1555px" height="67.5px" preserveAspectRatio="xMinYMin meet" x="795.542" y="-1855.25"/>
<polygon fill="none" stroke="none" points="866.12,-1773.5 866.12,-1869.5 1019.12,-1869.5 1019.12,-1773.5 866.12,-1773.5"/>
<text text-anchor="start" x="868.824" y="-1818.82" font-family="Arial" font-size="14.00">イエス・キリスト &#45;4&#45;30</text>
<polygon fill="none" stroke="none" points="780.12,-1770.5 780.12,-1872.5 1022.12,-1872.5 1022.12,-1770.5 780.12,-1770.5"/>
</g>
<!-- from7 -->
<g id="node23" class="node"><title>from7</title>
<ellipse fill="white" stroke="white" cx="1189.12" cy="-1821.5" rx="1.8" ry="1.8"/>
</g>
<!-- to7 -->
<g id="node24" class="node"><title>to7</title>
<ellipse fill="white" stroke="white" cx="1238.08" cy="-1821.5" rx="1.8" ry="1.8"/>
</g>
<!-- from7&#45;&gt;to7 -->
<g id="edge8" class="edge"><title>from7&#45;&gt;to7</title>
<path fill="none" stroke="blue" stroke-width="10" d="M1191.22,-1821.5C1197.08,-1821.5 1213.89,-1821.5 1225.69,-1821.5"/>
<polygon fill="blue" stroke="blue" points="1226.04,-1830.25 1236.04,-1821.5 1226.04,-1812.75 1226.04,-1830.25"/>
</g>
<!-- label8 -->
<g id="node25" class="node"><title>label8</title>
<polygon fill="none" stroke="none" points="1153.4,-1805 899.4,-1805 899.4,-1694 1153.4,-1694 1153.4,-1805"/>
<polygon fill="none" stroke="none" points="910.4,-1700.5 910.4,-1797.5 991.4,-1797.5 991.4,-1700.5 910.4,-1700.5"/>
<image xlink:href="images/Claudius_Ptolemaeus.jpg" width="56.25px" height="68.1818px" preserveAspectRatio="xMinYMin meet" x="922.775" y="-1783.09"/>
<polygon fill="none" stroke="none" points="993.4,-1700.5 993.4,-1797.5 1142.4,-1797.5 1142.4,-1700.5 993.4,-1700.5"/>
<text text-anchor="start" x="995.929" y="-1746.32" font-family="Arial" font-size="14.00">プトレマイオス 83&#45;168</text>
<polygon fill="none" stroke="none" points="907.4,-1698 907.4,-1801 1145.4,-1801 1145.4,-1698 907.4,-1698"/>
</g>
<!-- from8 -->
<g id="node26" class="node"><title>from8</title>
<ellipse fill="white" stroke="white" cx="1314.4" cy="-1749.5" rx="1.8" ry="1.8"/>
</g>
<!-- to8 -->
<g id="node27" class="node"><title>to8</title>
<ellipse fill="white" stroke="white" cx="1436.8" cy="-1749.5" rx="1.8" ry="1.8"/>
</g>
<!-- from8&#45;&gt;to8 -->
<g id="edge9" class="edge"><title>from8&#45;&gt;to8</title>
<path fill="none" stroke="blue" stroke-width="10" d="M1316.52,-1749.5C1329.34,-1749.5 1396.75,-1749.5 1424.67,-1749.5"/>
<polygon fill="blue" stroke="blue" points="1424.99,-1758.25 1434.99,-1749.5 1424.99,-1740.75 1424.99,-1758.25"/>
</g>
<!-- label9 -->
<g id="node28" class="node"><title>label9</title>
<polygon fill="none" stroke="none" points="1808.68,-1699 1646.68,-1699 1646.68,-1656 1808.68,-1656 1808.68,-1699"/>
<polygon fill="none" stroke="none" points="1657.68,-1662.5 1657.68,-1691.5 1664.68,-1691.5 1664.68,-1662.5 1657.68,-1662.5"/>
<polygon fill="none" stroke="none" points="1666.68,-1662.5 1666.68,-1691.5 1797.68,-1691.5 1797.68,-1662.5 1666.68,-1662.5"/>
<text text-anchor="start" x="1669.55" y="-1674.32" font-family="Arial" font-size="14.00">ムハンマド 570&#45;632</text>
<polygon fill="none" stroke="none" points="1654.68,-1660 1654.68,-1695 1800.68,-1695 1800.68,-1660 1654.68,-1660"/>
</g>
<!-- from9 -->
<g id="node29" class="node"><title>from9</title>
<ellipse fill="white" stroke="white" cx="2015.68" cy="-1677.5" rx="1.8" ry="1.8"/>
</g>
<!-- to9 -->
<g id="node30" class="node"><title>to9</title>
<ellipse fill="white" stroke="white" cx="2104.96" cy="-1677.5" rx="1.8" ry="1.8"/>
</g>
<!-- from9&#45;&gt;to9 -->
<g id="edge10" class="edge"><title>from9&#45;&gt;to9</title>
<path fill="none" stroke="blue" stroke-width="10" d="M2017.54,-1677.5C2027.12,-1677.5 2071.16,-1677.5 2092.84,-1677.5"/>
<polygon fill="blue" stroke="blue" points="2093.11,-1686.25 2103.11,-1677.5 2093.11,-1668.75 2093.11,-1686.25"/>
</g>
<!-- label10 -->
<g id="node31" class="node"><title>label10</title>
<polygon fill="none" stroke="none" points="1894.26,-1661 1653.26,-1661 1653.26,-1550 1894.26,-1550 1894.26,-1661"/>
<polygon fill="none" stroke="none" points="1664.76,-1556.5 1664.76,-1653.5 1714.76,-1653.5 1714.76,-1556.5 1664.76,-1556.5"/>
<image xlink:href="images/Xuanzang w.jpg" width="32.9875px" height="68.25px" preserveAspectRatio="xMinYMin meet" x="1673.27" y="-1639.12"/>
<polygon fill="none" stroke="none" points="1716.76,-1556.5 1716.76,-1653.5 1883.76,-1653.5 1883.76,-1556.5 1716.76,-1556.5"/>
<text text-anchor="start" x="1719.45" y="-1602.32" font-family="Arial" font-size="14.00">玄奘(げんじょう) 602&#45;664</text>
<polygon fill="none" stroke="none" points="1661.26,-1554 1661.26,-1657 1886.26,-1657 1886.26,-1554 1661.26,-1554"/>
</g>
<!-- from10 -->
<g id="node32" class="node"><title>from10</title>
<ellipse fill="white" stroke="white" cx="2061.76" cy="-1605.5" rx="1.8" ry="1.8"/>
</g>
<!-- to10 -->
<g id="node33" class="node"><title>to10</title>
<ellipse fill="white" stroke="white" cx="2151.04" cy="-1605.5" rx="1.8" ry="1.8"/>
</g>
<!-- from10&#45;&gt;to10 -->
<g id="edge11" class="edge"><title>from10&#45;&gt;to10</title>
<path fill="none" stroke="blue" stroke-width="10" d="M2063.62,-1605.5C2073.2,-1605.5 2117.24,-1605.5 2138.92,-1605.5"/>
<polygon fill="blue" stroke="blue" points="2139.19,-1614.25 2149.19,-1605.5 2139.19,-1596.75 2139.19,-1614.25"/>
</g>
<!-- label11 -->
<g id="node34" class="node"><title>label11</title>
<polygon fill="none" stroke="none" points="2717.16,-1589 2443.16,-1589 2443.16,-1478 2717.16,-1478 2717.16,-1589"/>
<polygon fill="none" stroke="none" points="2454.16,-1484.5 2454.16,-1581.5 2531.16,-1581.5 2531.16,-1484.5 2454.16,-1484.5"/>
<image xlink:href="images/Dschingis_Khan.jpg" width="53.25px" height="67.9787px" preserveAspectRatio="xMinYMin meet" x="2466.04" y="-1566.99"/>
<polygon fill="none" stroke="none" points="2533.16,-1484.5 2533.16,-1581.5 2706.16,-1581.5 2706.16,-1484.5 2533.16,-1484.5"/>
<text text-anchor="start" x="2536.11" y="-1530.32" font-family="Arial" font-size="14.00">チンギス・ハン 1162&#45;1272</text>
<polygon fill="none" stroke="none" points="2451.16,-1482 2451.16,-1585 2709.16,-1585 2709.16,-1482 2451.16,-1482"/>
</g>
<!-- from11 -->
<g id="node35" class="node"><title>from11</title>
<ellipse fill="white" stroke="white" cx="2868.16" cy="-1533.5" rx="1.8" ry="1.8"/>
</g>
<!-- to11 -->
<g id="node36" class="node"><title>to11</title>
<ellipse fill="white" stroke="white" cx="3026.56" cy="-1533.5" rx="1.8" ry="1.8"/>
</g>
<!-- from11&#45;&gt;to11 -->
<g id="edge12" class="edge"><title>from11&#45;&gt;to11</title>
<path fill="none" stroke="blue" stroke-width="10" d="M2870.16,-1533.5C2885.15,-1533.5 2980.06,-1533.5 3014.28,-1533.5"/>
<polygon fill="blue" stroke="blue" points="3014.6,-1542.25 3024.6,-1533.5 3014.6,-1524.75 3014.6,-1542.25"/>
</g>
<!-- label12 -->
<g id="node37" class="node"><title>label12</title>
<polygon fill="none" stroke="none" points="2847.64,-1517 2577.64,-1517 2577.64,-1406 2847.64,-1406 2847.64,-1517"/>
<polygon fill="none" stroke="none" points="2588.64,-1412.5 2588.64,-1509.5 2661.64,-1509.5 2661.64,-1412.5 2588.64,-1412.5"/>
<image xlink:href="images/Marco_Polo.jpg" width="50.25px" height="67.7528px" preserveAspectRatio="xMinYMin meet" x="2600.02" y="-1494.88"/>
<polygon fill="none" stroke="none" points="2663.64,-1412.5 2663.64,-1509.5 2836.64,-1509.5 2836.64,-1412.5 2663.64,-1412.5"/>
<text text-anchor="start" x="2666.35" y="-1458.32" font-family="Arial" font-size="14.00">マルコ・ポーロ 1254&#45;1324</text>
<polygon fill="none" stroke="none" points="2585.64,-1410 2585.64,-1513 2839.64,-1513 2839.64,-1410 2585.64,-1410"/>
</g>
<!-- from12 -->
<g id="node38" class="node"><title>from12</title>
<ellipse fill="white" stroke="white" cx="3000.64" cy="-1461.5" rx="1.8" ry="1.8"/>
</g>
<!-- to12 -->
<g id="node39" class="node"><title>to12</title>
<ellipse fill="white" stroke="white" cx="3101.44" cy="-1461.5" rx="1.8" ry="1.8"/>
</g>
<!-- from12&#45;&gt;to12 -->
<g id="edge13" class="edge"><title>from12&#45;&gt;to12</title>
<path fill="none" stroke="blue" stroke-width="10" d="M3002.75,-1461.5C3013.76,-1461.5 3065.18,-1461.5 3089.12,-1461.5"/>
<polygon fill="blue" stroke="blue" points="3089.35,-1470.25 3099.35,-1461.5 3089.35,-1452.75 3089.35,-1470.25"/>
</g>
<!-- label13 -->
<g id="node40" class="node"><title>label13</title>
<polygon fill="none" stroke="none" points="3071.66,-1444.5 2808.66,-1444.5 2808.66,-1334.5 3071.66,-1334.5 3071.66,-1444.5"/>
<polygon fill="none" stroke="none" points="2820.16,-1341.5 2820.16,-1437.5 2886.16,-1437.5 2886.16,-1341.5 2820.16,-1341.5"/>
<image xlink:href="./Joan_of_arc_miniature_graded.jpg" width="44.8109px" height="67.5px" preserveAspectRatio="xMinYMin meet" x="2830.75" y="-1423.25"/>
<polygon fill="none" stroke="none" points="2888.16,-1341.5 2888.16,-1437.5 3061.16,-1437.5 3061.16,-1341.5 2888.16,-1341.5"/>
<text text-anchor="start" x="2891.15" y="-1386.82" font-family="Arial" font-size="14.00">ジャンヌダルク 1412&#45;1431</text>
<polygon fill="none" stroke="none" points="2816.66,-1338.5 2816.66,-1440.5 3063.66,-1440.5 3063.66,-1338.5 2816.66,-1338.5"/>
</g>
<!-- from13 -->
<g id="node41" class="node"><title>from13</title>
<ellipse fill="white" stroke="white" cx="3228.16" cy="-1389.5" rx="1.8" ry="1.8"/>
</g>
<!-- to13 -->
<g id="node42" class="node"><title>to13</title>
<ellipse fill="white" stroke="white" cx="3255.52" cy="-1389.5" rx="1.8" ry="1.8"/>
</g>
<!-- from13&#45;&gt;to13 -->
<g id="edge14" class="edge"><title>from13&#45;&gt;to13</title>
<path fill="none" stroke="blue" stroke-width="10" d="M3230.31,-1389.5C3233.12,-1389.5 3238.27,-1389.5 3243.18,-1389.5"/>
<polygon fill="blue" stroke="blue" points="3243.46,-1398.25 3253.46,-1389.5 3243.46,-1380.75 3243.46,-1398.25"/>
</g>
<!-- label14 -->
<g id="node43" class="node"><title>label14</title>
<polygon fill="none" stroke="none" points="3095.18,-1372.5 2808.18,-1372.5 2808.18,-1262.5 3095.18,-1262.5 3095.18,-1372.5"/>
<polygon fill="none" stroke="none" points="2819.68,-1269.5 2819.68,-1365.5 2898.68,-1365.5 2898.68,-1269.5 2819.68,-1269.5"/>
<image xlink:href="images/Sesshu.jpg" width="54.75px" height="67.1675px" preserveAspectRatio="xMinYMin meet" x="2831.81" y="-1351.08"/>
<polygon fill="none" stroke="none" points="2900.68,-1269.5 2900.68,-1365.5 3084.68,-1365.5 3084.68,-1269.5 2900.68,-1269.5"/>
<text text-anchor="start" x="2903.6" y="-1314.82" font-family="Arial" font-size="14.00">雪舟(せっしゅう) 1420&#45;1506</text>
<polygon fill="none" stroke="none" points="2816.18,-1266.5 2816.18,-1368.5 3087.18,-1368.5 3087.18,-1266.5 2816.18,-1266.5"/>
</g>
<!-- from14 -->
<g id="node44" class="node"><title>from14</title>
<ellipse fill="white" stroke="white" cx="3239.68" cy="-1317.5" rx="1.8" ry="1.8"/>
</g>
<!-- to14 -->
<g id="node45" class="node"><title>to14</title>
<ellipse fill="white" stroke="white" cx="3363.52" cy="-1317.5" rx="1.8" ry="1.8"/>
</g>
<!-- from14&#45;&gt;to14 -->
<g id="edge15" class="edge"><title>from14&#45;&gt;to14</title>
<path fill="none" stroke="blue" stroke-width="10" d="M3241.83,-1317.5C3254.86,-1317.5 3323.62,-1317.5 3351.63,-1317.5"/>
<polygon fill="blue" stroke="blue" points="3351.69,-1326.25 3361.69,-1317.5 3351.69,-1308.75 3351.69,-1326.25"/>
</g>
<!-- label15 -->
<g id="node46" class="node"><title>label15</title>
<polygon fill="none" stroke="none" points="3178.32,-1301 2814.32,-1301 2814.32,-1190 3178.32,-1190 3178.32,-1301"/>
<polygon fill="none" stroke="none" points="2825.32,-1196.5 2825.32,-1293.5 2908.32,-1293.5 2908.32,-1196.5 2825.32,-1196.5"/>
<image xlink:href="images/Ridolfo_Ghirlandaio_Columbus.jpg" width="57.75px" height="67.9412px" preserveAspectRatio="xMinYMin meet" x="2837.95" y="-1278.97"/>
<polygon fill="none" stroke="none" points="2910.32,-1196.5 2910.32,-1293.5 3167.32,-1293.5 3167.32,-1196.5 2910.32,-1196.5"/>
<text text-anchor="start" x="2913.17" y="-1242.32" font-family="Arial" font-size="14.00">クリストファー・コロンブス 1451&#45;1506</text>
<polygon fill="none" stroke="none" points="2822.32,-1194 2822.32,-1297 3170.32,-1297 3170.32,-1194 2822.32,-1194"/>
</g>
<!-- from15 -->
<g id="node47" class="node"><title>from15</title>
<ellipse fill="white" stroke="white" cx="3284.32" cy="-1245.5" rx="1.8" ry="1.8"/>
</g>
<!-- to15 -->
<g id="node48" class="node"><title>to15</title>
<ellipse fill="white" stroke="white" cx="3363.52" cy="-1245.5" rx="1.8" ry="1.8"/>
</g>
<!-- from15&#45;&gt;to15 -->
<g id="edge16" class="edge"><title>from15&#45;&gt;to15</title>
<path fill="none" stroke="blue" stroke-width="10" d="M3286.28,-1245.5C3295.18,-1245.5 3332.25,-1245.5 3351.61,-1245.5"/>
<polygon fill="blue" stroke="blue" points="3351.63,-1254.25 3361.63,-1245.5 3351.63,-1236.75 3351.63,-1254.25"/>
</g>
<!-- label16 -->
<g id="node49" class="node"><title>label16</title>
<polygon fill="none" stroke="none" points="3170.26,-1229 2825.26,-1229 2825.26,-1118 3170.26,-1118 3170.26,-1229"/>
<polygon fill="none" stroke="none" points="2836.76,-1124.5 2836.76,-1221.5 2927.76,-1221.5 2927.76,-1124.5 2836.76,-1124.5"/>
<image xlink:href="images/Plato-raphael.jpg" width="63.75px" height="67.6991px" preserveAspectRatio="xMinYMin meet" x="2850.39" y="-1206.85"/>
<polygon fill="none" stroke="none" points="2929.76,-1124.5 2929.76,-1221.5 3159.76,-1221.5 3159.76,-1124.5 2929.76,-1124.5"/>
<text text-anchor="start" x="2932.69" y="-1170.32" font-family="Arial" font-size="14.00">レオナルド・ダ・ビンチ 1452&#45;1519</text>
<polygon fill="none" stroke="none" points="2833.26,-1122 2833.26,-1225 3162.26,-1225 3162.26,-1122 2833.26,-1122"/>
</g>
<!-- from16 -->
<g id="node50" class="node"><title>from16</title>
<ellipse fill="white" stroke="white" cx="3285.76" cy="-1173.5" rx="1.8" ry="1.8"/>
</g>
<!-- to16 -->
<g id="node51" class="node"><title>to16</title>
<ellipse fill="white" stroke="white" cx="3382.24" cy="-1173.5" rx="1.8" ry="1.8"/>
</g>
<!-- from16&#45;&gt;to16 -->
<g id="edge17" class="edge"><title>from16&#45;&gt;to16</title>
<path fill="none" stroke="blue" stroke-width="10" d="M3287.78,-1173.5C3298.27,-1173.5 3347.08,-1173.5 3370.13,-1173.5"/>
<polygon fill="blue" stroke="blue" points="3370.24,-1182.25 3380.24,-1173.5 3370.24,-1164.75 3370.24,-1182.25"/>
</g>
<!-- label17 -->
<g id="node52" class="node"><title>label17</title>
<polygon fill="none" stroke="none" points="3204,-1157 2852,-1157 2852,-1046 3204,-1046 3204,-1157"/>
<polygon fill="none" stroke="none" points="2863,-1052.5 2863,-1149.5 2947,-1149.5 2947,-1052.5 2863,-1052.5"/>
<image xlink:href="images/Kopernikus.jpg" width="58.5px" height="68.1553px" preserveAspectRatio="xMinYMin meet" x="2875.75" y="-1135.08"/>
<polygon fill="none" stroke="none" points="2949,-1052.5 2949,-1149.5 3193,-1149.5 3193,-1052.5 2949,-1052.5"/>
<text text-anchor="start" x="2951.79" y="-1098.32" font-family="Arial" font-size="14.00">ニコラウス・コペルニクス 1473&#45;1543</text>
<polygon fill="none" stroke="none" points="2860,-1050 2860,-1153 3196,-1153 3196,-1050 2860,-1050"/>
</g>
<!-- from17 -->
<g id="node53" class="node"><title>from17</title>
<ellipse fill="white" stroke="white" cx="3316" cy="-1101.5" rx="1.8" ry="1.8"/>
</g>
<!-- to17 -->
<g id="node54" class="node"><title>to17</title>
<ellipse fill="white" stroke="white" cx="3416.8" cy="-1101.5" rx="1.8" ry="1.8"/>
</g>
<!-- from17&#45;&gt;to17 -->
<g id="edge18" class="edge"><title>from17&#45;&gt;to17</title>
<path fill="none" stroke="blue" stroke-width="10" d="M3318.11,-1101.5C3329.12,-1101.5 3380.54,-1101.5 3404.48,-1101.5"/>
<polygon fill="blue" stroke="blue" points="3404.71,-1110.25 3414.71,-1101.5 3404.71,-1092.75 3404.71,-1110.25"/>
</g>
<!-- label18 -->
<g id="node55" class="node"><title>label18</title>
<polygon fill="none" stroke="none" points="3320.54,-1081.5 2997.54,-1081.5 2997.54,-977.5 3320.54,-977.5 3320.54,-1081.5"/>
<polygon fill="none" stroke="none" points="3009.04,-984.5 3009.04,-1074.5 3106.04,-1074.5 3106.04,-984.5 3009.04,-984.5"/>
<image xlink:href="images/Galileo-sustermans.jpg" width="68.1081px" height="63px" preserveAspectRatio="xMinYMin meet" x="3023.49" y="-1061"/>
<polygon fill="none" stroke="none" points="3108.04,-984.5 3108.04,-1074.5 3310.04,-1074.5 3310.04,-984.5 3108.04,-984.5"/>
<text text-anchor="start" x="3110.62" y="-1026.82" font-family="Arial" font-size="14.00">ガリレオ・ガリレイ 1564&#45;1642</text>
<polygon fill="none" stroke="none" points="3005.54,-981.5 3005.54,-1077.5 3312.54,-1077.5 3312.54,-981.5 3005.54,-981.5"/>
</g>
<!-- from18 -->
<g id="node56" class="node"><title>from18</title>
<ellipse fill="white" stroke="white" cx="3447.04" cy="-1029.5" rx="1.8" ry="1.8"/>
</g>
<!-- to18 -->
<g id="node57" class="node"><title>to18</title>
<ellipse fill="white" stroke="white" cx="3559.36" cy="-1029.5" rx="1.8" ry="1.8"/>
</g>
<!-- from18&#45;&gt;to18 -->
<g id="edge19" class="edge"><title>from18&#45;&gt;to18</title>
<path fill="none" stroke="blue" stroke-width="10" d="M3448.99,-1029.5C3460.6,-1029.5 3521.01,-1029.5 3547.21,-1029.5"/>
<polygon fill="blue" stroke="blue" points="3547.36,-1038.25 3557.36,-1029.5 3547.36,-1020.75 3547.36,-1038.25"/>
</g>
<!-- label19 -->
<g id="node58" class="node"><title>label19</title>
<polygon fill="none" stroke="none" points="3318.12,-1012.5 3020.12,-1012.5 3020.12,-902.5 3318.12,-902.5 3318.12,-1012.5"/>
<polygon fill="none" stroke="none" points="3031.12,-909.5 3031.12,-1005.5 3103.12,-1005.5 3103.12,-909.5 3031.12,-909.5"/>
<image xlink:href="images/Johannes_Kepler_1610.jpg" width="49.3487px" height="67.5px" preserveAspectRatio="xMinYMin meet" x="3042.45" y="-991.25"/>
<polygon fill="none" stroke="none" points="3105.12,-909.5 3105.12,-1005.5 3307.12,-1005.5 3307.12,-909.5 3105.12,-909.5"/>
<text text-anchor="start" x="3107.7" y="-954.82" font-family="Arial" font-size="14.00">ヨハネス・ケプラー 1571&#45;1630</text>
<polygon fill="none" stroke="none" points="3028.12,-906.5 3028.12,-1008.5 3310.12,-1008.5 3310.12,-906.5 3028.12,-906.5"/>
</g>
<!-- from19 -->
<g id="node59" class="node"><title>from19</title>
<ellipse fill="white" stroke="white" cx="3457.12" cy="-957.5" rx="1.8" ry="1.8"/>
</g>
<!-- to19 -->
<g id="node60" class="node"><title>to19</title>
<ellipse fill="white" stroke="white" cx="3542.08" cy="-957.5" rx="1.8" ry="1.8"/>
</g>
<!-- from19&#45;&gt;to19 -->
<g id="edge20" class="edge"><title>from19&#45;&gt;to19</title>
<path fill="none" stroke="blue" stroke-width="10" d="M3459.22,-957.5C3468.86,-957.5 3509.3,-957.5 3529.9,-957.5"/>
<polygon fill="blue" stroke="blue" points="3530.05,-966.25 3540.05,-957.5 3530.05,-948.75 3530.05,-966.25"/>
</g>
<!-- label20 -->
<g id="node61" class="node"><title>label20</title>
<polygon fill="none" stroke="none" points="3436.86,-941 3105.86,-941 3105.86,-830 3436.86,-830 3436.86,-941"/>
<polygon fill="none" stroke="none" points="3117.36,-836.5 3117.36,-933.5 3196.36,-933.5 3196.36,-836.5 3117.36,-836.5"/>
<image xlink:href="images/Isaac_Newton_1702.jpg" width="54.6px" height="68.25px" preserveAspectRatio="xMinYMin meet" x="3129.56" y="-919.125"/>
<polygon fill="none" stroke="none" points="3198.36,-836.5 3198.36,-933.5 3426.36,-933.5 3426.36,-836.5 3198.36,-836.5"/>
<text text-anchor="start" x="3201.2" y="-882.32" font-family="Arial" font-size="14.00">アイザック・ニュートン 1642&#45;1727</text>
<polygon fill="none" stroke="none" points="3113.86,-834 3113.86,-937 3428.86,-937 3428.86,-834 3113.86,-834"/>
</g>
<!-- from20 -->
<g id="node62" class="node"><title>from20</title>
<ellipse fill="white" stroke="white" cx="3559.36" cy="-885.5" rx="1.8" ry="1.8"/>
</g>
<!-- to20 -->
<g id="node63" class="node"><title>to20</title>
<ellipse fill="white" stroke="white" cx="3681.76" cy="-885.5" rx="1.8" ry="1.8"/>
</g>
<!-- from20&#45;&gt;to20 -->
<g id="edge21" class="edge"><title>from20&#45;&gt;to20</title>
<path fill="none" stroke="blue" stroke-width="10" d="M3561.48,-885.5C3574.3,-885.5 3641.71,-885.5 3669.63,-885.5"/>
<polygon fill="blue" stroke="blue" points="3669.95,-894.25 3679.95,-885.5 3669.95,-876.75 3669.95,-894.25"/>
</g>
<!-- label21 -->
<g id="node64" class="node"><title>label21</title>
<polygon fill="none" stroke="none" points="3561.96,-869 3239.96,-869 3239.96,-758 3561.96,-758 3561.96,-869"/>
<polygon fill="none" stroke="none" points="3250.96,-764.5 3250.96,-861.5 3332.96,-861.5 3332.96,-764.5 3250.96,-764.5"/>
<image xlink:href="images/George_Washington.jpg" width="56.875px" height="68.25px" preserveAspectRatio="xMinYMin meet" x="3263.52" y="-847.125"/>
<polygon fill="none" stroke="none" points="3334.96,-764.5 3334.96,-861.5 3550.96,-861.5 3550.96,-764.5 3334.96,-764.5"/>
<text text-anchor="start" x="3337.96" y="-810.32" font-family="Arial" font-size="14.00">ジョージ・ワシントン 1732&#45;1799</text>
<polygon fill="none" stroke="none" points="3247.96,-762 3247.96,-865 3553.96,-865 3553.96,-762 3247.96,-762"/>
</g>
<!-- from21 -->
<g id="node65" class="node"><title>from21</title>
<ellipse fill="white" stroke="white" cx="3688.96" cy="-813.5" rx="1.8" ry="1.8"/>
</g>
<!-- to21 -->
<g id="node66" class="node"><title>to21</title>
<ellipse fill="white" stroke="white" cx="3785.44" cy="-813.5" rx="1.8" ry="1.8"/>
</g>
<!-- from21&#45;&gt;to21 -->
<g id="edge22" class="edge"><title>from21&#45;&gt;to21</title>
<path fill="none" stroke="blue" stroke-width="10" d="M3690.98,-813.5C3701.47,-813.5 3750.28,-813.5 3773.33,-813.5"/>
<polygon fill="blue" stroke="blue" points="3773.44,-822.25 3783.44,-813.5 3773.44,-804.75 3773.44,-822.25"/>
</g>
<!-- label22 -->
<g id="node67" class="node"><title>label22</title>
<polygon fill="none" stroke="none" points="3542.58,-797 3253.58,-797 3253.58,-686 3542.58,-686 3542.58,-797"/>
<polygon fill="none" stroke="none" points="3265.08,-692.5 3265.08,-789.5 3343.08,-789.5 3343.08,-692.5 3265.08,-692.5"/>
<image xlink:href="images/Charles_Messier.jpg" width="54px" height="68.2105px" preserveAspectRatio="xMinYMin meet" x="3277.08" y="-775.105"/>
<polygon fill="none" stroke="none" points="3345.08,-692.5 3345.08,-789.5 3532.08,-789.5 3532.08,-692.5 3345.08,-692.5"/>
<text text-anchor="start" x="3347.79" y="-738.32" font-family="Arial" font-size="14.00">シャルル・メシエ 1730&#45;1817</text>
<polygon fill="none" stroke="none" points="3261.58,-690 3261.58,-793 3534.58,-793 3534.58,-690 3261.58,-690"/>
</g>
<!-- from22 -->
<g id="node68" class="node"><title>from22</title>
<ellipse fill="white" stroke="white" cx="3686.08" cy="-741.5" rx="1.8" ry="1.8"/>
</g>
<!-- to22 -->
<g id="node69" class="node"><title>to22</title>
<ellipse fill="white" stroke="white" cx="3811.36" cy="-741.5" rx="1.8" ry="1.8"/>
</g>
<!-- from22&#45;&gt;to22 -->
<g id="edge23" class="edge"><title>from22&#45;&gt;to22</title>
<path fill="none" stroke="blue" stroke-width="10" d="M3688.25,-741.5C3701.43,-741.5 3771,-741.5 3799.33,-741.5"/>
<polygon fill="blue" stroke="blue" points="3799.5,-750.25 3809.5,-741.5 3799.5,-732.75 3799.5,-750.25"/>
</g>
<!-- label23 -->
<g id="node70" class="node"><title>label23</title>
<polygon fill="none" stroke="none" points="3575.6,-725 3243.6,-725 3243.6,-614 3575.6,-614 3575.6,-725"/>
<polygon fill="none" stroke="none" points="3254.6,-620.5 3254.6,-717.5 3334.6,-717.5 3334.6,-620.5 3254.6,-620.5"/>
<image xlink:href="images/William_Herschel01.jpg" width="55.5px" height="67.9592px" preserveAspectRatio="xMinYMin meet" x="3266.85" y="-702.98"/>
<polygon fill="none" stroke="none" points="3336.6,-620.5 3336.6,-717.5 3564.6,-717.5 3564.6,-620.5 3336.6,-620.5"/>
<text text-anchor="start" x="3339.23" y="-666.32" font-family="Arial" font-size="14.00">ウィリアム・ハーシェル 1738&#45;1822</text>
<polygon fill="none" stroke="none" points="3251.6,-618 3251.6,-721 3567.6,-721 3567.6,-618 3251.6,-618"/>
</g>
<!-- from23 -->
<g id="node71" class="node"><title>from23</title>
<ellipse fill="white" stroke="white" cx="3697.6" cy="-669.5" rx="1.8" ry="1.8"/>
</g>
<!-- to23 -->
<g id="node72" class="node"><title>to23</title>
<ellipse fill="white" stroke="white" cx="3818.56" cy="-669.5" rx="1.8" ry="1.8"/>
</g>
<!-- from23&#45;&gt;to23 -->
<g id="edge24" class="edge"><title>from23&#45;&gt;to23</title>
<path fill="none" stroke="blue" stroke-width="10" d="M3699.7,-669.5C3712.32,-669.5 3778.45,-669.5 3806.24,-669.5"/>
<polygon fill="blue" stroke="blue" points="3806.4,-678.25 3816.4,-669.5 3806.4,-660.75 3806.4,-678.25"/>
</g>
<!-- label24 -->
<g id="node73" class="node"><title>label24</title>
<polygon fill="none" stroke="none" points="3593.38,-652.5 3260.38,-652.5 3260.38,-542.5 3593.38,-542.5 3593.38,-652.5"/>
<polygon fill="none" stroke="none" points="3271.88,-549.5 3271.88,-645.5 3350.88,-645.5 3350.88,-549.5 3271.88,-549.5"/>
<image xlink:href="images/Herschel_Caroline_1829.jpg" width="54.75px" height="67.1675px" preserveAspectRatio="xMinYMin meet" x="3284.01" y="-631.084"/>
<polygon fill="none" stroke="none" points="3352.88,-549.5 3352.88,-645.5 3582.88,-645.5 3582.88,-549.5 3352.88,-549.5"/>
<text text-anchor="start" x="3355.74" y="-594.82" font-family="Arial" font-size="14.00">カロライン・ハーシェル 1750&#45;1848</text>
<polygon fill="none" stroke="none" points="3268.38,-546.5 3268.38,-648.5 3585.38,-648.5 3585.38,-546.5 3268.38,-546.5"/>
</g>
<!-- from24 -->
<g id="node74" class="node"><title>from24</title>
<ellipse fill="white" stroke="white" cx="3714.88" cy="-597.5" rx="1.8" ry="1.8"/>
</g>
<!-- to24 -->
<g id="node75" class="node"><title>to24</title>
<ellipse fill="white" stroke="white" cx="3856" cy="-597.5" rx="1.8" ry="1.8"/>
</g>
<!-- from24&#45;&gt;to24 -->
<g id="edge25" class="edge"><title>from24&#45;&gt;to24</title>
<path fill="none" stroke="blue" stroke-width="10" d="M3716.87,-597.5C3730.65,-597.5 3812.02,-597.5 3843.54,-597.5"/>
<polygon fill="blue" stroke="blue" points="3843.87,-606.25 3853.87,-597.5 3843.87,-588.75 3843.87,-606.25"/>
</g>
<!-- label25 -->
<g id="node76" class="node"><title>label25</title>
<polygon fill="none" stroke="none" points="3681.16,-581 3279.16,-581 3279.16,-470 3681.16,-470 3681.16,-581"/>
<polygon fill="none" stroke="none" points="3290.16,-476.5 3290.16,-573.5 3357.16,-573.5 3357.16,-476.5 3290.16,-476.5"/>
<image xlink:href="images/Joseph_von_Fraunhofer.jpg" width="45.5px" height="68.25px" preserveAspectRatio="xMinYMin meet" x="3300.91" y="-559.125"/>
<polygon fill="none" stroke="none" points="3359.16,-476.5 3359.16,-573.5 3670.16,-573.5 3670.16,-476.5 3359.16,-476.5"/>
<text text-anchor="start" x="3361.71" y="-522.32" font-family="Arial" font-size="14.00">ヨセフ・フォン・フラウンホーファー 1787&#45;1826</text>
<polygon fill="none" stroke="none" points="3287.16,-474 3287.16,-577 3673.16,-577 3673.16,-474 3287.16,-474"/>
</g>
<!-- from25 -->
<g id="node77" class="node"><title>from25</title>
<ellipse fill="white" stroke="white" cx="3768.16" cy="-525.5" rx="1.8" ry="1.8"/>
</g>
<!-- to25 -->
<g id="node78" class="node"><title>to25</title>
<ellipse fill="white" stroke="white" cx="3824.32" cy="-525.5" rx="1.8" ry="1.8"/>
</g>
<!-- from25&#45;&gt;to25 -->
<g id="edge26" class="edge"><title>from25&#45;&gt;to25</title>
<path fill="none" stroke="blue" stroke-width="10" d="M3770.03,-525.5C3776.49,-525.5 3798.25,-525.5 3812.18,-525.5"/>
<polygon fill="blue" stroke="blue" points="3812.39,-534.25 3822.39,-525.5 3812.39,-516.75 3812.39,-534.25"/>
</g>
<!-- label26 -->
<g id="node79" class="node"><title>label26</title>
<polygon fill="none" stroke="none" points="3640.86,-509 3333.86,-509 3333.86,-398 3640.86,-398 3640.86,-509"/>
<polygon fill="none" stroke="none" points="3345.36,-404.5 3345.36,-501.5 3427.36,-501.5 3427.36,-404.5 3345.36,-404.5"/>
<image xlink:href="images/John_Herschel00.jpg" width="57px" height="67.7228px" preserveAspectRatio="xMinYMin meet" x="3357.86" y="-486.861"/>
<polygon fill="none" stroke="none" points="3429.36,-404.5 3429.36,-501.5 3630.36,-501.5 3630.36,-404.5 3429.36,-404.5"/>
<text text-anchor="start" x="3431.93" y="-450.32" font-family="Arial" font-size="14.00">ジョン・ハーシェル 1792&#45;1871</text>
<polygon fill="none" stroke="none" points="3341.86,-402 3341.86,-505 3632.86,-505 3632.86,-402 3341.86,-402"/>
</g>
<!-- from26 -->
<g id="node80" class="node"><title>from26</title>
<ellipse fill="white" stroke="white" cx="3775.36" cy="-453.5" rx="1.8" ry="1.8"/>
</g>
<!-- to26 -->
<g id="node81" class="node"><title>to26</title>
<ellipse fill="white" stroke="white" cx="3889.12" cy="-453.5" rx="1.8" ry="1.8"/>
</g>
<!-- from26&#45;&gt;to26 -->
<g id="edge27" class="edge"><title>from26&#45;&gt;to26</title>
<path fill="none" stroke="blue" stroke-width="10" d="M3777.33,-453.5C3789.09,-453.5 3850.27,-453.5 3876.82,-453.5"/>
<polygon fill="blue" stroke="blue" points="3877.09,-462.25 3887.09,-453.5 3877.09,-444.75 3877.09,-462.25"/>
</g>
<!-- label27 -->
<g id="node82" class="node"><title>label27</title>
<polygon fill="none" stroke="none" points="3702.7,-436.5 3303.7,-436.5 3303.7,-326.5 3702.7,-326.5 3702.7,-436.5"/>
<polygon fill="none" stroke="none" points="3315.2,-333.5 3315.2,-429.5 3391.2,-429.5 3391.2,-333.5 3315.2,-333.5"/>
<image xlink:href="images/Christian_Doppler.jpg" width="52.5px" height="67.1774px" preserveAspectRatio="xMinYMin meet" x="3326.95" y="-415.089"/>
<polygon fill="none" stroke="none" points="3393.2,-333.5 3393.2,-429.5 3692.2,-429.5 3692.2,-333.5 3393.2,-333.5"/>
<text text-anchor="start" x="3396.19" y="-378.82" font-family="Arial" font-size="14.00">ヨハン・クリスチャン・ドップラー 1803&#45;1853</text>
<polygon fill="none" stroke="none" points="3311.7,-330.5 3311.7,-432.5 3694.7,-432.5 3694.7,-330.5 3311.7,-330.5"/>
</g>
<!-- from27 -->
<g id="node83" class="node"><title>from27</title>
<ellipse fill="white" stroke="white" cx="3791.2" cy="-381.5" rx="1.8" ry="1.8"/>
</g>
<!-- to27 -->
<g id="node84" class="node"><title>to27</title>
<ellipse fill="white" stroke="white" cx="3863.2" cy="-381.5" rx="1.8" ry="1.8"/>
</g>
<!-- from27&#45;&gt;to27 -->
<g id="edge28" class="edge"><title>from27&#45;&gt;to27</title>
<path fill="none" stroke="blue" stroke-width="10" d="M3793.28,-381.5C3801.66,-381.5 3833.36,-381.5 3851.06,-381.5"/>
<polygon fill="blue" stroke="blue" points="3851.25,-390.25 3861.25,-381.5 3851.25,-372.75 3851.25,-390.25"/>
</g>
<!-- label28 -->
<g id="node85" class="node"><title>label28</title>
<polygon fill="none" stroke="none" points="3685.78,-331 3340.78,-331 3340.78,-288 3685.78,-288 3685.78,-331"/>
<polygon fill="none" stroke="none" points="3352.28,-294.5 3352.28,-323.5 3359.28,-323.5 3359.28,-294.5 3352.28,-294.5"/>
<polygon fill="none" stroke="none" points="3361.28,-294.5 3361.28,-323.5 3675.28,-323.5 3675.28,-294.5 3361.28,-294.5"/>
<text text-anchor="start" x="3363.86" y="-306.32" font-family="Arial" font-size="14.00">フレデリック・フランソワ・ショパン 1810&#45;1849</text>
<polygon fill="none" stroke="none" points="3348.78,-292 3348.78,-327 3677.78,-327 3677.78,-292 3348.78,-292"/>
</g>
<!-- from28 -->
<g id="node86" class="node"><title>from28</title>
<ellipse fill="white" stroke="white" cx="3801.28" cy="-309.5" rx="1.8" ry="1.8"/>
</g>
<!-- to28 -->
<g id="node87" class="node"><title>to28</title>
<ellipse fill="white" stroke="white" cx="3857.44" cy="-309.5" rx="1.8" ry="1.8"/>
</g>
<!-- from28&#45;&gt;to28 -->
<g id="edge29" class="edge"><title>from28&#45;&gt;to28</title>
<path fill="none" stroke="blue" stroke-width="10" d="M3803.15,-309.5C3809.61,-309.5 3831.37,-309.5 3845.3,-309.5"/>
<polygon fill="blue" stroke="blue" points="3845.51,-318.25 3855.51,-309.5 3845.51,-300.75 3845.51,-318.25"/>
</g>
<!-- label29 -->
<g id="node88" class="node"><title>label29</title>
<polygon fill="none" stroke="none" points="3672.76,-259 3402.76,-259 3402.76,-216 3672.76,-216 3672.76,-259"/>
<polygon fill="none" stroke="none" points="3413.76,-222.5 3413.76,-251.5 3420.76,-251.5 3420.76,-222.5 3413.76,-222.5"/>
<polygon fill="none" stroke="none" points="3422.76,-222.5 3422.76,-251.5 3661.76,-251.5 3661.76,-222.5 3422.76,-222.5"/>
<text text-anchor="start" x="3425.39" y="-234.32" font-family="Arial" font-size="14.00">ジョン万次郎(まんじろう) 1827&#45;1898</text>
<polygon fill="none" stroke="none" points="3410.76,-220 3410.76,-255 3664.76,-255 3664.76,-220 3410.76,-220"/>
</g>
<!-- from29 -->
<g id="node89" class="node"><title>from29</title>
<ellipse fill="white" stroke="white" cx="3825.76" cy="-237.5" rx="1.8" ry="1.8"/>
</g>
<!-- to29 -->
<g id="node90" class="node"><title>to29</title>
<ellipse fill="white" stroke="white" cx="3928" cy="-237.5" rx="1.8" ry="1.8"/>
</g>
<!-- from29&#45;&gt;to29 -->
<g id="edge30" class="edge"><title>from29&#45;&gt;to29</title>
<path fill="none" stroke="blue" stroke-width="10" d="M3827.9,-237.5C3839.12,-237.5 3891.71,-237.5 3915.84,-237.5"/>
<polygon fill="blue" stroke="blue" points="3915.88,-246.25 3925.88,-237.5 3915.88,-228.75 3915.88,-246.25"/>
</g>
<!-- label30 -->
<g id="node91" class="node"><title>label30</title>
<polygon fill="none" stroke="none" points="3649.7,-187 3500.7,-187 3500.7,-144 3649.7,-144 3649.7,-187"/>
<polygon fill="none" stroke="none" points="3512.2,-150.5 3512.2,-179.5 3519.2,-179.5 3519.2,-150.5 3512.2,-150.5"/>
<polygon fill="none" stroke="none" points="3521.2,-150.5 3521.2,-179.5 3639.2,-179.5 3639.2,-150.5 3521.2,-150.5"/>
<text text-anchor="start" x="3524.06" y="-162.32" font-family="Arial" font-size="14.00">ゴッホ 1853&#45;1890</text>
<polygon fill="none" stroke="none" points="3508.7,-148 3508.7,-183 3641.7,-183 3641.7,-148 3508.7,-148"/>
</g>
<!-- from30 -->
<g id="node92" class="node"><title>from30</title>
<ellipse fill="white" stroke="white" cx="3863.2" cy="-165.5" rx="1.8" ry="1.8"/>
</g>
<!-- to30 -->
<g id="node93" class="node"><title>to30</title>
<ellipse fill="white" stroke="white" cx="3916.48" cy="-165.5" rx="1.8" ry="1.8"/>
</g>
<!-- from30&#45;&gt;to30 -->
<g id="edge31" class="edge"><title>from30&#45;&gt;to30</title>
<path fill="none" stroke="blue" stroke-width="10" d="M3865.49,-165.5C3872.06,-165.5 3891.34,-165.5 3904.22,-165.5"/>
<polygon fill="blue" stroke="blue" points="3904.26,-174.25 3914.26,-165.5 3904.26,-156.75 3904.26,-174.25"/>
</g>
<!-- label31 -->
<g id="node94" class="node"><title>label31</title>
<polygon fill="none" stroke="none" points="3721.64,-115 3503.64,-115 3503.64,-72 3721.64,-72 3721.64,-115"/>
<polygon fill="none" stroke="none" points="3514.64,-78.5 3514.64,-107.5 3521.64,-107.5 3521.64,-78.5 3514.64,-78.5"/>
<polygon fill="none" stroke="none" points="3523.64,-78.5 3523.64,-107.5 3710.64,-107.5 3710.64,-78.5 3523.64,-78.5"/>
<text text-anchor="start" x="3526.28" y="-90.3203" font-family="Arial" font-size="14.00">アインシュタイン 1879&#45;1955</text>
<polygon fill="none" stroke="none" points="3511.64,-76 3511.64,-111 3713.64,-111 3713.64,-76 3511.64,-76"/>
</g>
<!-- from31 -->
<g id="node95" class="node"><title>from31</title>
<ellipse fill="white" stroke="white" cx="3900.64" cy="-93.5" rx="1.8" ry="1.8"/>
</g>
<!-- to31 -->
<g id="node96" class="node"><title>to31</title>
<ellipse fill="white" stroke="white" cx="4010.08" cy="-93.5" rx="1.8" ry="1.8"/>
</g>
<!-- from31&#45;&gt;to31 -->
<g id="edge32" class="edge"><title>from31&#45;&gt;to31</title>
<path fill="none" stroke="blue" stroke-width="10" d="M3902.54,-93.5C3913.8,-93.5 3972.17,-93.5 3997.89,-93.5"/>
<polygon fill="blue" stroke="blue" points="3998.13,-102.25 4008.13,-93.5 3998.13,-84.7501 3998.13,-102.25"/>
</g>
<!-- label32 -->
<g id="node97" class="node"><title>label32</title>
<polygon fill="none" stroke="none" points="3708.04,-43 3546.04,-43 3546.04,-0 3708.04,-0 3708.04,-43"/>
<polygon fill="none" stroke="none" points="3557.04,-6.5 3557.04,-35.5 3564.04,-35.5 3564.04,-6.5 3557.04,-6.5"/>
<polygon fill="none" stroke="none" points="3566.04,-6.5 3566.04,-35.5 3697.04,-35.5 3697.04,-6.5 3566.04,-6.5"/>
<text text-anchor="start" x="3568.75" y="-18.3203" font-family="Arial" font-size="14.00">ハッブル 1889&#45;1953</text>
<polygon fill="none" stroke="none" points="3554.04,-4 3554.04,-39 3700.04,-39 3700.04,-4 3554.04,-4"/>
</g>
<!-- from32 -->
<g id="node98" class="node"><title>from32</title>
<ellipse fill="white" stroke="white" cx="3915.04" cy="-21.5" rx="1.8" ry="1.8"/>
</g>
<!-- to32 -->
<g id="node99" class="node"><title>to32</title>
<ellipse fill="white" stroke="white" cx="4007.2" cy="-21.5" rx="1.8" ry="1.8"/>
</g>
<!-- from32&#45;&gt;to32 -->
<g id="edge33" class="edge"><title>from32&#45;&gt;to32</title>
<path fill="none" stroke="blue" stroke-width="10" d="M3916.97,-21.5C3926.9,-21.5 3972.74,-21.5 3995.01,-21.5"/>
<polygon fill="blue" stroke="blue" points="3995.29,-30.2501 4005.29,-21.5 3995.29,-12.7501 3995.29,-30.2501"/>
</g>
</g>
</svg>
