<?xml version="1.0" encoding="UTF-8" standalone="no"?>
<!DOCTYPE svg PUBLIC "-//W3C//DTD SVG 1.1//EN"
 "http://www.w3.org/Graphics/SVG/1.1/DTD/svg11.dtd">
<!-- Generated by graphviz version 2.34.0 (20140129.0153)
 -->
<!-- Title: G Pages: 1 -->
<svg width="4020pt" height="2101pt"
 viewBox="0.00 0.00 4019.88 2101.00" xmlns="http://www.w3.org/2000/svg" xmlns:xlink="http://www.w3.org/1999/xlink">
<g id="graph0" class="graph" transform="scale(1 1) rotate(0) translate(4 2097)">
<title>G</title>
<polygon fill="white" stroke="white" points="-4,4 -4,-2097 4015.88,-2097 4015.88,4 -4,4"/>
<!-- label0 -->
<g id="node1" class="node"><title>label0</title>
<polygon fill="none" stroke="none" points="224,-2093 1.42109e-14,-2093 1.42109e-14,-1982 224,-1982 224,-2093"/>
<polygon fill="none" stroke="none" points="11,-1988.5 11,-2085.5 62,-2085.5 62,-1988.5 11,-1988.5"/>
<image xlink:href="./images/Confucius_02.png" width="33.5563px" height="68.25px" preserveAspectRatio="xMinYMin meet" x="19.7219" y="-2071.12"/>
<polygon fill="none" stroke="none" points="64,-1988.5 64,-2085.5 213,-2085.5 213,-1988.5 64,-1988.5"/>
<text text-anchor="start" x="66.8915" y="-2034.32" font-family="Arial" font-size="14.00">孔子(こうし) &#45;552&#45;&#45;479</text>
<polygon fill="none" stroke="none" points="8,-1986 8,-2089 216,-2089 216,-1986 8,-1986"/>
</g>
<!-- &#45;462387453295535827 -->
<g id="node2" class="node"><title>&#45;462387453295535827</title>
<ellipse fill="none" stroke="none" cx="400" cy="-2037.5" rx="1.8" ry="1.8"/>
</g>
<!-- &#45;3865056084504405082 -->
<g id="node3" class="node"><title>&#45;3865056084504405082</title>
<ellipse fill="none" stroke="none" cx="505.12" cy="-2037.5" rx="1.8" ry="1.8"/>
</g>
<!-- &#45;462387453295535827&#45;&gt;&#45;3865056084504405082 -->
<g id="edge1" class="edge"><title>&#45;462387453295535827&#45;&gt;&#45;3865056084504405082</title>
<path fill="none" stroke="blue" d="M401.825,-2037.5C413.388,-2037.5 476.675,-2037.5 498.058,-2037.5"/>
<polyline fill="none" stroke="blue" points="503.245,-2037.5 498.245,-2037.5 "/>
</g>
<!-- label1 -->
<g id="node4" class="node"><title>label1</title>
<polygon fill="none" stroke="none" points="351.02,-2021 112.02,-2021 112.02,-1910 351.02,-1910 351.02,-2021"/>
<polygon fill="none" stroke="none" points="123.52,-1916.5 123.52,-2013.5 199.52,-2013.5 199.52,-1916.5 123.52,-1916.5"/>
<image xlink:href="./images/Socrate.jpg" width="52.325px" height="68.25px" preserveAspectRatio="xMinYMin meet" x="135.357" y="-1999.12"/>
<polygon fill="none" stroke="none" points="201.52,-1916.5 201.52,-2013.5 340.52,-2013.5 340.52,-1916.5 201.52,-1916.5"/>
<text text-anchor="start" x="204.074" y="-1962.32" font-family="Arial" font-size="14.00">ソクラテス &#45;469&#45;&#45;399</text>
<polygon fill="none" stroke="none" points="120.02,-1914 120.02,-2017 343.02,-2017 343.02,-1914 120.02,-1914"/>
</g>
<!-- &#45;2915749809876873653 -->
<g id="node5" class="node"><title>&#45;2915749809876873653</title>
<ellipse fill="none" stroke="none" cx="519.52" cy="-1965.5" rx="1.8" ry="1.8"/>
</g>
<!-- 3113893549296728982 -->
<g id="node6" class="node"><title>3113893549296728982</title>
<ellipse fill="none" stroke="none" cx="620.32" cy="-1965.5" rx="1.8" ry="1.8"/>
</g>
<!-- &#45;2915749809876873653&#45;&gt;3113893549296728982 -->
<g id="edge2" class="edge"><title>&#45;2915749809876873653&#45;&gt;3113893549296728982</title>
<path fill="none" stroke="blue" d="M521.625,-1965.5C533.514,-1965.5 592.446,-1965.5 613.129,-1965.5"/>
<polyline fill="none" stroke="blue" points="618.226,-1965.5 613.226,-1965.5 "/>
</g>
<!-- label2 -->
<g id="node7" class="node"><title>label2</title>
<polygon fill="none" stroke="none" points="311.66,-1915 168.66,-1915 168.66,-1872 311.66,-1872 311.66,-1915"/>
<polygon fill="none" stroke="none" points="180.16,-1878.5 180.16,-1907.5 187.16,-1907.5 187.16,-1878.5 180.16,-1878.5"/>
<polygon fill="none" stroke="none" points="189.16,-1878.5 189.16,-1907.5 301.16,-1907.5 301.16,-1878.5 189.16,-1878.5"/>
<text text-anchor="start" x="191.864" y="-1890.32" font-family="Arial" font-size="14.00">シャカ &#45;463&#45;&#45;383</text>
<polygon fill="none" stroke="none" points="176.66,-1876 176.66,-1911 303.66,-1911 303.66,-1876 176.66,-1876"/>
</g>
<!-- &#45;581833785055971447 -->
<g id="node8" class="node"><title>&#45;581833785055971447</title>
<ellipse fill="none" stroke="none" cx="528.16" cy="-1893.5" rx="1.8" ry="1.8"/>
</g>
<!-- 260932049808725536 -->
<g id="node9" class="node"><title>260932049808725536</title>
<ellipse fill="none" stroke="none" cx="643.36" cy="-1893.5" rx="1.8" ry="1.8"/>
</g>
<!-- &#45;581833785055971447&#45;&gt;260932049808725536 -->
<g id="edge3" class="edge"><title>&#45;581833785055971447&#45;&gt;260932049808725536</title>
<path fill="none" stroke="blue" d="M530.16,-1893.5C542.941,-1893.5 613.387,-1893.5 636.216,-1893.5"/>
<polyline fill="none" stroke="blue" points="641.305,-1893.5 636.305,-1893.5 "/>
</g>
<!-- label3 -->
<g id="node10" class="node"><title>label3</title>
<polygon fill="none" stroke="none" points="370.5,-1843 213.5,-1843 213.5,-1800 370.5,-1800 370.5,-1843"/>
<polygon fill="none" stroke="none" points="225,-1806.5 225,-1835.5 232,-1835.5 232,-1806.5 225,-1806.5"/>
<polygon fill="none" stroke="none" points="234,-1806.5 234,-1835.5 360,-1835.5 360,-1806.5 234,-1806.5"/>
<text text-anchor="start" x="236.914" y="-1818.32" font-family="Arial" font-size="14.00">プラトン &#45;427&#45;&#45;347</text>
<polygon fill="none" stroke="none" points="221.5,-1804 221.5,-1839 362.5,-1839 362.5,-1804 221.5,-1804"/>
</g>
<!-- 2540180814144451064 -->
<g id="node11" class="node"><title>2540180814144451064</title>
<ellipse fill="none" stroke="none" cx="580" cy="-1821.5" rx="1.8" ry="1.8"/>
</g>
<!-- &#45;296046877775608630 -->
<g id="node12" class="node"><title>&#45;296046877775608630</title>
<ellipse fill="none" stroke="none" cx="695.2" cy="-1821.5" rx="1.8" ry="1.8"/>
</g>
<!-- 2540180814144451064&#45;&gt;&#45;296046877775608630 -->
<g id="edge4" class="edge"><title>2540180814144451064&#45;&gt;&#45;296046877775608630</title>
<path fill="none" stroke="blue" d="M582,-1821.5C594.781,-1821.5 665.227,-1821.5 688.057,-1821.5"/>
<polyline fill="none" stroke="blue" points="693.145,-1821.5 688.145,-1821.5 "/>
</g>
<!-- label4 -->
<g id="node13" class="node"><title>label4</title>
<polygon fill="none" stroke="none" points="452.92,-1771 254.92,-1771 254.92,-1728 452.92,-1728 452.92,-1771"/>
<polygon fill="none" stroke="none" points="265.92,-1734.5 265.92,-1763.5 272.92,-1763.5 272.92,-1734.5 265.92,-1734.5"/>
<polygon fill="none" stroke="none" points="274.92,-1734.5 274.92,-1763.5 441.92,-1763.5 441.92,-1734.5 274.92,-1734.5"/>
<text text-anchor="start" x="277.754" y="-1746.32" font-family="Arial" font-size="14.00">アリストテレス &#45;384&#45;&#45;322</text>
<polygon fill="none" stroke="none" points="262.92,-1732 262.92,-1767 444.92,-1767 444.92,-1732 262.92,-1732"/>
</g>
<!-- 2279102049287029646 -->
<g id="node14" class="node"><title>2279102049287029646</title>
<ellipse fill="none" stroke="none" cx="641.92" cy="-1749.5" rx="1.8" ry="1.8"/>
</g>
<!-- &#45;1146798355405283060 -->
<g id="node15" class="node"><title>&#45;1146798355405283060</title>
<ellipse fill="none" stroke="none" cx="731.2" cy="-1749.5" rx="1.8" ry="1.8"/>
</g>
<!-- 2279102049287029646&#45;&gt;&#45;1146798355405283060 -->
<g id="edge5" class="edge"><title>2279102049287029646&#45;&gt;&#45;1146798355405283060</title>
<path fill="none" stroke="blue" d="M643.785,-1749.5C654.133,-1749.5 704.724,-1749.5 723.854,-1749.5"/>
<polyline fill="none" stroke="blue" points="729.346,-1749.5 724.346,-1749.5 "/>
</g>
<!-- label5 -->
<g id="node16" class="node"><title>label5</title>
<polygon fill="none" stroke="none" points="585.1,-1699 402.1,-1699 402.1,-1656 585.1,-1656 585.1,-1699"/>
<polygon fill="none" stroke="none" points="413.6,-1662.5 413.6,-1691.5 420.6,-1691.5 420.6,-1662.5 413.6,-1662.5"/>
<polygon fill="none" stroke="none" points="422.6,-1662.5 422.6,-1691.5 574.6,-1691.5 574.6,-1662.5 422.6,-1662.5"/>
<text text-anchor="start" x="425.144" y="-1674.32" font-family="Arial" font-size="14.00">アルキメデス &#45;287&#45;&#45;212</text>
<polygon fill="none" stroke="none" points="410.1,-1660 410.1,-1695 577.1,-1695 577.1,-1660 410.1,-1660"/>
</g>
<!-- &#45;3895082306554006888 -->
<g id="node17" class="node"><title>&#45;3895082306554006888</title>
<ellipse fill="none" stroke="none" cx="781.6" cy="-1677.5" rx="1.8" ry="1.8"/>
</g>
<!-- 290560901168319309 -->
<g id="node18" class="node"><title>290560901168319309</title>
<ellipse fill="none" stroke="none" cx="889.6" cy="-1677.5" rx="1.8" ry="1.8"/>
</g>
<!-- &#45;3895082306554006888&#45;&gt;290560901168319309 -->
<g id="edge6" class="edge"><title>&#45;3895082306554006888&#45;&gt;290560901168319309</title>
<path fill="none" stroke="blue" d="M783.474,-1677.5C795.406,-1677.5 860.937,-1677.5 882.626,-1677.5"/>
<polyline fill="none" stroke="blue" points="887.674,-1677.5 882.674,-1677.5 "/>
</g>
<!-- label6 -->
<g id="node19" class="node"><title>label6</title>
<polygon fill="none" stroke="none" points="725.78,-1627 540.78,-1627 540.78,-1584 725.78,-1584 725.78,-1627"/>
<polygon fill="none" stroke="none" points="552.28,-1590.5 552.28,-1619.5 559.28,-1619.5 559.28,-1590.5 552.28,-1590.5"/>
<polygon fill="none" stroke="none" points="561.28,-1590.5 561.28,-1619.5 715.28,-1619.5 715.28,-1590.5 561.28,-1590.5"/>
<text text-anchor="start" x="563.984" y="-1602.32" font-family="Arial" font-size="14.00">ヒッパルコス &#45;190&#45;&#45;125</text>
<polygon fill="none" stroke="none" points="548.78,-1588 548.78,-1623 717.78,-1623 717.78,-1588 548.78,-1588"/>
</g>
<!-- 776747295069236480 -->
<g id="node20" class="node"><title>776747295069236480</title>
<ellipse fill="none" stroke="none" cx="921.28" cy="-1605.5" rx="1.8" ry="1.8"/>
</g>
<!-- &#45;3453668382999055538 -->
<g id="node21" class="node"><title>&#45;3453668382999055538</title>
<ellipse fill="none" stroke="none" cx="1014.88" cy="-1605.5" rx="1.8" ry="1.8"/>
</g>
<!-- 776747295069236480&#45;&gt;&#45;3453668382999055538 -->
<g id="edge7" class="edge"><title>776747295069236480&#45;&gt;&#45;3453668382999055538</title>
<path fill="none" stroke="blue" d="M923.235,-1605.5C934.179,-1605.5 988.056,-1605.5 1007.7,-1605.5"/>
<polyline fill="none" stroke="blue" points="1012.94,-1605.5 1007.94,-1605.5 "/>
</g>
<!-- label7 -->
<g id="node22" class="node"><title>label7</title>
<polygon fill="none" stroke="none" points="993.12,-1555 809.12,-1555 809.12,-1512 993.12,-1512 993.12,-1555"/>
<polygon fill="none" stroke="none" points="820.12,-1518.5 820.12,-1547.5 827.12,-1547.5 827.12,-1518.5 820.12,-1518.5"/>
<polygon fill="none" stroke="none" points="829.12,-1518.5 829.12,-1547.5 982.12,-1547.5 982.12,-1518.5 829.12,-1518.5"/>
<text text-anchor="start" x="831.824" y="-1530.32" font-family="Arial" font-size="14.00">イエス・キリスト &#45;4&#45;30</text>
<polygon fill="none" stroke="none" points="817.12,-1516 817.12,-1551 985.12,-1551 985.12,-1516 817.12,-1516"/>
</g>
<!-- 3501109752067469575 -->
<g id="node23" class="node"><title>3501109752067469575</title>
<ellipse fill="none" stroke="none" cx="1189.12" cy="-1533.5" rx="1.8" ry="1.8"/>
</g>
<!-- 3570204327686565936 -->
<g id="node24" class="node"><title>3570204327686565936</title>
<ellipse fill="none" stroke="none" cx="1238.08" cy="-1533.5" rx="1.8" ry="1.8"/>
</g>
<!-- 3501109752067469575&#45;&gt;3570204327686565936 -->
<g id="edge8" class="edge"><title>3501109752067469575&#45;&gt;3570204327686565936</title>
<path fill="none" stroke="blue" d="M1191.22,-1533.5C1198.02,-1533.5 1219.6,-1533.5 1230.94,-1533.5"/>
<polyline fill="none" stroke="blue" points="1236.04,-1533.5 1231.04,-1533.5 "/>
</g>
<!-- label8 -->
<g id="node25" class="node"><title>label8</title>
<polygon fill="none" stroke="none" points="1116.4,-1483 936.4,-1483 936.4,-1440 1116.4,-1440 1116.4,-1483"/>
<polygon fill="none" stroke="none" points="947.4,-1446.5 947.4,-1475.5 954.4,-1475.5 954.4,-1446.5 947.4,-1446.5"/>
<polygon fill="none" stroke="none" points="956.4,-1446.5 956.4,-1475.5 1105.4,-1475.5 1105.4,-1446.5 956.4,-1446.5"/>
<text text-anchor="start" x="958.929" y="-1458.32" font-family="Arial" font-size="14.00">プトレマイオス 83&#45;168</text>
<polygon fill="none" stroke="none" points="944.4,-1444 944.4,-1479 1108.4,-1479 1108.4,-1444 944.4,-1444"/>
</g>
<!-- 646608782399155711 -->
<g id="node26" class="node"><title>646608782399155711</title>
<ellipse fill="none" stroke="none" cx="1314.4" cy="-1461.5" rx="1.8" ry="1.8"/>
</g>
<!-- 4474811045664446207 -->
<g id="node27" class="node"><title>4474811045664446207</title>
<ellipse fill="none" stroke="none" cx="1436.8" cy="-1461.5" rx="1.8" ry="1.8"/>
</g>
<!-- 646608782399155711&#45;&gt;4474811045664446207 -->
<g id="edge9" class="edge"><title>646608782399155711&#45;&gt;4474811045664446207</title>
<path fill="none" stroke="blue" d="M1316.52,-1461.5C1330.22,-1461.5 1406.24,-1461.5 1429.82,-1461.5"/>
<polyline fill="none" stroke="blue" points="1434.99,-1461.5 1429.99,-1461.5 "/>
</g>
<!-- label9 -->
<g id="node28" class="node"><title>label9</title>
<polygon fill="none" stroke="none" points="1808.68,-1411 1646.68,-1411 1646.68,-1368 1808.68,-1368 1808.68,-1411"/>
<polygon fill="none" stroke="none" points="1657.68,-1374.5 1657.68,-1403.5 1664.68,-1403.5 1664.68,-1374.5 1657.68,-1374.5"/>
<polygon fill="none" stroke="none" points="1666.68,-1374.5 1666.68,-1403.5 1797.68,-1403.5 1797.68,-1374.5 1666.68,-1374.5"/>
<text text-anchor="start" x="1669.55" y="-1386.32" font-family="Arial" font-size="14.00">ムハンマド 570&#45;632</text>
<polygon fill="none" stroke="none" points="1654.68,-1372 1654.68,-1407 1800.68,-1407 1800.68,-1372 1654.68,-1372"/>
</g>
<!-- &#45;1175729249094716124 -->
<g id="node29" class="node"><title>&#45;1175729249094716124</title>
<ellipse fill="none" stroke="none" cx="2015.68" cy="-1389.5" rx="1.8" ry="1.8"/>
</g>
<!-- 467409977276635991 -->
<g id="node30" class="node"><title>467409977276635991</title>
<ellipse fill="none" stroke="none" cx="2104.96" cy="-1389.5" rx="1.8" ry="1.8"/>
</g>
<!-- &#45;1175729249094716124&#45;&gt;467409977276635991 -->
<g id="edge10" class="edge"><title>&#45;1175729249094716124&#45;&gt;467409977276635991</title>
<path fill="none" stroke="blue" d="M2017.54,-1389.5C2027.89,-1389.5 2078.48,-1389.5 2097.61,-1389.5"/>
<polyline fill="none" stroke="blue" points="2103.11,-1389.5 2098.11,-1389.5 "/>
</g>
<!-- label10 -->
<g id="node31" class="node"><title>label10</title>
<polygon fill="none" stroke="none" points="1872.76,-1339 1674.76,-1339 1674.76,-1296 1872.76,-1296 1872.76,-1339"/>
<polygon fill="none" stroke="none" points="1685.76,-1302.5 1685.76,-1331.5 1692.76,-1331.5 1692.76,-1302.5 1685.76,-1302.5"/>
<polygon fill="none" stroke="none" points="1694.76,-1302.5 1694.76,-1331.5 1861.76,-1331.5 1861.76,-1302.5 1694.76,-1302.5"/>
<text text-anchor="start" x="1697.45" y="-1314.32" font-family="Arial" font-size="14.00">玄奘(げんじょう) 602&#45;664</text>
<polygon fill="none" stroke="none" points="1682.76,-1300 1682.76,-1335 1864.76,-1335 1864.76,-1300 1682.76,-1300"/>
</g>
<!-- &#45;195032508476739127 -->
<g id="node32" class="node"><title>&#45;195032508476739127</title>
<ellipse fill="none" stroke="none" cx="2061.76" cy="-1317.5" rx="1.8" ry="1.8"/>
</g>
<!-- 3787811953714743361 -->
<g id="node33" class="node"><title>3787811953714743361</title>
<ellipse fill="none" stroke="none" cx="2151.04" cy="-1317.5" rx="1.8" ry="1.8"/>
</g>
<!-- &#45;195032508476739127&#45;&gt;3787811953714743361 -->
<g id="edge11" class="edge"><title>&#45;195032508476739127&#45;&gt;3787811953714743361</title>
<path fill="none" stroke="blue" d="M2063.62,-1317.5C2073.97,-1317.5 2124.56,-1317.5 2143.69,-1317.5"/>
<polyline fill="none" stroke="blue" points="2149.19,-1317.5 2144.19,-1317.5 "/>
</g>
<!-- label11 -->
<g id="node34" class="node"><title>label11</title>
<polygon fill="none" stroke="none" points="2814.64,-1267 2610.64,-1267 2610.64,-1224 2814.64,-1224 2814.64,-1267"/>
<polygon fill="none" stroke="none" points="2621.64,-1230.5 2621.64,-1259.5 2628.64,-1259.5 2628.64,-1230.5 2621.64,-1230.5"/>
<polygon fill="none" stroke="none" points="2630.64,-1230.5 2630.64,-1259.5 2803.64,-1259.5 2803.64,-1230.5 2630.64,-1230.5"/>
<text text-anchor="start" x="2633.35" y="-1242.32" font-family="Arial" font-size="14.00">マルコ・ポーロ 1254&#45;1324</text>
<polygon fill="none" stroke="none" points="2618.64,-1228 2618.64,-1263 2806.64,-1263 2806.64,-1228 2618.64,-1228"/>
</g>
<!-- &#45;1074009728537119822 -->
<g id="node35" class="node"><title>&#45;1074009728537119822</title>
<ellipse fill="none" stroke="none" cx="3000.64" cy="-1245.5" rx="1.8" ry="1.8"/>
</g>
<!-- 1250931371055406434 -->
<g id="node36" class="node"><title>1250931371055406434</title>
<ellipse fill="none" stroke="none" cx="3101.44" cy="-1245.5" rx="1.8" ry="1.8"/>
</g>
<!-- &#45;1074009728537119822&#45;&gt;1250931371055406434 -->
<g id="edge12" class="edge"><title>&#45;1074009728537119822&#45;&gt;1250931371055406434</title>
<path fill="none" stroke="blue" d="M3002.75,-1245.5C3014.63,-1245.5 3073.57,-1245.5 3094.25,-1245.5"/>
<polyline fill="none" stroke="blue" points="3099.35,-1245.5 3094.35,-1245.5 "/>
</g>
<!-- label12 -->
<g id="node37" class="node"><title>label12</title>
<polygon fill="none" stroke="none" points="3059.18,-1195 2844.18,-1195 2844.18,-1152 3059.18,-1152 3059.18,-1195"/>
<polygon fill="none" stroke="none" points="2855.68,-1158.5 2855.68,-1187.5 2862.68,-1187.5 2862.68,-1158.5 2855.68,-1158.5"/>
<polygon fill="none" stroke="none" points="2864.68,-1158.5 2864.68,-1187.5 3048.68,-1187.5 3048.68,-1158.5 2864.68,-1158.5"/>
<text text-anchor="start" x="2867.6" y="-1170.32" font-family="Arial" font-size="14.00">雪舟(せっしゅう) 1420&#45;1506</text>
<polygon fill="none" stroke="none" points="2852.18,-1156 2852.18,-1191 3051.18,-1191 3051.18,-1156 2852.18,-1156"/>
</g>
<!-- &#45;1161865131723348654 -->
<g id="node38" class="node"><title>&#45;1161865131723348654</title>
<ellipse fill="none" stroke="none" cx="3239.68" cy="-1173.5" rx="1.8" ry="1.8"/>
</g>
<!-- &#45;2056509894614415511 -->
<g id="node39" class="node"><title>&#45;2056509894614415511</title>
<ellipse fill="none" stroke="none" cx="3363.52" cy="-1173.5" rx="1.8" ry="1.8"/>
</g>
<!-- &#45;1161865131723348654&#45;&gt;&#45;2056509894614415511 -->
<g id="edge13" class="edge"><title>&#45;1161865131723348654&#45;&gt;&#45;2056509894614415511</title>
<path fill="none" stroke="blue" d="M3241.83,-1173.5C3255.69,-1173.5 3332.6,-1173.5 3356.46,-1173.5"/>
<polyline fill="none" stroke="blue" points="3361.69,-1173.5 3356.69,-1173.5 "/>
</g>
<!-- label13 -->
<g id="node40" class="node"><title>label13</title>
<polygon fill="none" stroke="none" points="3084.82,-1123 2907.82,-1123 2907.82,-1080 3084.82,-1080 3084.82,-1123"/>
<polygon fill="none" stroke="none" points="2919.32,-1086.5 2919.32,-1115.5 2926.32,-1115.5 2926.32,-1086.5 2919.32,-1086.5"/>
<polygon fill="none" stroke="none" points="2928.32,-1086.5 2928.32,-1115.5 3074.32,-1115.5 3074.32,-1086.5 2928.32,-1086.5"/>
<text text-anchor="start" x="2930.9" y="-1098.32" font-family="Arial" font-size="14.00">コロンブス 1451&#45;1506</text>
<polygon fill="none" stroke="none" points="2915.82,-1084 2915.82,-1119 3076.82,-1119 3076.82,-1084 2915.82,-1084"/>
</g>
<!-- 938527075002829057 -->
<g id="node41" class="node"><title>938527075002829057</title>
<ellipse fill="none" stroke="none" cx="3284.32" cy="-1101.5" rx="1.8" ry="1.8"/>
</g>
<!-- 956848437764962327 -->
<g id="node42" class="node"><title>956848437764962327</title>
<ellipse fill="none" stroke="none" cx="3363.52" cy="-1101.5" rx="1.8" ry="1.8"/>
</g>
<!-- 938527075002829057&#45;&gt;956848437764962327 -->
<g id="edge14" class="edge"><title>938527075002829057&#45;&gt;956848437764962327</title>
<path fill="none" stroke="blue" d="M3286.28,-1101.5C3295.95,-1101.5 3338.87,-1101.5 3356.21,-1101.5"/>
<polyline fill="none" stroke="blue" points="3361.63,-1101.5 3356.63,-1101.5 "/>
</g>
<!-- label14 -->
<g id="node43" class="node"><title>label14</title>
<polygon fill="none" stroke="none" points="3128.26,-1051 2867.26,-1051 2867.26,-1008 3128.26,-1008 3128.26,-1051"/>
<polygon fill="none" stroke="none" points="2878.76,-1014.5 2878.76,-1043.5 2885.76,-1043.5 2885.76,-1014.5 2878.76,-1014.5"/>
<polygon fill="none" stroke="none" points="2887.76,-1014.5 2887.76,-1043.5 3117.76,-1043.5 3117.76,-1014.5 2887.76,-1014.5"/>
<text text-anchor="start" x="2890.69" y="-1026.32" font-family="Arial" font-size="14.00">レオナルド・ダ・ビンチ 1452&#45;1519</text>
<polygon fill="none" stroke="none" points="2875.26,-1012 2875.26,-1047 3120.26,-1047 3120.26,-1012 2875.26,-1012"/>
</g>
<!-- 682564981318657424 -->
<g id="node44" class="node"><title>682564981318657424</title>
<ellipse fill="none" stroke="none" cx="3285.76" cy="-1029.5" rx="1.8" ry="1.8"/>
</g>
<!-- &#45;125467877579190694 -->
<g id="node45" class="node"><title>&#45;125467877579190694</title>
<ellipse fill="none" stroke="none" cx="3382.24" cy="-1029.5" rx="1.8" ry="1.8"/>
</g>
<!-- 682564981318657424&#45;&gt;&#45;125467877579190694 -->
<g id="edge15" class="edge"><title>682564981318657424&#45;&gt;&#45;125467877579190694</title>
<path fill="none" stroke="blue" d="M3287.78,-1029.5C3299.1,-1029.5 3355.07,-1029.5 3375.1,-1029.5"/>
<polyline fill="none" stroke="blue" points="3380.24,-1029.5 3375.24,-1029.5 "/>
</g>
<!-- label15 -->
<g id="node46" class="node"><title>label15</title>
<polygon fill="none" stroke="none" points="3165.5,-979 2890.5,-979 2890.5,-936 3165.5,-936 3165.5,-979"/>
<polygon fill="none" stroke="none" points="2902,-942.5 2902,-971.5 2909,-971.5 2909,-942.5 2902,-942.5"/>
<polygon fill="none" stroke="none" points="2911,-942.5 2911,-971.5 3155,-971.5 3155,-942.5 2911,-942.5"/>
<text text-anchor="start" x="2913.79" y="-954.32" font-family="Arial" font-size="14.00">ニコラウス・コペルニクス 1473&#45;1543</text>
<polygon fill="none" stroke="none" points="2898.5,-940 2898.5,-975 3157.5,-975 3157.5,-940 2898.5,-940"/>
</g>
<!-- &#45;842023873651846567 -->
<g id="node47" class="node"><title>&#45;842023873651846567</title>
<ellipse fill="none" stroke="none" cx="3316" cy="-957.5" rx="1.8" ry="1.8"/>
</g>
<!-- &#45;2835992438431833240 -->
<g id="node48" class="node"><title>&#45;2835992438431833240</title>
<ellipse fill="none" stroke="none" cx="3416.8" cy="-957.5" rx="1.8" ry="1.8"/>
</g>
<!-- &#45;842023873651846567&#45;&gt;&#45;2835992438431833240 -->
<g id="edge16" class="edge"><title>&#45;842023873651846567&#45;&gt;&#45;2835992438431833240</title>
<path fill="none" stroke="blue" d="M3318.11,-957.5C3329.99,-957.5 3388.93,-957.5 3409.61,-957.5"/>
<polyline fill="none" stroke="blue" points="3414.71,-957.5 3409.71,-957.5 "/>
</g>
<!-- label16 -->
<g id="node49" class="node"><title>label16</title>
<polygon fill="none" stroke="none" points="3275.54,-907 3042.54,-907 3042.54,-864 3275.54,-864 3275.54,-907"/>
<polygon fill="none" stroke="none" points="3054.04,-870.5 3054.04,-899.5 3061.04,-899.5 3061.04,-870.5 3054.04,-870.5"/>
<polygon fill="none" stroke="none" points="3063.04,-870.5 3063.04,-899.5 3265.04,-899.5 3265.04,-870.5 3063.04,-870.5"/>
<text text-anchor="start" x="3065.62" y="-882.32" font-family="Arial" font-size="14.00">ガリレオ・ガリレイ 1564&#45;1642</text>
<polygon fill="none" stroke="none" points="3050.54,-868 3050.54,-903 3267.54,-903 3267.54,-868 3050.54,-868"/>
</g>
<!-- 2419532288603033584 -->
<g id="node50" class="node"><title>2419532288603033584</title>
<ellipse fill="none" stroke="none" cx="3447.04" cy="-885.5" rx="1.8" ry="1.8"/>
</g>
<!-- &#45;1253319248007830638 -->
<g id="node51" class="node"><title>&#45;1253319248007830638</title>
<ellipse fill="none" stroke="none" cx="3559.36" cy="-885.5" rx="1.8" ry="1.8"/>
</g>
<!-- 2419532288603033584&#45;&gt;&#45;1253319248007830638 -->
<g id="edge17" class="edge"><title>2419532288603033584&#45;&gt;&#45;1253319248007830638</title>
<path fill="none" stroke="blue" d="M3448.99,-885.5C3461.4,-885.5 3529.55,-885.5 3552.11,-885.5"/>
<polyline fill="none" stroke="blue" points="3557.36,-885.5 3552.36,-885.5 "/>
</g>
<!-- label17 -->
<g id="node52" class="node"><title>label17</title>
<polygon fill="none" stroke="none" points="3285.62,-835 3052.62,-835 3052.62,-792 3285.62,-792 3285.62,-835"/>
<polygon fill="none" stroke="none" points="3064.12,-798.5 3064.12,-827.5 3071.12,-827.5 3071.12,-798.5 3064.12,-798.5"/>
<polygon fill="none" stroke="none" points="3073.12,-798.5 3073.12,-827.5 3275.12,-827.5 3275.12,-798.5 3073.12,-798.5"/>
<text text-anchor="start" x="3075.7" y="-810.32" font-family="Arial" font-size="14.00">ヨハネス・ケプラー 1571&#45;1630</text>
<polygon fill="none" stroke="none" points="3060.62,-796 3060.62,-831 3277.62,-831 3277.62,-796 3060.62,-796"/>
</g>
<!-- 1871396875978529217 -->
<g id="node53" class="node"><title>1871396875978529217</title>
<ellipse fill="none" stroke="none" cx="3457.12" cy="-813.5" rx="1.8" ry="1.8"/>
</g>
<!-- 750885767811250120 -->
<g id="node54" class="node"><title>750885767811250120</title>
<ellipse fill="none" stroke="none" cx="3542.08" cy="-813.5" rx="1.8" ry="1.8"/>
</g>
<!-- 1871396875978529217&#45;&gt;750885767811250120 -->
<g id="edge18" class="edge"><title>1871396875978529217&#45;&gt;750885767811250120</title>
<path fill="none" stroke="blue" d="M3459.22,-813.5C3469.69,-813.5 3516.46,-813.5 3534.73,-813.5"/>
<polyline fill="none" stroke="blue" points="3540.05,-813.5 3535.05,-813.5 "/>
</g>
<!-- label18 -->
<g id="node55" class="node"><title>label18</title>
<polygon fill="none" stroke="none" points="3400.86,-763 3141.86,-763 3141.86,-720 3400.86,-720 3400.86,-763"/>
<polygon fill="none" stroke="none" points="3153.36,-726.5 3153.36,-755.5 3160.36,-755.5 3160.36,-726.5 3153.36,-726.5"/>
<polygon fill="none" stroke="none" points="3162.36,-726.5 3162.36,-755.5 3390.36,-755.5 3390.36,-726.5 3162.36,-726.5"/>
<text text-anchor="start" x="3165.2" y="-738.32" font-family="Arial" font-size="14.00">アイザック・ニュートン 1642&#45;1727</text>
<polygon fill="none" stroke="none" points="3149.86,-724 3149.86,-759 3392.86,-759 3392.86,-724 3149.86,-724"/>
</g>
<!-- &#45;1521911052571236031 -->
<g id="node56" class="node"><title>&#45;1521911052571236031</title>
<ellipse fill="none" stroke="none" cx="3559.36" cy="-741.5" rx="1.8" ry="1.8"/>
</g>
<!-- 2407174196071532243 -->
<g id="node57" class="node"><title>2407174196071532243</title>
<ellipse fill="none" stroke="none" cx="3681.76" cy="-741.5" rx="1.8" ry="1.8"/>
</g>
<!-- &#45;1521911052571236031&#45;&gt;2407174196071532243 -->
<g id="edge19" class="edge"><title>&#45;1521911052571236031&#45;&gt;2407174196071532243</title>
<path fill="none" stroke="blue" d="M3561.48,-741.5C3575.18,-741.5 3651.2,-741.5 3674.78,-741.5"/>
<polyline fill="none" stroke="blue" points="3679.95,-741.5 3674.95,-741.5 "/>
</g>
<!-- label19 -->
<g id="node58" class="node"><title>label19</title>
<polygon fill="none" stroke="none" points="3539.1,-691 3280.1,-691 3280.1,-648 3539.1,-648 3539.1,-691"/>
<polygon fill="none" stroke="none" points="3291.6,-654.5 3291.6,-683.5 3298.6,-683.5 3298.6,-654.5 3291.6,-654.5"/>
<polygon fill="none" stroke="none" points="3300.6,-654.5 3300.6,-683.5 3528.6,-683.5 3528.6,-654.5 3300.6,-654.5"/>
<text text-anchor="start" x="3303.23" y="-666.32" font-family="Arial" font-size="14.00">ウィリアム・ハーシェル 1738&#45;1822</text>
<polygon fill="none" stroke="none" points="3288.1,-652 3288.1,-687 3531.1,-687 3531.1,-652 3288.1,-652"/>
</g>
<!-- &#45;897613764764623810 -->
<g id="node59" class="node"><title>&#45;897613764764623810</title>
<ellipse fill="none" stroke="none" cx="3697.6" cy="-669.5" rx="1.8" ry="1.8"/>
</g>
<!-- &#45;4026397893424502338 -->
<g id="node60" class="node"><title>&#45;4026397893424502338</title>
<ellipse fill="none" stroke="none" cx="3818.56" cy="-669.5" rx="1.8" ry="1.8"/>
</g>
<!-- &#45;897613764764623810&#45;&gt;&#45;4026397893424502338 -->
<g id="edge20" class="edge"><title>&#45;897613764764623810&#45;&gt;&#45;4026397893424502338</title>
<path fill="none" stroke="blue" d="M3699.7,-669.5C3713.18,-669.5 3787.72,-669.5 3811.36,-669.5"/>
<polyline fill="none" stroke="blue" points="3816.4,-669.5 3811.4,-669.5 "/>
</g>
<!-- label20 -->
<g id="node61" class="node"><title>label20</title>
<polygon fill="none" stroke="none" points="3557.38,-619 3296.38,-619 3296.38,-576 3557.38,-576 3557.38,-619"/>
<polygon fill="none" stroke="none" points="3307.88,-582.5 3307.88,-611.5 3314.88,-611.5 3314.88,-582.5 3307.88,-582.5"/>
<polygon fill="none" stroke="none" points="3316.88,-582.5 3316.88,-611.5 3546.88,-611.5 3546.88,-582.5 3316.88,-582.5"/>
<text text-anchor="start" x="3319.74" y="-594.32" font-family="Arial" font-size="14.00">カロライン・ハーシェル 1750&#45;1848</text>
<polygon fill="none" stroke="none" points="3304.38,-580 3304.38,-615 3549.38,-615 3549.38,-580 3304.38,-580"/>
</g>
<!-- &#45;42352207530348105 -->
<g id="node62" class="node"><title>&#45;42352207530348105</title>
<ellipse fill="none" stroke="none" cx="3714.88" cy="-597.5" rx="1.8" ry="1.8"/>
</g>
<!-- 535799068035751577 -->
<g id="node63" class="node"><title>535799068035751577</title>
<ellipse fill="none" stroke="none" cx="3856" cy="-597.5" rx="1.8" ry="1.8"/>
</g>
<!-- &#45;42352207530348105&#45;&gt;535799068035751577 -->
<g id="edge21" class="edge"><title>&#45;42352207530348105&#45;&gt;535799068035751577</title>
<path fill="none" stroke="blue" d="M3716.87,-597.5C3731.51,-597.5 3822.5,-597.5 3848.86,-597.5"/>
<polyline fill="none" stroke="blue" points="3853.87,-597.5 3848.87,-597.5 "/>
</g>
<!-- label21 -->
<g id="node64" class="node"><title>label21</title>
<polygon fill="none" stroke="none" points="3651.16,-547 3309.16,-547 3309.16,-504 3651.16,-504 3651.16,-547"/>
<polygon fill="none" stroke="none" points="3320.16,-510.5 3320.16,-539.5 3327.16,-539.5 3327.16,-510.5 3320.16,-510.5"/>
<polygon fill="none" stroke="none" points="3329.16,-510.5 3329.16,-539.5 3640.16,-539.5 3640.16,-510.5 3329.16,-510.5"/>
<text text-anchor="start" x="3331.71" y="-522.32" font-family="Arial" font-size="14.00">ヨセフ・フォン・フラウンホーファー 1787&#45;1826</text>
<polygon fill="none" stroke="none" points="3317.16,-508 3317.16,-543 3643.16,-543 3643.16,-508 3317.16,-508"/>
</g>
<!-- 1239399713162027366 -->
<g id="node65" class="node"><title>1239399713162027366</title>
<ellipse fill="none" stroke="none" cx="3768.16" cy="-525.5" rx="1.8" ry="1.8"/>
</g>
<!-- 3293754436058580640 -->
<g id="node66" class="node"><title>3293754436058580640</title>
<ellipse fill="none" stroke="none" cx="3824.32" cy="-525.5" rx="1.8" ry="1.8"/>
</g>
<!-- 1239399713162027366&#45;&gt;3293754436058580640 -->
<g id="edge22" class="edge"><title>1239399713162027366&#45;&gt;3293754436058580640</title>
<path fill="none" stroke="blue" d="M3770.03,-525.5C3777.36,-525.5 3804.36,-525.5 3817.31,-525.5"/>
<polyline fill="none" stroke="blue" points="3822.39,-525.5 3817.39,-525.5 "/>
</g>
<!-- label22 -->
<g id="node67" class="node"><title>label22</title>
<polygon fill="none" stroke="none" points="3603.36,-475 3371.36,-475 3371.36,-432 3603.36,-432 3603.36,-475"/>
<polygon fill="none" stroke="none" points="3382.36,-438.5 3382.36,-467.5 3389.36,-467.5 3389.36,-438.5 3382.36,-438.5"/>
<polygon fill="none" stroke="none" points="3391.36,-438.5 3391.36,-467.5 3592.36,-467.5 3592.36,-438.5 3391.36,-438.5"/>
<text text-anchor="start" x="3393.93" y="-450.32" font-family="Arial" font-size="14.00">ジョン・ハーシェル 1792&#45;1871</text>
<polygon fill="none" stroke="none" points="3379.36,-436 3379.36,-471 3595.36,-471 3595.36,-436 3379.36,-436"/>
</g>
<!-- 2367941721767389577 -->
<g id="node68" class="node"><title>2367941721767389577</title>
<ellipse fill="none" stroke="none" cx="3775.36" cy="-453.5" rx="1.8" ry="1.8"/>
</g>
<!-- &#45;2762109035913449032 -->
<g id="node69" class="node"><title>&#45;2762109035913449032</title>
<ellipse fill="none" stroke="none" cx="3889.12" cy="-453.5" rx="1.8" ry="1.8"/>
</g>
<!-- 2367941721767389577&#45;&gt;&#45;2762109035913449032 -->
<g id="edge23" class="edge"><title>2367941721767389577&#45;&gt;&#45;2762109035913449032</title>
<path fill="none" stroke="blue" d="M3777.33,-453.5C3789.96,-453.5 3859.52,-453.5 3882.07,-453.5"/>
<polyline fill="none" stroke="blue" points="3887.09,-453.5 3882.09,-453.5 "/>
</g>
<!-- label23 -->
<g id="node70" class="node"><title>label23</title>
<polygon fill="none" stroke="none" points="3668.2,-403 3338.2,-403 3338.2,-360 3668.2,-360 3668.2,-403"/>
<polygon fill="none" stroke="none" points="3349.2,-366.5 3349.2,-395.5 3356.2,-395.5 3356.2,-366.5 3349.2,-366.5"/>
<polygon fill="none" stroke="none" points="3358.2,-366.5 3358.2,-395.5 3657.2,-395.5 3657.2,-366.5 3358.2,-366.5"/>
<text text-anchor="start" x="3361.19" y="-378.32" font-family="Arial" font-size="14.00">ヨハン・クリスチャン・ドップラー 1803&#45;1853</text>
<polygon fill="none" stroke="none" points="3346.2,-364 3346.2,-399 3660.2,-399 3660.2,-364 3346.2,-364"/>
</g>
<!-- &#45;1410528586953780068 -->
<g id="node71" class="node"><title>&#45;1410528586953780068</title>
<ellipse fill="none" stroke="none" cx="3791.2" cy="-381.5" rx="1.8" ry="1.8"/>
</g>
<!-- 3356257455482351353 -->
<g id="node72" class="node"><title>3356257455482351353</title>
<ellipse fill="none" stroke="none" cx="3863.2" cy="-381.5" rx="1.8" ry="1.8"/>
</g>
<!-- &#45;1410528586953780068&#45;&gt;3356257455482351353 -->
<g id="edge24" class="edge"><title>&#45;1410528586953780068&#45;&gt;3356257455482351353</title>
<path fill="none" stroke="blue" d="M3793.28,-381.5C3802.48,-381.5 3839.8,-381.5 3855.83,-381.5"/>
<polyline fill="none" stroke="blue" points="3861.25,-381.5 3856.25,-381.5 "/>
</g>
<!-- label24 -->
<g id="node73" class="node"><title>label24</title>
<polygon fill="none" stroke="none" points="3594.78,-331 3431.78,-331 3431.78,-288 3594.78,-288 3594.78,-331"/>
<polygon fill="none" stroke="none" points="3443.28,-294.5 3443.28,-323.5 3450.28,-323.5 3450.28,-294.5 3443.28,-294.5"/>
<polygon fill="none" stroke="none" points="3452.28,-294.5 3452.28,-323.5 3584.28,-323.5 3584.28,-294.5 3452.28,-294.5"/>
<text text-anchor="start" x="3454.86" y="-306.32" font-family="Arial" font-size="14.00">ショパン 1810&#45;1849</text>
<polygon fill="none" stroke="none" points="3439.78,-292 3439.78,-327 3586.78,-327 3586.78,-292 3439.78,-292"/>
</g>
<!-- 4496421591852165154 -->
<g id="node74" class="node"><title>4496421591852165154</title>
<ellipse fill="none" stroke="none" cx="3801.28" cy="-309.5" rx="1.8" ry="1.8"/>
</g>
<!-- 4488029346873948185 -->
<g id="node75" class="node"><title>4488029346873948185</title>
<ellipse fill="none" stroke="none" cx="3857.44" cy="-309.5" rx="1.8" ry="1.8"/>
</g>
<!-- 4496421591852165154&#45;&gt;4488029346873948185 -->
<g id="edge25" class="edge"><title>4496421591852165154&#45;&gt;4488029346873948185</title>
<path fill="none" stroke="blue" d="M3803.15,-309.5C3810.48,-309.5 3837.48,-309.5 3850.43,-309.5"/>
<polyline fill="none" stroke="blue" points="3855.51,-309.5 3850.51,-309.5 "/>
</g>
<!-- label25 -->
<g id="node76" class="node"><title>label25</title>
<polygon fill="none" stroke="none" points="3672.76,-259 3402.76,-259 3402.76,-216 3672.76,-216 3672.76,-259"/>
<polygon fill="none" stroke="none" points="3413.76,-222.5 3413.76,-251.5 3420.76,-251.5 3420.76,-222.5 3413.76,-222.5"/>
<polygon fill="none" stroke="none" points="3422.76,-222.5 3422.76,-251.5 3661.76,-251.5 3661.76,-222.5 3422.76,-222.5"/>
<text text-anchor="start" x="3425.39" y="-234.32" font-family="Arial" font-size="14.00">ジョン万次郎(まんじろう) 1827&#45;1898</text>
<polygon fill="none" stroke="none" points="3410.76,-220 3410.76,-255 3664.76,-255 3664.76,-220 3410.76,-220"/>
</g>
<!-- 1816943003242692481 -->
<g id="node77" class="node"><title>1816943003242692481</title>
<ellipse fill="none" stroke="none" cx="3825.76" cy="-237.5" rx="1.8" ry="1.8"/>
</g>
<!-- &#45;4443705148013813798 -->
<g id="node78" class="node"><title>&#45;4443705148013813798</title>
<ellipse fill="none" stroke="none" cx="3928" cy="-237.5" rx="1.8" ry="1.8"/>
</g>
<!-- 1816943003242692481&#45;&gt;&#45;4443705148013813798 -->
<g id="edge26" class="edge"><title>1816943003242692481&#45;&gt;&#45;4443705148013813798</title>
<path fill="none" stroke="blue" d="M3827.9,-237.5C3839.95,-237.5 3899.73,-237.5 3920.71,-237.5"/>
<polyline fill="none" stroke="blue" points="3925.88,-237.5 3920.88,-237.5 "/>
</g>
<!-- label26 -->
<g id="node79" class="node"><title>label26</title>
<polygon fill="none" stroke="none" points="3649.7,-187 3500.7,-187 3500.7,-144 3649.7,-144 3649.7,-187"/>
<polygon fill="none" stroke="none" points="3512.2,-150.5 3512.2,-179.5 3519.2,-179.5 3519.2,-150.5 3512.2,-150.5"/>
<polygon fill="none" stroke="none" points="3521.2,-150.5 3521.2,-179.5 3639.2,-179.5 3639.2,-150.5 3521.2,-150.5"/>
<text text-anchor="start" x="3524.06" y="-162.32" font-family="Arial" font-size="14.00">ゴッホ 1853&#45;1890</text>
<polygon fill="none" stroke="none" points="3508.7,-148 3508.7,-183 3641.7,-183 3641.7,-148 3508.7,-148"/>
</g>
<!-- &#45;3085358621741123672 -->
<g id="node80" class="node"><title>&#45;3085358621741123672</title>
<ellipse fill="none" stroke="none" cx="3863.2" cy="-165.5" rx="1.8" ry="1.8"/>
</g>
<!-- 1588467370769256824 -->
<g id="node81" class="node"><title>1588467370769256824</title>
<ellipse fill="none" stroke="none" cx="3916.48" cy="-165.5" rx="1.8" ry="1.8"/>
</g>
<!-- &#45;3085358621741123672&#45;&gt;1588467370769256824 -->
<g id="edge27" class="edge"><title>&#45;3085358621741123672&#45;&gt;1588467370769256824</title>
<path fill="none" stroke="blue" d="M3865.49,-165.5C3872.95,-165.5 3896.8,-165.5 3909.06,-165.5"/>
<polyline fill="none" stroke="blue" points="3914.26,-165.5 3909.26,-165.5 "/>
</g>
<!-- label27 -->
<g id="node82" class="node"><title>label27</title>
<polygon fill="none" stroke="none" points="3721.64,-115 3503.64,-115 3503.64,-72 3721.64,-72 3721.64,-115"/>
<polygon fill="none" stroke="none" points="3514.64,-78.5 3514.64,-107.5 3521.64,-107.5 3521.64,-78.5 3514.64,-78.5"/>
<polygon fill="none" stroke="none" points="3523.64,-78.5 3523.64,-107.5 3710.64,-107.5 3710.64,-78.5 3523.64,-78.5"/>
<text text-anchor="start" x="3526.28" y="-90.3203" font-family="Arial" font-size="14.00">アインシュタイン 1879&#45;1955</text>
<polygon fill="none" stroke="none" points="3511.64,-76 3511.64,-111 3713.64,-111 3713.64,-76 3511.64,-76"/>
</g>
<!-- &#45;1726069808985368515 -->
<g id="node83" class="node"><title>&#45;1726069808985368515</title>
<ellipse fill="none" stroke="none" cx="3900.64" cy="-93.5" rx="1.8" ry="1.8"/>
</g>
<!-- &#45;2236141532579136838 -->
<g id="node84" class="node"><title>&#45;2236141532579136838</title>
<ellipse fill="none" stroke="none" cx="4010.08" cy="-93.5" rx="1.8" ry="1.8"/>
</g>
<!-- &#45;1726069808985368515&#45;&gt;&#45;2236141532579136838 -->
<g id="edge28" class="edge"><title>&#45;1726069808985368515&#45;&gt;&#45;2236141532579136838</title>
<path fill="none" stroke="blue" d="M3902.54,-93.5C3914.63,-93.5 3981.03,-93.5 4003.01,-93.5"/>
<polyline fill="none" stroke="blue" points="4008.13,-93.5 4003.13,-93.5001 "/>
</g>
<!-- label28 -->
<g id="node85" class="node"><title>label28</title>
<polygon fill="none" stroke="none" points="3708.04,-43 3546.04,-43 3546.04,-0 3708.04,-0 3708.04,-43"/>
<polygon fill="none" stroke="none" points="3557.04,-6.5 3557.04,-35.5 3564.04,-35.5 3564.04,-6.5 3557.04,-6.5"/>
<polygon fill="none" stroke="none" points="3566.04,-6.5 3566.04,-35.5 3697.04,-35.5 3697.04,-6.5 3566.04,-6.5"/>
<text text-anchor="start" x="3568.75" y="-18.3203" font-family="Arial" font-size="14.00">ハッブル 1889&#45;1953</text>
<polygon fill="none" stroke="none" points="3554.04,-4 3554.04,-39 3700.04,-39 3700.04,-4 3554.04,-4"/>
</g>
<!-- &#45;923412346658341411 -->
<g id="node86" class="node"><title>&#45;923412346658341411</title>
<ellipse fill="none" stroke="none" cx="3915.04" cy="-21.5" rx="1.8" ry="1.8"/>
</g>
<!-- &#45;2380483849168355161 -->
<g id="node87" class="node"><title>&#45;2380483849168355161</title>
<ellipse fill="none" stroke="none" cx="4007.2" cy="-21.5" rx="1.8" ry="1.8"/>
</g>
<!-- &#45;923412346658341411&#45;&gt;&#45;2380483849168355161 -->
<g id="edge29" class="edge"><title>&#45;923412346658341411&#45;&gt;&#45;2380483849168355161</title>
<path fill="none" stroke="blue" d="M3916.96,-21.5C3927.74,-21.5 3980.79,-21.5 4000.13,-21.5"/>
<polyline fill="none" stroke="blue" points="4005.29,-21.5 4000.29,-21.5001 "/>
</g>
</g>
</svg>
