<?xml version="1.0" encoding="UTF-8" standalone="no"?>
<!DOCTYPE svg PUBLIC "-//W3C//DTD SVG 1.1//EN"
 "http://www.w3.org/Graphics/SVG/1.1/DTD/svg11.dtd">
<!-- Generated by graphviz version 2.34.0 (20140129.0153)
 -->
<!-- Title: G Pages: 1 -->
<svg width="4020pt" height="3109pt"
 viewBox="0.00 0.00 4019.88 3109.00" xmlns="http://www.w3.org/2000/svg" xmlns:xlink="http://www.w3.org/1999/xlink">
<g id="graph0" class="graph" transform="scale(1 1) rotate(0) translate(4 3105)">
<title>G</title>
<polygon fill="white" stroke="white" points="-4,4 -4,-3105 4015.88,-3105 4015.88,4 -4,4"/>
<!-- label0 -->
<g id="node1" class="node"><title>label0</title>
<polygon fill="none" stroke="none" points="224,-3101 1.42109e-14,-3101 1.42109e-14,-2990 224,-2990 224,-3101"/>
<polygon fill="none" stroke="none" points="11,-2996.5 11,-3093.5 62,-3093.5 62,-2996.5 11,-2996.5"/>
<image xlink:href="./images/Confucius_02.png" width="33.5563px" height="68.25px" preserveAspectRatio="xMinYMin meet" x="19.7219" y="-3079.12"/>
<polygon fill="none" stroke="none" points="64,-2996.5 64,-3093.5 213,-3093.5 213,-2996.5 64,-2996.5"/>
<text text-anchor="start" x="66.8915" y="-3042.32" font-family="Arial" font-size="14.00">孔子(こうし) &#45;552&#45;&#45;479</text>
<polygon fill="none" stroke="none" points="8,-2994 8,-3097 216,-3097 216,-2994 8,-2994"/>
</g>
<!-- 1204216397028626738 -->
<g id="node2" class="node"><title>1204216397028626738</title>
<ellipse fill="none" stroke="none" cx="400" cy="-3045.5" rx="1.8" ry="1.8"/>
</g>
<!-- &#45;2621017153572706653 -->
<g id="node3" class="node"><title>&#45;2621017153572706653</title>
<ellipse fill="none" stroke="none" cx="505.12" cy="-3045.5" rx="1.8" ry="1.8"/>
</g>
<!-- 1204216397028626738&#45;&gt;&#45;2621017153572706653 -->
<g id="edge1" class="edge"><title>1204216397028626738&#45;&gt;&#45;2621017153572706653</title>
<path fill="none" stroke="blue" d="M401.825,-3045.5C413.388,-3045.5 476.675,-3045.5 498.058,-3045.5"/>
<polyline fill="none" stroke="blue" points="503.245,-3045.5 498.245,-3045.5 "/>
</g>
<!-- label1 -->
<g id="node4" class="node"><title>label1</title>
<polygon fill="none" stroke="none" points="351.02,-2993 112.02,-2993 112.02,-2882 351.02,-2882 351.02,-2993"/>
<polygon fill="none" stroke="none" points="123.52,-2888.5 123.52,-2985.5 199.52,-2985.5 199.52,-2888.5 123.52,-2888.5"/>
<image xlink:href="./images/Socrate.jpg" width="52.325px" height="68.25px" preserveAspectRatio="xMinYMin meet" x="135.357" y="-2971.12"/>
<polygon fill="none" stroke="none" points="201.52,-2888.5 201.52,-2985.5 340.52,-2985.5 340.52,-2888.5 201.52,-2888.5"/>
<text text-anchor="start" x="204.074" y="-2934.32" font-family="Arial" font-size="14.00">ソクラテス &#45;469&#45;&#45;399</text>
<polygon fill="none" stroke="none" points="120.02,-2886 120.02,-2989 343.02,-2989 343.02,-2886 120.02,-2886"/>
</g>
<!-- &#45;36737212456684611 -->
<g id="node5" class="node"><title>&#45;36737212456684611</title>
<ellipse fill="none" stroke="none" cx="519.52" cy="-2937.5" rx="1.8" ry="1.8"/>
</g>
<!-- &#45;3655532366447656076 -->
<g id="node6" class="node"><title>&#45;3655532366447656076</title>
<ellipse fill="none" stroke="none" cx="620.32" cy="-2937.5" rx="1.8" ry="1.8"/>
</g>
<!-- &#45;36737212456684611&#45;&gt;&#45;3655532366447656076 -->
<g id="edge2" class="edge"><title>&#45;36737212456684611&#45;&gt;&#45;3655532366447656076</title>
<path fill="none" stroke="blue" d="M521.625,-2937.5C533.514,-2937.5 592.446,-2937.5 613.129,-2937.5"/>
<polyline fill="none" stroke="blue" points="618.226,-2937.5 613.226,-2937.5 "/>
</g>
<!-- label2 -->
<g id="node7" class="node"><title>label2</title>
<polygon fill="none" stroke="none" points="311.66,-2851 168.66,-2851 168.66,-2808 311.66,-2808 311.66,-2851"/>
<polygon fill="none" stroke="none" points="180.16,-2814.5 180.16,-2843.5 187.16,-2843.5 187.16,-2814.5 180.16,-2814.5"/>
<polygon fill="none" stroke="none" points="189.16,-2814.5 189.16,-2843.5 301.16,-2843.5 301.16,-2814.5 189.16,-2814.5"/>
<text text-anchor="start" x="191.864" y="-2826.32" font-family="Arial" font-size="14.00">シャカ &#45;463&#45;&#45;383</text>
<polygon fill="none" stroke="none" points="176.66,-2812 176.66,-2847 303.66,-2847 303.66,-2812 176.66,-2812"/>
</g>
<!-- &#45;3052100043249940975 -->
<g id="node8" class="node"><title>&#45;3052100043249940975</title>
<ellipse fill="none" stroke="none" cx="528.16" cy="-2829.5" rx="1.8" ry="1.8"/>
</g>
<!-- 1761085906170926197 -->
<g id="node9" class="node"><title>1761085906170926197</title>
<ellipse fill="none" stroke="none" cx="643.36" cy="-2829.5" rx="1.8" ry="1.8"/>
</g>
<!-- &#45;3052100043249940975&#45;&gt;1761085906170926197 -->
<g id="edge3" class="edge"><title>&#45;3052100043249940975&#45;&gt;1761085906170926197</title>
<path fill="none" stroke="blue" d="M530.16,-2829.5C542.941,-2829.5 613.387,-2829.5 636.216,-2829.5"/>
<polyline fill="none" stroke="blue" points="641.305,-2829.5 636.305,-2829.5 "/>
</g>
<!-- label3 -->
<g id="node10" class="node"><title>label3</title>
<polygon fill="none" stroke="none" points="370.5,-2743 213.5,-2743 213.5,-2700 370.5,-2700 370.5,-2743"/>
<polygon fill="none" stroke="none" points="225,-2706.5 225,-2735.5 232,-2735.5 232,-2706.5 225,-2706.5"/>
<polygon fill="none" stroke="none" points="234,-2706.5 234,-2735.5 360,-2735.5 360,-2706.5 234,-2706.5"/>
<text text-anchor="start" x="236.914" y="-2718.32" font-family="Arial" font-size="14.00">プラトン &#45;427&#45;&#45;347</text>
<polygon fill="none" stroke="none" points="221.5,-2704 221.5,-2739 362.5,-2739 362.5,-2704 221.5,-2704"/>
</g>
<!-- &#45;372080554213562382 -->
<g id="node11" class="node"><title>&#45;372080554213562382</title>
<ellipse fill="none" stroke="none" cx="580" cy="-2721.5" rx="1.8" ry="1.8"/>
</g>
<!-- &#45;1554962682799967387 -->
<g id="node12" class="node"><title>&#45;1554962682799967387</title>
<ellipse fill="none" stroke="none" cx="695.2" cy="-2721.5" rx="1.8" ry="1.8"/>
</g>
<!-- &#45;372080554213562382&#45;&gt;&#45;1554962682799967387 -->
<g id="edge4" class="edge"><title>&#45;372080554213562382&#45;&gt;&#45;1554962682799967387</title>
<path fill="none" stroke="blue" d="M582,-2721.5C594.781,-2721.5 665.227,-2721.5 688.057,-2721.5"/>
<polyline fill="none" stroke="blue" points="693.145,-2721.5 688.145,-2721.5 "/>
</g>
<!-- label4 -->
<g id="node13" class="node"><title>label4</title>
<polygon fill="none" stroke="none" points="452.92,-2635 254.92,-2635 254.92,-2592 452.92,-2592 452.92,-2635"/>
<polygon fill="none" stroke="none" points="265.92,-2598.5 265.92,-2627.5 272.92,-2627.5 272.92,-2598.5 265.92,-2598.5"/>
<polygon fill="none" stroke="none" points="274.92,-2598.5 274.92,-2627.5 441.92,-2627.5 441.92,-2598.5 274.92,-2598.5"/>
<text text-anchor="start" x="277.754" y="-2610.32" font-family="Arial" font-size="14.00">アリストテレス &#45;384&#45;&#45;322</text>
<polygon fill="none" stroke="none" points="262.92,-2596 262.92,-2631 444.92,-2631 444.92,-2596 262.92,-2596"/>
</g>
<!-- &#45;4494305952670065168 -->
<g id="node14" class="node"><title>&#45;4494305952670065168</title>
<ellipse fill="none" stroke="none" cx="641.92" cy="-2613.5" rx="1.8" ry="1.8"/>
</g>
<!-- 3754008210482605081 -->
<g id="node15" class="node"><title>3754008210482605081</title>
<ellipse fill="none" stroke="none" cx="731.2" cy="-2613.5" rx="1.8" ry="1.8"/>
</g>
<!-- &#45;4494305952670065168&#45;&gt;3754008210482605081 -->
<g id="edge5" class="edge"><title>&#45;4494305952670065168&#45;&gt;3754008210482605081</title>
<path fill="none" stroke="blue" d="M643.785,-2613.5C654.133,-2613.5 704.724,-2613.5 723.854,-2613.5"/>
<polyline fill="none" stroke="blue" points="729.346,-2613.5 724.346,-2613.5 "/>
</g>
<!-- label5 -->
<g id="node16" class="node"><title>label5</title>
<polygon fill="none" stroke="none" points="585.1,-2527 402.1,-2527 402.1,-2484 585.1,-2484 585.1,-2527"/>
<polygon fill="none" stroke="none" points="413.6,-2490.5 413.6,-2519.5 420.6,-2519.5 420.6,-2490.5 413.6,-2490.5"/>
<polygon fill="none" stroke="none" points="422.6,-2490.5 422.6,-2519.5 574.6,-2519.5 574.6,-2490.5 422.6,-2490.5"/>
<text text-anchor="start" x="425.144" y="-2502.32" font-family="Arial" font-size="14.00">アルキメデス &#45;287&#45;&#45;212</text>
<polygon fill="none" stroke="none" points="410.1,-2488 410.1,-2523 577.1,-2523 577.1,-2488 410.1,-2488"/>
</g>
<!-- 3465026067919882070 -->
<g id="node17" class="node"><title>3465026067919882070</title>
<ellipse fill="none" stroke="none" cx="781.6" cy="-2505.5" rx="1.8" ry="1.8"/>
</g>
<!-- &#45;1036754253548811551 -->
<g id="node18" class="node"><title>&#45;1036754253548811551</title>
<ellipse fill="none" stroke="none" cx="889.6" cy="-2505.5" rx="1.8" ry="1.8"/>
</g>
<!-- 3465026067919882070&#45;&gt;&#45;1036754253548811551 -->
<g id="edge6" class="edge"><title>3465026067919882070&#45;&gt;&#45;1036754253548811551</title>
<path fill="none" stroke="blue" d="M783.474,-2505.5C795.406,-2505.5 860.937,-2505.5 882.626,-2505.5"/>
<polyline fill="none" stroke="blue" points="887.674,-2505.5 882.674,-2505.5 "/>
</g>
<!-- label6 -->
<g id="node19" class="node"><title>label6</title>
<polygon fill="none" stroke="none" points="725.78,-2419 540.78,-2419 540.78,-2376 725.78,-2376 725.78,-2419"/>
<polygon fill="none" stroke="none" points="552.28,-2382.5 552.28,-2411.5 559.28,-2411.5 559.28,-2382.5 552.28,-2382.5"/>
<polygon fill="none" stroke="none" points="561.28,-2382.5 561.28,-2411.5 715.28,-2411.5 715.28,-2382.5 561.28,-2382.5"/>
<text text-anchor="start" x="563.984" y="-2394.32" font-family="Arial" font-size="14.00">ヒッパルコス &#45;190&#45;&#45;125</text>
<polygon fill="none" stroke="none" points="548.78,-2380 548.78,-2415 717.78,-2415 717.78,-2380 548.78,-2380"/>
</g>
<!-- 1251221655003565238 -->
<g id="node20" class="node"><title>1251221655003565238</title>
<ellipse fill="none" stroke="none" cx="921.28" cy="-2397.5" rx="1.8" ry="1.8"/>
</g>
<!-- &#45;687005226366727280 -->
<g id="node21" class="node"><title>&#45;687005226366727280</title>
<ellipse fill="none" stroke="none" cx="1014.88" cy="-2397.5" rx="1.8" ry="1.8"/>
</g>
<!-- 1251221655003565238&#45;&gt;&#45;687005226366727280 -->
<g id="edge7" class="edge"><title>1251221655003565238&#45;&gt;&#45;687005226366727280</title>
<path fill="none" stroke="blue" d="M923.235,-2397.5C934.179,-2397.5 988.056,-2397.5 1007.7,-2397.5"/>
<polyline fill="none" stroke="blue" points="1012.94,-2397.5 1007.94,-2397.5 "/>
</g>
<!-- label7 -->
<g id="node22" class="node"><title>label7</title>
<polygon fill="none" stroke="none" points="993.12,-2311 809.12,-2311 809.12,-2268 993.12,-2268 993.12,-2311"/>
<polygon fill="none" stroke="none" points="820.12,-2274.5 820.12,-2303.5 827.12,-2303.5 827.12,-2274.5 820.12,-2274.5"/>
<polygon fill="none" stroke="none" points="829.12,-2274.5 829.12,-2303.5 982.12,-2303.5 982.12,-2274.5 829.12,-2274.5"/>
<text text-anchor="start" x="831.824" y="-2286.32" font-family="Arial" font-size="14.00">イエス・キリスト &#45;4&#45;30</text>
<polygon fill="none" stroke="none" points="817.12,-2272 817.12,-2307 985.12,-2307 985.12,-2272 817.12,-2272"/>
</g>
<!-- 2306465607105136272 -->
<g id="node23" class="node"><title>2306465607105136272</title>
<ellipse fill="none" stroke="none" cx="1189.12" cy="-2289.5" rx="1.8" ry="1.8"/>
</g>
<!-- 2680855796285761310 -->
<g id="node24" class="node"><title>2680855796285761310</title>
<ellipse fill="none" stroke="none" cx="1238.08" cy="-2289.5" rx="1.8" ry="1.8"/>
</g>
<!-- 2306465607105136272&#45;&gt;2680855796285761310 -->
<g id="edge8" class="edge"><title>2306465607105136272&#45;&gt;2680855796285761310</title>
<path fill="none" stroke="blue" d="M1191.22,-2289.5C1198.02,-2289.5 1219.6,-2289.5 1230.94,-2289.5"/>
<polyline fill="none" stroke="blue" points="1236.04,-2289.5 1231.04,-2289.5 "/>
</g>
<!-- label8 -->
<g id="node25" class="node"><title>label8</title>
<polygon fill="none" stroke="none" points="1116.4,-2203 936.4,-2203 936.4,-2160 1116.4,-2160 1116.4,-2203"/>
<polygon fill="none" stroke="none" points="947.4,-2166.5 947.4,-2195.5 954.4,-2195.5 954.4,-2166.5 947.4,-2166.5"/>
<polygon fill="none" stroke="none" points="956.4,-2166.5 956.4,-2195.5 1105.4,-2195.5 1105.4,-2166.5 956.4,-2166.5"/>
<text text-anchor="start" x="958.929" y="-2178.32" font-family="Arial" font-size="14.00">プトレマイオス 83&#45;168</text>
<polygon fill="none" stroke="none" points="944.4,-2164 944.4,-2199 1108.4,-2199 1108.4,-2164 944.4,-2164"/>
</g>
<!-- 2586501671609039663 -->
<g id="node26" class="node"><title>2586501671609039663</title>
<ellipse fill="none" stroke="none" cx="1314.4" cy="-2181.5" rx="1.8" ry="1.8"/>
</g>
<!-- &#45;2995804881777321326 -->
<g id="node27" class="node"><title>&#45;2995804881777321326</title>
<ellipse fill="none" stroke="none" cx="1436.8" cy="-2181.5" rx="1.8" ry="1.8"/>
</g>
<!-- 2586501671609039663&#45;&gt;&#45;2995804881777321326 -->
<g id="edge9" class="edge"><title>2586501671609039663&#45;&gt;&#45;2995804881777321326</title>
<path fill="none" stroke="blue" d="M1316.52,-2181.5C1330.22,-2181.5 1406.24,-2181.5 1429.82,-2181.5"/>
<polyline fill="none" stroke="blue" points="1434.99,-2181.5 1429.99,-2181.5 "/>
</g>
<!-- label9 -->
<g id="node28" class="node"><title>label9</title>
<polygon fill="none" stroke="none" points="1808.68,-2095 1646.68,-2095 1646.68,-2052 1808.68,-2052 1808.68,-2095"/>
<polygon fill="none" stroke="none" points="1657.68,-2058.5 1657.68,-2087.5 1664.68,-2087.5 1664.68,-2058.5 1657.68,-2058.5"/>
<polygon fill="none" stroke="none" points="1666.68,-2058.5 1666.68,-2087.5 1797.68,-2087.5 1797.68,-2058.5 1666.68,-2058.5"/>
<text text-anchor="start" x="1669.55" y="-2070.32" font-family="Arial" font-size="14.00">ムハンマド 570&#45;632</text>
<polygon fill="none" stroke="none" points="1654.68,-2056 1654.68,-2091 1800.68,-2091 1800.68,-2056 1654.68,-2056"/>
</g>
<!-- 1813402873075735578 -->
<g id="node29" class="node"><title>1813402873075735578</title>
<ellipse fill="none" stroke="none" cx="2015.68" cy="-2073.5" rx="1.8" ry="1.8"/>
</g>
<!-- 2929001968875811849 -->
<g id="node30" class="node"><title>2929001968875811849</title>
<ellipse fill="none" stroke="none" cx="2104.96" cy="-2073.5" rx="1.8" ry="1.8"/>
</g>
<!-- 1813402873075735578&#45;&gt;2929001968875811849 -->
<g id="edge10" class="edge"><title>1813402873075735578&#45;&gt;2929001968875811849</title>
<path fill="none" stroke="blue" d="M2017.54,-2073.5C2027.89,-2073.5 2078.48,-2073.5 2097.61,-2073.5"/>
<polyline fill="none" stroke="blue" points="2103.11,-2073.5 2098.11,-2073.5 "/>
</g>
<!-- label10 -->
<g id="node31" class="node"><title>label10</title>
<polygon fill="none" stroke="none" points="1872.76,-1987 1674.76,-1987 1674.76,-1944 1872.76,-1944 1872.76,-1987"/>
<polygon fill="none" stroke="none" points="1685.76,-1950.5 1685.76,-1979.5 1692.76,-1979.5 1692.76,-1950.5 1685.76,-1950.5"/>
<polygon fill="none" stroke="none" points="1694.76,-1950.5 1694.76,-1979.5 1861.76,-1979.5 1861.76,-1950.5 1694.76,-1950.5"/>
<text text-anchor="start" x="1697.45" y="-1962.32" font-family="Arial" font-size="14.00">玄奘(げんじょう) 602&#45;664</text>
<polygon fill="none" stroke="none" points="1682.76,-1948 1682.76,-1983 1864.76,-1983 1864.76,-1948 1682.76,-1948"/>
</g>
<!-- &#45;4353567378480041967 -->
<g id="node32" class="node"><title>&#45;4353567378480041967</title>
<ellipse fill="none" stroke="none" cx="2061.76" cy="-1965.5" rx="1.8" ry="1.8"/>
</g>
<!-- 4546372381675889565 -->
<g id="node33" class="node"><title>4546372381675889565</title>
<ellipse fill="none" stroke="none" cx="2151.04" cy="-1965.5" rx="1.8" ry="1.8"/>
</g>
<!-- &#45;4353567378480041967&#45;&gt;4546372381675889565 -->
<g id="edge11" class="edge"><title>&#45;4353567378480041967&#45;&gt;4546372381675889565</title>
<path fill="none" stroke="blue" d="M2063.62,-1965.5C2073.97,-1965.5 2124.56,-1965.5 2143.69,-1965.5"/>
<polyline fill="none" stroke="blue" points="2149.19,-1965.5 2144.19,-1965.5 "/>
</g>
<!-- label11 -->
<g id="node34" class="node"><title>label11</title>
<polygon fill="none" stroke="none" points="2814.64,-1879 2610.64,-1879 2610.64,-1836 2814.64,-1836 2814.64,-1879"/>
<polygon fill="none" stroke="none" points="2621.64,-1842.5 2621.64,-1871.5 2628.64,-1871.5 2628.64,-1842.5 2621.64,-1842.5"/>
<polygon fill="none" stroke="none" points="2630.64,-1842.5 2630.64,-1871.5 2803.64,-1871.5 2803.64,-1842.5 2630.64,-1842.5"/>
<text text-anchor="start" x="2633.35" y="-1854.32" font-family="Arial" font-size="14.00">マルコ・ポーロ 1254&#45;1324</text>
<polygon fill="none" stroke="none" points="2618.64,-1840 2618.64,-1875 2806.64,-1875 2806.64,-1840 2618.64,-1840"/>
</g>
<!-- 111922731409532924 -->
<g id="node35" class="node"><title>111922731409532924</title>
<ellipse fill="none" stroke="none" cx="3000.64" cy="-1857.5" rx="1.8" ry="1.8"/>
</g>
<!-- &#45;4288954137848330024 -->
<g id="node36" class="node"><title>&#45;4288954137848330024</title>
<ellipse fill="none" stroke="none" cx="3101.44" cy="-1857.5" rx="1.8" ry="1.8"/>
</g>
<!-- 111922731409532924&#45;&gt;&#45;4288954137848330024 -->
<g id="edge12" class="edge"><title>111922731409532924&#45;&gt;&#45;4288954137848330024</title>
<path fill="none" stroke="blue" d="M3002.75,-1857.5C3014.63,-1857.5 3073.57,-1857.5 3094.25,-1857.5"/>
<polyline fill="none" stroke="blue" points="3099.35,-1857.5 3094.35,-1857.5 "/>
</g>
<!-- label12 -->
<g id="node37" class="node"><title>label12</title>
<polygon fill="none" stroke="none" points="3059.18,-1771 2844.18,-1771 2844.18,-1728 3059.18,-1728 3059.18,-1771"/>
<polygon fill="none" stroke="none" points="2855.68,-1734.5 2855.68,-1763.5 2862.68,-1763.5 2862.68,-1734.5 2855.68,-1734.5"/>
<polygon fill="none" stroke="none" points="2864.68,-1734.5 2864.68,-1763.5 3048.68,-1763.5 3048.68,-1734.5 2864.68,-1734.5"/>
<text text-anchor="start" x="2867.6" y="-1746.32" font-family="Arial" font-size="14.00">雪舟(せっしゅう) 1420&#45;1506</text>
<polygon fill="none" stroke="none" points="2852.18,-1732 2852.18,-1767 3051.18,-1767 3051.18,-1732 2852.18,-1732"/>
</g>
<!-- &#45;1776690459641701717 -->
<g id="node38" class="node"><title>&#45;1776690459641701717</title>
<ellipse fill="none" stroke="none" cx="3239.68" cy="-1749.5" rx="1.8" ry="1.8"/>
</g>
<!-- &#45;4451699499582672622 -->
<g id="node39" class="node"><title>&#45;4451699499582672622</title>
<ellipse fill="none" stroke="none" cx="3363.52" cy="-1749.5" rx="1.8" ry="1.8"/>
</g>
<!-- &#45;1776690459641701717&#45;&gt;&#45;4451699499582672622 -->
<g id="edge13" class="edge"><title>&#45;1776690459641701717&#45;&gt;&#45;4451699499582672622</title>
<path fill="none" stroke="blue" d="M3241.83,-1749.5C3255.69,-1749.5 3332.6,-1749.5 3356.46,-1749.5"/>
<polyline fill="none" stroke="blue" points="3361.69,-1749.5 3356.69,-1749.5 "/>
</g>
<!-- label13 -->
<g id="node40" class="node"><title>label13</title>
<polygon fill="none" stroke="none" points="3084.82,-1663 2907.82,-1663 2907.82,-1620 3084.82,-1620 3084.82,-1663"/>
<polygon fill="none" stroke="none" points="2919.32,-1626.5 2919.32,-1655.5 2926.32,-1655.5 2926.32,-1626.5 2919.32,-1626.5"/>
<polygon fill="none" stroke="none" points="2928.32,-1626.5 2928.32,-1655.5 3074.32,-1655.5 3074.32,-1626.5 2928.32,-1626.5"/>
<text text-anchor="start" x="2930.9" y="-1638.32" font-family="Arial" font-size="14.00">コロンブス 1451&#45;1506</text>
<polygon fill="none" stroke="none" points="2915.82,-1624 2915.82,-1659 3076.82,-1659 3076.82,-1624 2915.82,-1624"/>
</g>
<!-- 2899467118375005530 -->
<g id="node41" class="node"><title>2899467118375005530</title>
<ellipse fill="none" stroke="none" cx="3284.32" cy="-1641.5" rx="1.8" ry="1.8"/>
</g>
<!-- 2655719863446652167 -->
<g id="node42" class="node"><title>2655719863446652167</title>
<ellipse fill="none" stroke="none" cx="3363.52" cy="-1641.5" rx="1.8" ry="1.8"/>
</g>
<!-- 2899467118375005530&#45;&gt;2655719863446652167 -->
<g id="edge14" class="edge"><title>2899467118375005530&#45;&gt;2655719863446652167</title>
<path fill="none" stroke="blue" d="M3286.28,-1641.5C3295.95,-1641.5 3338.87,-1641.5 3356.21,-1641.5"/>
<polyline fill="none" stroke="blue" points="3361.63,-1641.5 3356.63,-1641.5 "/>
</g>
<!-- label14 -->
<g id="node43" class="node"><title>label14</title>
<polygon fill="none" stroke="none" points="3128.26,-1555 2867.26,-1555 2867.26,-1512 3128.26,-1512 3128.26,-1555"/>
<polygon fill="none" stroke="none" points="2878.76,-1518.5 2878.76,-1547.5 2885.76,-1547.5 2885.76,-1518.5 2878.76,-1518.5"/>
<polygon fill="none" stroke="none" points="2887.76,-1518.5 2887.76,-1547.5 3117.76,-1547.5 3117.76,-1518.5 2887.76,-1518.5"/>
<text text-anchor="start" x="2890.69" y="-1530.32" font-family="Arial" font-size="14.00">レオナルド・ダ・ビンチ 1452&#45;1519</text>
<polygon fill="none" stroke="none" points="2875.26,-1516 2875.26,-1551 3120.26,-1551 3120.26,-1516 2875.26,-1516"/>
</g>
<!-- 485001959215987812 -->
<g id="node44" class="node"><title>485001959215987812</title>
<ellipse fill="none" stroke="none" cx="3285.76" cy="-1533.5" rx="1.8" ry="1.8"/>
</g>
<!-- &#45;4227554104305428371 -->
<g id="node45" class="node"><title>&#45;4227554104305428371</title>
<ellipse fill="none" stroke="none" cx="3382.24" cy="-1533.5" rx="1.8" ry="1.8"/>
</g>
<!-- 485001959215987812&#45;&gt;&#45;4227554104305428371 -->
<g id="edge15" class="edge"><title>485001959215987812&#45;&gt;&#45;4227554104305428371</title>
<path fill="none" stroke="blue" d="M3287.78,-1533.5C3299.1,-1533.5 3355.07,-1533.5 3375.1,-1533.5"/>
<polyline fill="none" stroke="blue" points="3380.24,-1533.5 3375.24,-1533.5 "/>
</g>
<!-- label15 -->
<g id="node46" class="node"><title>label15</title>
<polygon fill="none" stroke="none" points="3165.5,-1447 2890.5,-1447 2890.5,-1404 3165.5,-1404 3165.5,-1447"/>
<polygon fill="none" stroke="none" points="2902,-1410.5 2902,-1439.5 2909,-1439.5 2909,-1410.5 2902,-1410.5"/>
<polygon fill="none" stroke="none" points="2911,-1410.5 2911,-1439.5 3155,-1439.5 3155,-1410.5 2911,-1410.5"/>
<text text-anchor="start" x="2913.79" y="-1422.32" font-family="Arial" font-size="14.00">ニコラウス・コペルニクス 1473&#45;1543</text>
<polygon fill="none" stroke="none" points="2898.5,-1408 2898.5,-1443 3157.5,-1443 3157.5,-1408 2898.5,-1408"/>
</g>
<!-- 3885997188523844191 -->
<g id="node47" class="node"><title>3885997188523844191</title>
<ellipse fill="none" stroke="none" cx="3316" cy="-1425.5" rx="1.8" ry="1.8"/>
</g>
<!-- 3152042099718111061 -->
<g id="node48" class="node"><title>3152042099718111061</title>
<ellipse fill="none" stroke="none" cx="3416.8" cy="-1425.5" rx="1.8" ry="1.8"/>
</g>
<!-- 3885997188523844191&#45;&gt;3152042099718111061 -->
<g id="edge16" class="edge"><title>3885997188523844191&#45;&gt;3152042099718111061</title>
<path fill="none" stroke="blue" d="M3318.11,-1425.5C3329.99,-1425.5 3388.93,-1425.5 3409.61,-1425.5"/>
<polyline fill="none" stroke="blue" points="3414.71,-1425.5 3409.71,-1425.5 "/>
</g>
<!-- label16 -->
<g id="node49" class="node"><title>label16</title>
<polygon fill="none" stroke="none" points="3275.54,-1339 3042.54,-1339 3042.54,-1296 3275.54,-1296 3275.54,-1339"/>
<polygon fill="none" stroke="none" points="3054.04,-1302.5 3054.04,-1331.5 3061.04,-1331.5 3061.04,-1302.5 3054.04,-1302.5"/>
<polygon fill="none" stroke="none" points="3063.04,-1302.5 3063.04,-1331.5 3265.04,-1331.5 3265.04,-1302.5 3063.04,-1302.5"/>
<text text-anchor="start" x="3065.62" y="-1314.32" font-family="Arial" font-size="14.00">ガリレオ・ガリレイ 1564&#45;1642</text>
<polygon fill="none" stroke="none" points="3050.54,-1300 3050.54,-1335 3267.54,-1335 3267.54,-1300 3050.54,-1300"/>
</g>
<!-- &#45;4150635064050134620 -->
<g id="node50" class="node"><title>&#45;4150635064050134620</title>
<ellipse fill="none" stroke="none" cx="3447.04" cy="-1317.5" rx="1.8" ry="1.8"/>
</g>
<!-- &#45;637409592398871117 -->
<g id="node51" class="node"><title>&#45;637409592398871117</title>
<ellipse fill="none" stroke="none" cx="3559.36" cy="-1317.5" rx="1.8" ry="1.8"/>
</g>
<!-- &#45;4150635064050134620&#45;&gt;&#45;637409592398871117 -->
<g id="edge17" class="edge"><title>&#45;4150635064050134620&#45;&gt;&#45;637409592398871117</title>
<path fill="none" stroke="blue" d="M3448.99,-1317.5C3461.4,-1317.5 3529.55,-1317.5 3552.11,-1317.5"/>
<polyline fill="none" stroke="blue" points="3557.36,-1317.5 3552.36,-1317.5 "/>
</g>
<!-- label17 -->
<g id="node52" class="node"><title>label17</title>
<polygon fill="none" stroke="none" points="3285.62,-1231 3052.62,-1231 3052.62,-1188 3285.62,-1188 3285.62,-1231"/>
<polygon fill="none" stroke="none" points="3064.12,-1194.5 3064.12,-1223.5 3071.12,-1223.5 3071.12,-1194.5 3064.12,-1194.5"/>
<polygon fill="none" stroke="none" points="3073.12,-1194.5 3073.12,-1223.5 3275.12,-1223.5 3275.12,-1194.5 3073.12,-1194.5"/>
<text text-anchor="start" x="3075.7" y="-1206.32" font-family="Arial" font-size="14.00">ヨハネス・ケプラー 1571&#45;1630</text>
<polygon fill="none" stroke="none" points="3060.62,-1192 3060.62,-1227 3277.62,-1227 3277.62,-1192 3060.62,-1192"/>
</g>
<!-- &#45;3973256087791122644 -->
<g id="node53" class="node"><title>&#45;3973256087791122644</title>
<ellipse fill="none" stroke="none" cx="3457.12" cy="-1209.5" rx="1.8" ry="1.8"/>
</g>
<!-- &#45;609925596337748285 -->
<g id="node54" class="node"><title>&#45;609925596337748285</title>
<ellipse fill="none" stroke="none" cx="3542.08" cy="-1209.5" rx="1.8" ry="1.8"/>
</g>
<!-- &#45;3973256087791122644&#45;&gt;&#45;609925596337748285 -->
<g id="edge18" class="edge"><title>&#45;3973256087791122644&#45;&gt;&#45;609925596337748285</title>
<path fill="none" stroke="blue" d="M3459.22,-1209.5C3469.69,-1209.5 3516.46,-1209.5 3534.73,-1209.5"/>
<polyline fill="none" stroke="blue" points="3540.05,-1209.5 3535.05,-1209.5 "/>
</g>
<!-- label18 -->
<g id="node55" class="node"><title>label18</title>
<polygon fill="none" stroke="none" points="3400.86,-1123 3141.86,-1123 3141.86,-1080 3400.86,-1080 3400.86,-1123"/>
<polygon fill="none" stroke="none" points="3153.36,-1086.5 3153.36,-1115.5 3160.36,-1115.5 3160.36,-1086.5 3153.36,-1086.5"/>
<polygon fill="none" stroke="none" points="3162.36,-1086.5 3162.36,-1115.5 3390.36,-1115.5 3390.36,-1086.5 3162.36,-1086.5"/>
<text text-anchor="start" x="3165.2" y="-1098.32" font-family="Arial" font-size="14.00">アイザック・ニュートン 1642&#45;1727</text>
<polygon fill="none" stroke="none" points="3149.86,-1084 3149.86,-1119 3392.86,-1119 3392.86,-1084 3149.86,-1084"/>
</g>
<!-- 2912744775958663718 -->
<g id="node56" class="node"><title>2912744775958663718</title>
<ellipse fill="none" stroke="none" cx="3559.36" cy="-1101.5" rx="1.8" ry="1.8"/>
</g>
<!-- &#45;3677835840533445936 -->
<g id="node57" class="node"><title>&#45;3677835840533445936</title>
<ellipse fill="none" stroke="none" cx="3681.76" cy="-1101.5" rx="1.8" ry="1.8"/>
</g>
<!-- 2912744775958663718&#45;&gt;&#45;3677835840533445936 -->
<g id="edge19" class="edge"><title>2912744775958663718&#45;&gt;&#45;3677835840533445936</title>
<path fill="none" stroke="blue" d="M3561.48,-1101.5C3575.18,-1101.5 3651.2,-1101.5 3674.78,-1101.5"/>
<polyline fill="none" stroke="blue" points="3679.95,-1101.5 3674.95,-1101.5 "/>
</g>
<!-- label19 -->
<g id="node58" class="node"><title>label19</title>
<polygon fill="none" stroke="none" points="3539.1,-1015 3280.1,-1015 3280.1,-972 3539.1,-972 3539.1,-1015"/>
<polygon fill="none" stroke="none" points="3291.6,-978.5 3291.6,-1007.5 3298.6,-1007.5 3298.6,-978.5 3291.6,-978.5"/>
<polygon fill="none" stroke="none" points="3300.6,-978.5 3300.6,-1007.5 3528.6,-1007.5 3528.6,-978.5 3300.6,-978.5"/>
<text text-anchor="start" x="3303.23" y="-990.32" font-family="Arial" font-size="14.00">ウィリアム・ハーシェル 1738&#45;1822</text>
<polygon fill="none" stroke="none" points="3288.1,-976 3288.1,-1011 3531.1,-1011 3531.1,-976 3288.1,-976"/>
</g>
<!-- &#45;3974584940016772166 -->
<g id="node59" class="node"><title>&#45;3974584940016772166</title>
<ellipse fill="none" stroke="none" cx="3697.6" cy="-993.5" rx="1.8" ry="1.8"/>
</g>
<!-- 3711989153169722629 -->
<g id="node60" class="node"><title>3711989153169722629</title>
<ellipse fill="none" stroke="none" cx="3818.56" cy="-993.5" rx="1.8" ry="1.8"/>
</g>
<!-- &#45;3974584940016772166&#45;&gt;3711989153169722629 -->
<g id="edge20" class="edge"><title>&#45;3974584940016772166&#45;&gt;3711989153169722629</title>
<path fill="none" stroke="blue" d="M3699.7,-993.5C3713.18,-993.5 3787.72,-993.5 3811.36,-993.5"/>
<polyline fill="none" stroke="blue" points="3816.4,-993.5 3811.4,-993.5 "/>
</g>
<!-- label20 -->
<g id="node61" class="node"><title>label20</title>
<polygon fill="none" stroke="none" points="3557.38,-907 3296.38,-907 3296.38,-864 3557.38,-864 3557.38,-907"/>
<polygon fill="none" stroke="none" points="3307.88,-870.5 3307.88,-899.5 3314.88,-899.5 3314.88,-870.5 3307.88,-870.5"/>
<polygon fill="none" stroke="none" points="3316.88,-870.5 3316.88,-899.5 3546.88,-899.5 3546.88,-870.5 3316.88,-870.5"/>
<text text-anchor="start" x="3319.74" y="-882.32" font-family="Arial" font-size="14.00">カロライン・ハーシェル 1750&#45;1848</text>
<polygon fill="none" stroke="none" points="3304.38,-868 3304.38,-903 3549.38,-903 3549.38,-868 3304.38,-868"/>
</g>
<!-- &#45;1654561090095706047 -->
<g id="node62" class="node"><title>&#45;1654561090095706047</title>
<ellipse fill="none" stroke="none" cx="3714.88" cy="-885.5" rx="1.8" ry="1.8"/>
</g>
<!-- &#45;3559091421424508801 -->
<g id="node63" class="node"><title>&#45;3559091421424508801</title>
<ellipse fill="none" stroke="none" cx="3856" cy="-885.5" rx="1.8" ry="1.8"/>
</g>
<!-- &#45;1654561090095706047&#45;&gt;&#45;3559091421424508801 -->
<g id="edge21" class="edge"><title>&#45;1654561090095706047&#45;&gt;&#45;3559091421424508801</title>
<path fill="none" stroke="blue" d="M3716.87,-885.5C3731.51,-885.5 3822.5,-885.5 3848.86,-885.5"/>
<polyline fill="none" stroke="blue" points="3853.87,-885.5 3848.87,-885.5 "/>
</g>
<!-- label21 -->
<g id="node64" class="node"><title>label21</title>
<polygon fill="none" stroke="none" points="3651.16,-799 3309.16,-799 3309.16,-756 3651.16,-756 3651.16,-799"/>
<polygon fill="none" stroke="none" points="3320.16,-762.5 3320.16,-791.5 3327.16,-791.5 3327.16,-762.5 3320.16,-762.5"/>
<polygon fill="none" stroke="none" points="3329.16,-762.5 3329.16,-791.5 3640.16,-791.5 3640.16,-762.5 3329.16,-762.5"/>
<text text-anchor="start" x="3331.71" y="-774.32" font-family="Arial" font-size="14.00">ヨセフ・フォン・フラウンホーファー 1787&#45;1826</text>
<polygon fill="none" stroke="none" points="3317.16,-760 3317.16,-795 3643.16,-795 3643.16,-760 3317.16,-760"/>
</g>
<!-- &#45;770169425023545887 -->
<g id="node65" class="node"><title>&#45;770169425023545887</title>
<ellipse fill="none" stroke="none" cx="3768.16" cy="-777.5" rx="1.8" ry="1.8"/>
</g>
<!-- 1870230195679411210 -->
<g id="node66" class="node"><title>1870230195679411210</title>
<ellipse fill="none" stroke="none" cx="3824.32" cy="-777.5" rx="1.8" ry="1.8"/>
</g>
<!-- &#45;770169425023545887&#45;&gt;1870230195679411210 -->
<g id="edge22" class="edge"><title>&#45;770169425023545887&#45;&gt;1870230195679411210</title>
<path fill="none" stroke="blue" d="M3770.03,-777.5C3777.36,-777.5 3804.36,-777.5 3817.31,-777.5"/>
<polyline fill="none" stroke="blue" points="3822.39,-777.5 3817.39,-777.5 "/>
</g>
<!-- label22 -->
<g id="node67" class="node"><title>label22</title>
<polygon fill="none" stroke="none" points="3603.36,-691 3371.36,-691 3371.36,-648 3603.36,-648 3603.36,-691"/>
<polygon fill="none" stroke="none" points="3382.36,-654.5 3382.36,-683.5 3389.36,-683.5 3389.36,-654.5 3382.36,-654.5"/>
<polygon fill="none" stroke="none" points="3391.36,-654.5 3391.36,-683.5 3592.36,-683.5 3592.36,-654.5 3391.36,-654.5"/>
<text text-anchor="start" x="3393.93" y="-666.32" font-family="Arial" font-size="14.00">ジョン・ハーシェル 1792&#45;1871</text>
<polygon fill="none" stroke="none" points="3379.36,-652 3379.36,-687 3595.36,-687 3595.36,-652 3379.36,-652"/>
</g>
<!-- 1321195708589228257 -->
<g id="node68" class="node"><title>1321195708589228257</title>
<ellipse fill="none" stroke="none" cx="3775.36" cy="-669.5" rx="1.8" ry="1.8"/>
</g>
<!-- 2413363019280855652 -->
<g id="node69" class="node"><title>2413363019280855652</title>
<ellipse fill="none" stroke="none" cx="3889.12" cy="-669.5" rx="1.8" ry="1.8"/>
</g>
<!-- 1321195708589228257&#45;&gt;2413363019280855652 -->
<g id="edge23" class="edge"><title>1321195708589228257&#45;&gt;2413363019280855652</title>
<path fill="none" stroke="blue" d="M3777.33,-669.5C3789.96,-669.5 3859.52,-669.5 3882.07,-669.5"/>
<polyline fill="none" stroke="blue" points="3887.09,-669.5 3882.09,-669.5 "/>
</g>
<!-- label23 -->
<g id="node70" class="node"><title>label23</title>
<polygon fill="none" stroke="none" points="3668.2,-583 3338.2,-583 3338.2,-540 3668.2,-540 3668.2,-583"/>
<polygon fill="none" stroke="none" points="3349.2,-546.5 3349.2,-575.5 3356.2,-575.5 3356.2,-546.5 3349.2,-546.5"/>
<polygon fill="none" stroke="none" points="3358.2,-546.5 3358.2,-575.5 3657.2,-575.5 3657.2,-546.5 3358.2,-546.5"/>
<text text-anchor="start" x="3361.19" y="-558.32" font-family="Arial" font-size="14.00">ヨハン・クリスチャン・ドップラー 1803&#45;1853</text>
<polygon fill="none" stroke="none" points="3346.2,-544 3346.2,-579 3660.2,-579 3660.2,-544 3346.2,-544"/>
</g>
<!-- &#45;1143010733109719879 -->
<g id="node71" class="node"><title>&#45;1143010733109719879</title>
<ellipse fill="none" stroke="none" cx="3791.2" cy="-561.5" rx="1.8" ry="1.8"/>
</g>
<!-- 3977315959458758666 -->
<g id="node72" class="node"><title>3977315959458758666</title>
<ellipse fill="none" stroke="none" cx="3863.2" cy="-561.5" rx="1.8" ry="1.8"/>
</g>
<!-- &#45;1143010733109719879&#45;&gt;3977315959458758666 -->
<g id="edge24" class="edge"><title>&#45;1143010733109719879&#45;&gt;3977315959458758666</title>
<path fill="none" stroke="blue" d="M3793.28,-561.5C3802.48,-561.5 3839.8,-561.5 3855.83,-561.5"/>
<polyline fill="none" stroke="blue" points="3861.25,-561.5 3856.25,-561.5 "/>
</g>
<!-- label24 -->
<g id="node73" class="node"><title>label24</title>
<polygon fill="none" stroke="none" points="3594.78,-475 3431.78,-475 3431.78,-432 3594.78,-432 3594.78,-475"/>
<polygon fill="none" stroke="none" points="3443.28,-438.5 3443.28,-467.5 3450.28,-467.5 3450.28,-438.5 3443.28,-438.5"/>
<polygon fill="none" stroke="none" points="3452.28,-438.5 3452.28,-467.5 3584.28,-467.5 3584.28,-438.5 3452.28,-438.5"/>
<text text-anchor="start" x="3454.86" y="-450.32" font-family="Arial" font-size="14.00">ショパン 1810&#45;1849</text>
<polygon fill="none" stroke="none" points="3439.78,-436 3439.78,-471 3586.78,-471 3586.78,-436 3439.78,-436"/>
</g>
<!-- 293365340119183912 -->
<g id="node74" class="node"><title>293365340119183912</title>
<ellipse fill="none" stroke="none" cx="3801.28" cy="-453.5" rx="1.8" ry="1.8"/>
</g>
<!-- &#45;258491821606359368 -->
<g id="node75" class="node"><title>&#45;258491821606359368</title>
<ellipse fill="none" stroke="none" cx="3857.44" cy="-453.5" rx="1.8" ry="1.8"/>
</g>
<!-- 293365340119183912&#45;&gt;&#45;258491821606359368 -->
<g id="edge25" class="edge"><title>293365340119183912&#45;&gt;&#45;258491821606359368</title>
<path fill="none" stroke="blue" d="M3803.15,-453.5C3810.48,-453.5 3837.48,-453.5 3850.43,-453.5"/>
<polyline fill="none" stroke="blue" points="3855.51,-453.5 3850.51,-453.5 "/>
</g>
<!-- label25 -->
<g id="node76" class="node"><title>label25</title>
<polygon fill="none" stroke="none" points="3672.76,-367 3402.76,-367 3402.76,-324 3672.76,-324 3672.76,-367"/>
<polygon fill="none" stroke="none" points="3413.76,-330.5 3413.76,-359.5 3420.76,-359.5 3420.76,-330.5 3413.76,-330.5"/>
<polygon fill="none" stroke="none" points="3422.76,-330.5 3422.76,-359.5 3661.76,-359.5 3661.76,-330.5 3422.76,-330.5"/>
<text text-anchor="start" x="3425.39" y="-342.32" font-family="Arial" font-size="14.00">ジョン万次郎(まんじろう) 1827&#45;1898</text>
<polygon fill="none" stroke="none" points="3410.76,-328 3410.76,-363 3664.76,-363 3664.76,-328 3410.76,-328"/>
</g>
<!-- &#45;4590768576673190608 -->
<g id="node77" class="node"><title>&#45;4590768576673190608</title>
<ellipse fill="none" stroke="none" cx="3825.76" cy="-345.5" rx="1.8" ry="1.8"/>
</g>
<!-- 1054167433634587205 -->
<g id="node78" class="node"><title>1054167433634587205</title>
<ellipse fill="none" stroke="none" cx="3928" cy="-345.5" rx="1.8" ry="1.8"/>
</g>
<!-- &#45;4590768576673190608&#45;&gt;1054167433634587205 -->
<g id="edge26" class="edge"><title>&#45;4590768576673190608&#45;&gt;1054167433634587205</title>
<path fill="none" stroke="blue" d="M3827.9,-345.5C3839.95,-345.5 3899.73,-345.5 3920.71,-345.5"/>
<polyline fill="none" stroke="blue" points="3925.88,-345.5 3920.88,-345.5 "/>
</g>
<!-- label26 -->
<g id="node79" class="node"><title>label26</title>
<polygon fill="none" stroke="none" points="3649.7,-259 3500.7,-259 3500.7,-216 3649.7,-216 3649.7,-259"/>
<polygon fill="none" stroke="none" points="3512.2,-222.5 3512.2,-251.5 3519.2,-251.5 3519.2,-222.5 3512.2,-222.5"/>
<polygon fill="none" stroke="none" points="3521.2,-222.5 3521.2,-251.5 3639.2,-251.5 3639.2,-222.5 3521.2,-222.5"/>
<text text-anchor="start" x="3524.06" y="-234.32" font-family="Arial" font-size="14.00">ゴッホ 1853&#45;1890</text>
<polygon fill="none" stroke="none" points="3508.7,-220 3508.7,-255 3641.7,-255 3641.7,-220 3508.7,-220"/>
</g>
<!-- 4016669850153571823 -->
<g id="node80" class="node"><title>4016669850153571823</title>
<ellipse fill="none" stroke="none" cx="3863.2" cy="-237.5" rx="1.8" ry="1.8"/>
</g>
<!-- &#45;1235309153234977520 -->
<g id="node81" class="node"><title>&#45;1235309153234977520</title>
<ellipse fill="none" stroke="none" cx="3916.48" cy="-237.5" rx="1.8" ry="1.8"/>
</g>
<!-- 4016669850153571823&#45;&gt;&#45;1235309153234977520 -->
<g id="edge27" class="edge"><title>4016669850153571823&#45;&gt;&#45;1235309153234977520</title>
<path fill="none" stroke="blue" d="M3865.49,-237.5C3872.95,-237.5 3896.8,-237.5 3909.06,-237.5"/>
<polyline fill="none" stroke="blue" points="3914.26,-237.5 3909.26,-237.5 "/>
</g>
<!-- label27 -->
<g id="node82" class="node"><title>label27</title>
<polygon fill="none" stroke="none" points="3721.64,-151 3503.64,-151 3503.64,-108 3721.64,-108 3721.64,-151"/>
<polygon fill="none" stroke="none" points="3514.64,-114.5 3514.64,-143.5 3521.64,-143.5 3521.64,-114.5 3514.64,-114.5"/>
<polygon fill="none" stroke="none" points="3523.64,-114.5 3523.64,-143.5 3710.64,-143.5 3710.64,-114.5 3523.64,-114.5"/>
<text text-anchor="start" x="3526.28" y="-126.32" font-family="Arial" font-size="14.00">アインシュタイン 1879&#45;1955</text>
<polygon fill="none" stroke="none" points="3511.64,-112 3511.64,-147 3713.64,-147 3713.64,-112 3511.64,-112"/>
</g>
<!-- 2134332946447821012 -->
<g id="node83" class="node"><title>2134332946447821012</title>
<ellipse fill="none" stroke="none" cx="3900.64" cy="-129.5" rx="1.8" ry="1.8"/>
</g>
<!-- 4289436286741134758 -->
<g id="node84" class="node"><title>4289436286741134758</title>
<ellipse fill="none" stroke="none" cx="4010.08" cy="-129.5" rx="1.8" ry="1.8"/>
</g>
<!-- 2134332946447821012&#45;&gt;4289436286741134758 -->
<g id="edge28" class="edge"><title>2134332946447821012&#45;&gt;4289436286741134758</title>
<path fill="none" stroke="blue" d="M3902.54,-129.5C3914.63,-129.5 3981.03,-129.5 4003.01,-129.5"/>
<polyline fill="none" stroke="blue" points="4008.13,-129.5 4003.13,-129.5 "/>
</g>
<!-- label28 -->
<g id="node85" class="node"><title>label28</title>
<polygon fill="none" stroke="none" points="3708.04,-43 3546.04,-43 3546.04,-0 3708.04,-0 3708.04,-43"/>
<polygon fill="none" stroke="none" points="3557.04,-6.5 3557.04,-35.5 3564.04,-35.5 3564.04,-6.5 3557.04,-6.5"/>
<polygon fill="none" stroke="none" points="3566.04,-6.5 3566.04,-35.5 3697.04,-35.5 3697.04,-6.5 3566.04,-6.5"/>
<text text-anchor="start" x="3568.75" y="-18.3203" font-family="Arial" font-size="14.00">ハッブル 1889&#45;1953</text>
<polygon fill="none" stroke="none" points="3554.04,-4 3554.04,-39 3700.04,-39 3700.04,-4 3554.04,-4"/>
</g>
<!-- &#45;3779275377739860490 -->
<g id="node86" class="node"><title>&#45;3779275377739860490</title>
<ellipse fill="none" stroke="none" cx="3915.04" cy="-21.5" rx="1.8" ry="1.8"/>
</g>
<!-- 3762918339084174933 -->
<g id="node87" class="node"><title>3762918339084174933</title>
<ellipse fill="none" stroke="none" cx="4007.2" cy="-21.5" rx="1.8" ry="1.8"/>
</g>
<!-- &#45;3779275377739860490&#45;&gt;3762918339084174933 -->
<g id="edge29" class="edge"><title>&#45;3779275377739860490&#45;&gt;3762918339084174933</title>
<path fill="none" stroke="blue" d="M3916.96,-21.5C3927.74,-21.5 3980.79,-21.5 4000.13,-21.5"/>
<polyline fill="none" stroke="blue" points="4005.29,-21.5 4000.29,-21.5001 "/>
</g>
</g>
</svg>
